{
.appVersion = "1179";
customParameters = (
{
name = glyphOrder;
value = (
_shape,
_grid,
_shape.0,
_shape.1,
_shape.2,
_shape.3,
_shape.4,
_shape.5,
_shape.6,
_shape.7,
_shape.8,
_shape.9,
_shape.10,
_shape.11,
_shape.12,
_shape.13,
_shape.14,
_shape.15,
_shape.16,
_shape.17,
_shape.18,
_shape.19,
_shape.20,
_shape.21,
_shape.22,
_shape.23,
_shape.24,
_shape.25,
_shape.26,
_shape.27,
_shape.28,
_shape.29,
_shape.30,
_shape.31,
_shape.32,
_shape.33,
_shape.34,
_shape.35,
_shape.36,
_shape.37,
_shape.38,
_shape.39,
_shape.40,
_shape.41,
_shape.42,
_shape.43,
_shape.44,
_shape.45,
_shape.46,
_shape.47,
_shape.48,
_shape.49,
_grid.0,
_grid.1,
_grid.2,
_grid.3,
_grid.4,
_grid.5,
_grid.6,
_grid.7,
_grid.8,
_grid.9,
_grid.10,
_grid.11,
_grid.12,
_grid.13,
_grid.14,
_grid.15,
_grid.16,
_grid.17,
_grid.18,
_grid.19,
_grid.20,
_grid.21,
_grid.22,
_grid.23,
_grid.24,
_grid.25,
_grid.26,
_grid.27,
_grid.28,
_grid.29,
_grid.30,
_grid.31,
_grid.32,
_grid.33,
_grid.34,
_grid.35,
_grid.36,
_grid.37,
_grid.38,
_grid.39,
_grid.40,
_grid.41,
_grid.42,
_grid.43,
_grid.44,
_grid.45,
_grid.46,
_grid.47,
_grid.48,
_grid.49
);
},
{
name = Axes;
value = (
{
Name = Weight;
Tag = wght;
},
{
Name = Width;
Tag = wdth;
},
{
Name = "Optical size";
Tag = opsz;
}
);
}
);
date = "2018-11-21 14:03:31 +0000";
familyName = "Handjet shapes";
fontMaster = (
{
ascender = 720;
capHeight = 660;
custom = "Small Lozenge";
customValue = 100;
customParameters = (
{
name = underlinePosition;
value = -120;
},
{
name = underlineThickness;
value = 10;
},
{
name = typoAscender;
value = 720;
},
{
name = typoDescender;
value = -240;
},
{
name = typoLineGap;
value = 0;
},
{
name = hheaAscender;
value = 720;
},
{
name = hheaDescender;
value = -240;
},
{
name = hheaLineGap;
value = 0;
},
{
name = winAscent;
value = 720;
},
{
name = winDescent;
value = 240;
}
);
descender = -180;
horizontalStems = (
10
);
id = "48ADB338-978D-470D-BA28-092259F64D79";
verticalStems = (
10
);
weightValue = 10;
xHeight = 480;
},
{

glyphs = (
{
color = 0;
glyphname = _shape;
lastChange = "2018-11-22 21:31:21 +0000";
layers = (
{
background = {
paths = (
{
closed = 1;
nodes = (
"33 25 OFFCURVE",
"35 27 OFFCURVE",
"35 30 CURVE SMOOTH",
"35 33 OFFCURVE",
"33 35 OFFCURVE",
"30 35 CURVE SMOOTH",
"27 35 OFFCURVE",
"25 33 OFFCURVE",
"25 30 CURVE SMOOTH",
"25 27 OFFCURVE",
"27 25 OFFCURVE",
"30 25 CURVE SMOOTH"
);
}
);
};
layerId = "48ADB338-978D-470D-BA28-092259F64D79";
paths = (
{
closed = 1;
nodes = (
"33 32 OFFCURVE",
"32 33 OFFCURVE",
"30 35 CURVE",
"28 33 OFFCURVE",
"27 32 OFFCURVE",
"25 30 CURVE",
"27 28 OFFCURVE",
"28 27 OFFCURVE",
"30 25 CURVE",
"32 27 OFFCURVE",
"33 28 OFFCURVE",
"35 30 CURVE"
);
}
);
width = 60;
},
{
background = {
paths = (
{
closed = 1;
nodes = (
"33 25 OFFCURVE",
"35 27 OFFCURVE",
"35 30 CURVE SMOOTH",
"35 33 OFFCURVE",
"33 35 OFFCURVE",
"30 35 CURVE SMOOTH",
"27 35 OFFCURVE",
"25 33 OFFCURVE",
"25 30 CURVE SMOOTH",
"25 27 OFFCURVE",
"27 25 OFFCURVE",
"30 25 CURVE SMOOTH"
);
}
);
};
layerId = "631FB97C-DDFD-47C8-A05F-E57C7765765C";
paths = (
{
closed = 1;
nodes = (
"34 25 OFFCURVE",
"28 35 OFFCURVE",
"28 35 CURVE",
"27 35 OFFCURVE",
"27 35 OFFCURVE",
"26 35 CURVE",
"26 35 OFFCURVE",
"32 25 OFFCURVE",
"32 25 CURVE",
"33 25 OFFCURVE",
"33 25 OFFCURVE",
"34 25 CURVE"
);
}
);
width = 60;
},
{
background = {
paths = (
{
closed = 1;
nodes = (
"33 25 OFFCURVE",
"35 27 OFFCURVE",
"35 30 CURVE SMOOTH",
"35 33 OFFCURVE",
"33 35 OFFCURVE",
"30 35 CURVE SMOOTH",
"27 35 OFFCURVE",
"25 33 OFFCURVE",
"25 30 CURVE SMOOTH",
"25 27 OFFCURVE",
"27 25 OFFCURVE",
"30 25 CURVE SMOOTH"
);
}
);
};
layerId = "1979AEBF-ACF3-4293-8280-4EC52756D623";
paths = (
{
closed = 1;
nodes = (
"28 25 OFFCURVE",
"34 35 OFFCURVE",
"34 35 CURVE",
"33 35 OFFCURVE",
"33 35 OFFCURVE",
"32 35 CURVE",
"32 35 OFFCURVE",
"26 25 OFFCURVE",
"26 25 CURVE",
"27 25 OFFCURVE",
"27 25 OFFCURVE",
"28 25 CURVE"
);
}
);
width = 60;
},
{
background = {
paths = (
{
closed = 1;
nodes = (
"33 25 OFFCURVE",
"35 27 OFFCURVE",
"35 30 CURVE SMOOTH",
"35 33 OFFCURVE",
"33 35 OFFCURVE",
"30 35 CURVE SMOOTH",
"27 35 OFFCURVE",
"25 33 OFFCURVE",
"25 30 CURVE SMOOTH",
"25 27 OFFCURVE",
"27 25 OFFCURVE",
"30 25 CURVE SMOOTH"
);
}
);
};
layerId = "51876FD2-FB15-42B1-8983-2C578064692B";
paths = (
{
closed = 1;
nodes = (
"28 29 OFFCURVE",
"32 29 OFFCURVE",
"35 29 CURVE",
"35 30 OFFCURVE",
"35 30 OFFCURVE",
"35 31 CURVE",
"32 31 OFFCURVE",
"28 31 OFFCURVE",
"25 31 CURVE",
"25 30 OFFCURVE",
"25 30 OFFCURVE",
"25 29 CURVE"
);
}
);
width = 60;
},
{
background = {
paths = (
{
closed = 1;
nodes = (
"33 25 OFFCURVE",
"35 27 OFFCURVE",
"35 30 CURVE SMOOTH",
"35 33 OFFCURVE",
"33 35 OFFCURVE",
"30 35 CURVE SMOOTH",
"27 35 OFFCURVE",
"25 33 OFFCURVE",
"25 30 CURVE SMOOTH",
"25 27 OFFCURVE",
"27 25 OFFCURVE",
"30 25 CURVE SMOOTH"
);
}
);
};
layerId = "3E7C7373-894E-465B-B362-7C09A6130116";
paths = (
{
closed = 1;
nodes = (
"28 25 OFFCURVE",
"32 25 OFFCURVE",
"35 25 CURVE",
"35 28 OFFCURVE",
"35 32 OFFCURVE",
"35 35 CURVE",
"32 35 OFFCURVE",
"28 35 OFFCURVE",
"25 35 CURVE",
"25 32 OFFCURVE",
"25 28 OFFCURVE",
"25 25 CURVE"
);
}
);
width = 60;
},
{
background = {
paths = (
{
closed = 1;
nodes = (
"33 25 OFFCURVE",
"35 27 OFFCURVE",
"35 30 CURVE SMOOTH",
"35 33 OFFCURVE",
"33 35 OFFCURVE",
"30 35 CURVE SMOOTH",
"27 35 OFFCURVE",
"25 33 OFFCURVE",
"25 30 CURVE SMOOTH",
"25 27 OFFCURVE",
"27 25 OFFCURVE",
"30 25 CURVE SMOOTH"
);
}
);
};
layerId = "603BEC83-C21E-45CC-B62B-D21219333A9E";
paths = (
{
closed = 1;
nodes = (
"27 25 OFFCURVE",
"29 26 OFFCURVE",
"31 28 CURVE SMOOTH",
"33 30 OFFCURVE",
"35 33 OFFCURVE",
"34 34 CURVE SMOOTH",
"33 35 OFFCURVE",
"31 34 OFFCURVE",
"29 32 CURVE SMOOTH",
"27 30 OFFCURVE",
"25 27 OFFCURVE",
"26 26 CURVE SMOOTH"
);
}
);
width = 60;
},
{
background = {
paths = (
{
closed = 1;
nodes = (
"33 25 OFFCURVE",
"35 27 OFFCURVE",
"35 30 CURVE SMOOTH",
"35 33 OFFCURVE",
"33 35 OFFCURVE",
"30 35 CURVE SMOOTH",
"27 35 OFFCURVE",
"25 33 OFFCURVE",
"25 30 CURVE SMOOTH",
"25 27 OFFCURVE",
"27 25 OFFCURVE",
"30 25 CURVE SMOOTH"
);
}
);
};
layerId = "1BC44DF8-44A1-4B74-831C-40C40A10F098";
paths = (
{
closed = 1;
nodes = (
"35 27 OFFCURVE",
"33 30 OFFCURVE",
"31 32 CURVE SMOOTH",
"29 34 OFFCURVE",
"27 35 OFFCURVE",
"26 34 CURVE SMOOTH",
"25 33 OFFCURVE",
"27 30 OFFCURVE",
"29 28 CURVE SMOOTH",
"31 26 OFFCURVE",
"33 25 OFFCURVE",
"34 26 CURVE SMOOTH"
);
}
);
width = 60;
},
{
background = {
paths = (
{
closed = 1;
nodes = (
"33 25 OFFCURVE",
"35 27 OFFCURVE",
"35 30 CURVE SMOOTH",
"35 33 OFFCURVE",
"33 35 OFFCURVE",
"30 35 CURVE SMOOTH",
"27 35 OFFCURVE",
"25 33 OFFCURVE",
"25 30 CURVE SMOOTH",
"25 27 OFFCURVE",
"27 25 OFFCURVE",
"30 25 CURVE SMOOTH"
);
}
);
};
layerId = "852086DA-8501-469D-AA3F-41FA22DDFBCF";
paths = (
{
closed = 1;
nodes = (
"33 25 OFFCURVE",
"35 27 OFFCURVE",
"35 30 CURVE SMOOTH",
"35 33 OFFCURVE",
"33 35 OFFCURVE",
"30 35 CURVE SMOOTH",
"27 35 OFFCURVE",
"25 33 OFFCURVE",
"25 30 CURVE SMOOTH",
"25 27 OFFCURVE",
"27 25 OFFCURVE",
"30 25 CURVE SMOOTH"
);
}
);
width = 60;
},
{
background = {
paths = (
{
closed = 1;
nodes = (
"33 25 OFFCURVE",
"35 27 OFFCURVE",
"35 30 CURVE SMOOTH",
"35 33 OFFCURVE",
"33 35 OFFCURVE",
"30 35 CURVE SMOOTH",
"27 35 OFFCURVE",
"25 33 OFFCURVE",
"25 30 CURVE SMOOTH",
"25 27 OFFCURVE",
"27 25 OFFCURVE",
"30 25 CURVE SMOOTH"
);
}
);
};
layerId = "438D4B4E-3EA7-4A41-8875-80F76BAAB6B3";
paths = (
{
closed = 1;
nodes = (
"32 28 OFFCURVE",
"35 29 OFFCURVE",
"35 32 CURVE SMOOTH",
"35 36 OFFCURVE",
"30 36 OFFCURVE",
"30 32 CURVE",
"30 36 OFFCURVE",
"25 36 OFFCURVE",
"25 32 CURVE SMOOTH",
"25 29 OFFCURVE",
"28 28 OFFCURVE",
"30 25 CURVE"
);
}
);
width = 60;
},
{
background = {
paths = (
{
closed = 1;
nodes = (
"33 25 OFFCURVE",
"35 27 OFFCURVE",
"35 30 CURVE SMOOTH",
"35 33 OFFCURVE",
"33 35 OFFCURVE",
"30 35 CURVE SMOOTH",
"27 35 OFFCURVE",
"25 33 OFFCURVE",
"25 30 CURVE SMOOTH",
"25 27 OFFCURVE",
"27 25 OFFCURVE",
"30 25 CURVE SMOOTH"
);
}
);
};
layerId = "14BA25F3-C0EE-4CB4-9F98-5DFEB1E18EE7";
paths = (
{
closed = 1;
nodes = (
"30 19 OFFCURVE",
"41 30 OFFCURVE",
"30 30 CURVE",
"41 30 OFFCURVE",
"30 41 OFFCURVE",
"30 30 CURVE",
"30 41 OFFCURVE",
"19 30 OFFCURVE",
"30 30 CURVE",
"19 30 OFFCURVE",
"30 19 OFFCURVE",
"30 30 CURVE"
);
}
);
width = 60;
},
{
layerId = "6EB6CF65-351D-4989-AD9F-DEECEF62225A";
paths = (
{
closed = 1;
nodes = (
"30 -91 OFFCURVE",
"151 30 OFFCURVE",
"31 30 CURVE",
"151 30 OFFCURVE",
"30 151 OFFCURVE",
"30 31 CURVE",
"30 151 OFFCURVE",
"-91 30 OFFCURVE",
"29 30 CURVE",
"-91 30 OFFCURVE",
"30 -91 OFFCURVE",
"30 29 CURVE"
);
}
);
width = 60;
},
{
layerId = "011F2706-27C6-45CF-AFED-5303A8B32752";
paths = (
{
closed = 1;
nodes = (
"60 8 OFFCURVE",
"90 24 OFFCURVE",
"90 56 CURVE SMOOTH",
"90 99 OFFCURVE",
"30 100 OFFCURVE",
"30 47 CURVE",
"30 100 OFFCURVE",
"-30 99 OFFCURVE",
"-30 56 CURVE SMOOTH",
"-30 24 OFFCURVE",
"0 8 OFFCURVE",
"30 -30 CURVE"
);
}
);
width = 60;
},
{
layerId = "DA51B74E-A0F5-42B5-A2C0-D3D9A70E926B";
paths = (
{
closed = 1;
nodes = (
"64 -30 OFFCURVE",
"90 -4 OFFCURVE",
"90 30 CURVE SMOOTH",
"90 64 OFFCURVE",
"64 90 OFFCURVE",
"30 90 CURVE SMOOTH",
"-4 90 OFFCURVE",
"-30 64 OFFCURVE",
"-30 30 CURVE SMOOTH",
"-30 -4 OFFCURVE",
"-4 -30 OFFCURVE",
"30 -30 CURVE SMOOTH"
);
}
);
width = 60;
},
{
layerId = "FA6E6620-C52D-4B33-AA81-50D031CD4A6F";
paths = (
{
closed = 1;
nodes = (
"84 0 OFFCURVE",
"75 27 OFFCURVE",
"51 51 CURVE SMOOTH",
"27 75 OFFCURVE",
"0 84 OFFCURVE",
"-12 72 CURVE SMOOTH",
"-24 60 OFFCURVE",
"-15 33 OFFCURVE",
"9 9 CURVE SMOOTH",
"33 -15 OFFCURVE",
"60 -24 OFFCURVE",
"72 -12 CURVE SMOOTH"
);
}
);
width = 60;
},
{
layerId = "7797199F-D624-4FDD-A36F-0525AE380D0E";
paths = (
{
closed = 1;
nodes = (
"0 -24 OFFCURVE",
"27 -15 OFFCURVE",
"51 9 CURVE SMOOTH",
"75 33 OFFCURVE",
"84 60 OFFCURVE",
"72 72 CURVE SMOOTH",
"60 84 OFFCURVE",
"33 75 OFFCURVE",
"9 51 CURVE SMOOTH",
"-15 27 OFFCURVE",
"-24 0 OFFCURVE",
"-12 -12 CURVE SMOOTH"
);
}
);
width = 60;
},
{
layerId = "D643C430-56B0-49A8-9E39-8604C95EB74F";
paths = (
{
closed = 1;
nodes = (
"10 -30 OFFCURVE",
"50 -30 OFFCURVE",
"90 -30 CURVE",
"90 10 OFFCURVE",
"90 50 OFFCURVE",
"90 90 CURVE",
"50 90 OFFCURVE",
"10 90 OFFCURVE",
"-30 90 CURVE",
"-30 50 OFFCURVE",
"-30 10 OFFCURVE",
"-30 -30 CURVE"
);
}
);
width = 60;
},
{
layerId = "D3FCCDB1-AA10-47A4-A23D-9BF96A588920";
paths = (
{
closed = 1;
nodes = (
"-10 0 OFFCURVE",
"90 0 OFFCURVE",
"90 0 CURVE",
"90 0 OFFCURVE",
"90 60 OFFCURVE",
"90 60 CURVE",
"90 60 OFFCURVE",
"-30 60 OFFCURVE",
"-30 60 CURVE",
"-30 60 OFFCURVE",
"-30 10 OFFCURVE",
"-30 0 CURVE"
);
}
);
width = 60;
},
{
background = {
paths = (
{
closed = 1;
nodes = (
"28 25 OFFCURVE",
"28 25 OFFCURVE",
"29 25 CURVE",
"29 25 OFFCURVE",
"33 35 OFFCURVE",
"33 35 CURVE",
"31 35 OFFCURVE",
"31 35 OFFCURVE",
"31 35 CURVE",
"31 35 OFFCURVE",
"27 25 OFFCURVE",
"27 25 CURVE"
);
}
);
};
layerId = "9520110A-DE13-4414-A7F5-42A172064E5B";
paths = (
{
closed = 1;
nodes = (
"37 -10 OFFCURVE",
"95 90 OFFCURVE",
"95 90 CURVE",
"95 90 OFFCURVE",
"35 90 OFFCURVE",
"35 90 CURVE",
"35 90 OFFCURVE",
"-35 -30 OFFCURVE",
"-35 -30 CURVE",
"-35 -30 OFFCURVE",
"15 -30 OFFCURVE",
"25 -30 CURVE"
);
}
);
width = 60;
},
{
background = {
paths = (
{
closed = 1;
nodes = (
"32 25 OFFCURVE",
"32 25 OFFCURVE",
"33 25 CURVE",
"33 25 OFFCURVE",
"29 35 OFFCURVE",
"29 35 CURVE",
"29 35 OFFCURVE",
"29 35 OFFCURVE",
"27 35 CURVE",
"27 35 OFFCURVE",
"31 25 OFFCURVE",
"31 25 CURVE"
);
}
);
};
layerId = "2DAF2681-E3BA-4DC5-83D2-7594B55BDC1F";
paths = (
{
closed = 1;
nodes = (
"83 -10 OFFCURVE",
"25 90 OFFCURVE",
"25 90 CURVE",
"25 90 OFFCURVE",
"-35 90 OFFCURVE",
"-35 90 CURVE",
"-35 90 OFFCURVE",
"35 -30 OFFCURVE",
"35 -30 CURVE",
"35 -30 OFFCURVE",
"85 -30 OFFCURVE",
"95 -30 CURVE"
);
}
);
width = 60;
},
{
background = {
paths = (
{
closed = 1;
nodes = (
"33 25 OFFCURVE",
"35 27 OFFCURVE",
"35 30 CURVE SMOOTH",
"35 33 OFFCURVE",
"33 35 OFFCURVE",
"30 35 CURVE SMOOTH",
"27 35 OFFCURVE",
"25 33 OFFCURVE",
"25 30 CURVE SMOOTH",
"25 27 OFFCURVE",
"27 25 OFFCURVE",
"30 25 CURVE SMOOTH"
);
}
);
};
layerId = "338DE7A2-67B3-4D26-93B7-9535EBEDDE48";
paths = (
{
closed = 1;
nodes = (
"70 50 OFFCURVE",
"50 70 OFFCURVE",
"30 90 CURVE",
"10 70 OFFCURVE",
"-10 50 OFFCURVE",
"-30 30 CURVE",
"-10 10 OFFCURVE",
"10 -10 OFFCURVE",
"30 -30 CURVE",
"50 -10 OFFCURVE",
"70 10 OFFCURVE",
"90 30 CURVE"
);
}
);
width = 60;
},
{
layerId = "6D95C03C-148A-4E89-A36A-6A79147497B1";
paths = (
{
closed = 1;
nodes = (
"30 -91 OFFCURVE",
"151 30 OFFCURVE",
"31 30 CURVE",
"151 30 OFFCURVE",
"30 151 OFFCURVE",
"30 31 CURVE",
"30 151 OFFCURVE",
"-91 30 OFFCURVE",
"29 30 CURVE",
"-91 30 OFFCURVE",
"30 -91 OFFCURVE",
"30 29 CURVE"
);
}
);
width = 60;
},
{
layerId = "14825B7F-9412-41E2-8CF9-8F44AA640669";
paths = (
{
closed = 1;
nodes = (
"60 8 OFFCURVE",
"90 24 OFFCURVE",
"90 56 CURVE SMOOTH",
"90 99 OFFCURVE",
"30 100 OFFCURVE",
"30 47 CURVE",
"30 100 OFFCURVE",
"-30 99 OFFCURVE",
"-30 56 CURVE SMOOTH",
"-30 24 OFFCURVE",
"0 8 OFFCURVE",
"30 -30 CURVE"
);
}
);
width = 60;
},
{
layerId = "4DFDD194-A56F-4F9E-97BA-3297822BC055";
paths = (
{
closed = 1;
nodes = (
"64 -30 OFFCURVE",
"90 -4 OFFCURVE",
"90 30 CURVE SMOOTH",
"90 64 OFFCURVE",
"64 90 OFFCURVE",
"30 90 CURVE SMOOTH",
"-4 90 OFFCURVE",
"-30 64 OFFCURVE",
"-30 30 CURVE SMOOTH",
"-30 -4 OFFCURVE",
"-4 -30 OFFCURVE",
"30 -30 CURVE SMOOTH"
);
}
);
width = 60;
},
{
layerId = "9C6A9D34-ABAA-4A0D-9930-BC1F7644D0B6";
paths = (
{
closed = 1;
nodes = (
"84 0 OFFCURVE",
"75 27 OFFCURVE",
"51 51 CURVE SMOOTH",
"27 75 OFFCURVE",
"0 84 OFFCURVE",
"-12 72 CURVE SMOOTH",
"-24 60 OFFCURVE",
"-15 33 OFFCURVE",
"9 9 CURVE SMOOTH",
"33 -15 OFFCURVE",
"60 -24 OFFCURVE",
"72 -12 CURVE SMOOTH"
);
}
);
width = 60;
},
{
layerId = "A86FE5DC-CBCB-41B2-8326-591D5FD18EB9";
paths = (
{
closed = 1;
nodes = (
"0 -24 OFFCURVE",
"27 -15 OFFCURVE",
"51 9 CURVE SMOOTH",
"75 33 OFFCURVE",
"84 60 OFFCURVE",
"72 72 CURVE SMOOTH",
"60 84 OFFCURVE",
"33 75 OFFCURVE",
"9 51 CURVE SMOOTH",
"-15 27 OFFCURVE",
"-24 0 OFFCURVE",
"-12 -12 CURVE SMOOTH"
);
}
);
width = 60;
},
{
layerId = "9F96208C-832B-4808-B438-7D3FEE586D2A";
paths = (
{
closed = 1;
nodes = (
"10 -30 OFFCURVE",
"50 -30 OFFCURVE",
"90 -30 CURVE",
"90 10 OFFCURVE",
"90 50 OFFCURVE",
"90 90 CURVE",
"50 90 OFFCURVE",
"10 90 OFFCURVE",
"-30 90 CURVE",
"-30 50 OFFCURVE",
"-30 10 OFFCURVE",
"-30 -30 CURVE"
);
}
);
width = 60;
},
{
layerId = "BD5397A9-1FE6-4514-BE6D-B734FE133BF5";
paths = (
{
closed = 1;
nodes = (
"-10 0 OFFCURVE",
"90 0 OFFCURVE",
"90 0 CURVE",
"90 0 OFFCURVE",
"90 60 OFFCURVE",
"90 60 CURVE",
"90 60 OFFCURVE",
"-30 60 OFFCURVE",
"-30 60 CURVE",
"-30 60 OFFCURVE",
"-30 10 OFFCURVE",
"-30 0 CURVE"
);
}
);
width = 60;
},
{
background = {
paths = (
{
closed = 1;
nodes = (
"28 25 OFFCURVE",
"28 25 OFFCURVE",
"29 25 CURVE",
"29 25 OFFCURVE",
"33 35 OFFCURVE",
"33 35 CURVE",
"31 35 OFFCURVE",
"31 35 OFFCURVE",
"31 35 CURVE",
"31 35 OFFCURVE",
"27 25 OFFCURVE",
"27 25 CURVE"
);
}
);
};
layerId = "A5C2AB9C-ADFD-454D-8DF7-F417DB232433";
paths = (
{
closed = 1;
nodes = (
"37 -10 OFFCURVE",
"95 90 OFFCURVE",
"95 90 CURVE",
"95 90 OFFCURVE",
"35 90 OFFCURVE",
"35 90 CURVE",
"35 90 OFFCURVE",
"-35 -30 OFFCURVE",
"-35 -30 CURVE",
"-35 -30 OFFCURVE",
"15 -30 OFFCURVE",
"25 -30 CURVE"
);
}
);
width = 60;
},
{
background = {
paths = (
{
closed = 1;
nodes = (
"32 25 OFFCURVE",
"32 25 OFFCURVE",
"33 25 CURVE",
"33 25 OFFCURVE",
"29 35 OFFCURVE",
"29 35 CURVE",
"29 35 OFFCURVE",
"29 35 OFFCURVE",
"27 35 CURVE",
"27 35 OFFCURVE",
"31 25 OFFCURVE",
"31 25 CURVE"
);
}
);
};
layerId = "4E15560D-BCA3-4DD9-A968-409C9AA0E428";
paths = (
{
closed = 1;
nodes = (
"83 -10 OFFCURVE",
"25 90 OFFCURVE",
"25 90 CURVE",
"25 90 OFFCURVE",
"-35 90 OFFCURVE",
"-35 90 CURVE",
"-35 90 OFFCURVE",
"35 -30 OFFCURVE",
"35 -30 CURVE",
"35 -30 OFFCURVE",
"85 -30 OFFCURVE",
"95 -30 CURVE"
);
}
);
width = 60;
},
{
background = {
paths = (
{
closed = 1;
nodes = (
"33 25 OFFCURVE",
"35 27 OFFCURVE",
"35 30 CURVE SMOOTH",
"35 33 OFFCURVE",
"33 35 OFFCURVE",
"30 35 CURVE SMOOTH",
"27 35 OFFCURVE",
"25 33 OFFCURVE",
"25 30 CURVE SMOOTH",
"25 27 OFFCURVE",
"27 25 OFFCURVE",
"30 25 CURVE SMOOTH"
);
}
);
};
layerId = "AAD68214-DCF7-41E4-9114-14FE146B1BEB";
paths = (
{
closed = 1;
nodes = (
"70 50 OFFCURVE",
"50 70 OFFCURVE",
"30 90 CURVE",
"10 70 OFFCURVE",
"-10 50 OFFCURVE",
"-30 30 CURVE",
"-10 10 OFFCURVE",
"10 -10 OFFCURVE",
"30 -30 CURVE",
"50 -10 OFFCURVE",
"70 10 OFFCURVE",
"90 30 CURVE"
);
}
);
width = 60;
},
{
background = {
paths = (
{
closed = 1;
nodes = (
"33 25 OFFCURVE",
"35 27 OFFCURVE",
"35 30 CURVE SMOOTH",
"35 33 OFFCURVE",
"33 35 OFFCURVE",
"30 35 CURVE SMOOTH",
"27 35 OFFCURVE",
"25 33 OFFCURVE",
"25 30 CURVE SMOOTH",
"25 27 OFFCURVE",
"27 25 OFFCURVE",
"30 25 CURVE SMOOTH"
);
}
);
};
layerId = "8CEE01F3-9DE0-4E6E-8013-9406EBA360D1";
paths = (
{
closed = 1;
nodes = (
"30 19 OFFCURVE",
"41 30 OFFCURVE",
"30 30 CURVE",
"41 30 OFFCURVE",
"30 41 OFFCURVE",
"30 30 CURVE",
"30 41 OFFCURVE",
"19 30 OFFCURVE",
"30 30 CURVE",
"19 30 OFFCURVE",
"30 19 OFFCURVE",
"30 30 CURVE"
);
}
);
width = 60;
},
{
background = {
paths = (
{
closed = 1;
nodes = (
"33 25 OFFCURVE",
"35 27 OFFCURVE",
"35 30 CURVE SMOOTH",
"35 33 OFFCURVE",
"33 35 OFFCURVE",
"30 35 CURVE SMOOTH",
"27 35 OFFCURVE",
"25 33 OFFCURVE",
"25 30 CURVE SMOOTH",
"25 27 OFFCURVE",
"27 25 OFFCURVE",
"30 25 CURVE SMOOTH"
);
}
);
};
layerId = "E4E551F6-F8FD-4982-9E15-E7C282900C29";
paths = (
{
closed = 1;
nodes = (
"32 28 OFFCURVE",
"35 29 OFFCURVE",
"35 32 CURVE SMOOTH",
"35 36 OFFCURVE",
"30 36 OFFCURVE",
"30 32 CURVE",
"30 36 OFFCURVE",
"25 36 OFFCURVE",
"25 32 CURVE SMOOTH",
"25 29 OFFCURVE",
"28 28 OFFCURVE",
"30 25 CURVE"
);
}
);
width = 60;
},
{
background = {
paths = (
{
closed = 1;
nodes = (
"33 25 OFFCURVE",
"35 27 OFFCURVE",
"35 30 CURVE SMOOTH",
"35 33 OFFCURVE",
"33 35 OFFCURVE",
"30 35 CURVE SMOOTH",
"27 35 OFFCURVE",
"25 33 OFFCURVE",
"25 30 CURVE SMOOTH",
"25 27 OFFCURVE",
"27 25 OFFCURVE",
"30 25 CURVE SMOOTH"
);
}
);
};
layerId = "F7E00E3A-158A-422E-8335-F758AC046B2C";
paths = (
{
closed = 1;
nodes = (
"33 25 OFFCURVE",
"35 27 OFFCURVE",
"35 30 CURVE SMOOTH",
"35 33 OFFCURVE",
"33 35 OFFCURVE",
"30 35 CURVE SMOOTH",
"27 35 OFFCURVE",
"25 33 OFFCURVE",
"25 30 CURVE SMOOTH",
"25 27 OFFCURVE",
"27 25 OFFCURVE",
"30 25 CURVE SMOOTH"
);
}
);
width = 60;
},
{
background = {
paths = (
{
closed = 1;
nodes = (
"33 25 OFFCURVE",
"35 27 OFFCURVE",
"35 30 CURVE SMOOTH",
"35 33 OFFCURVE",
"33 35 OFFCURVE",
"30 35 CURVE SMOOTH",
"27 35 OFFCURVE",
"25 33 OFFCURVE",
"25 30 CURVE SMOOTH",
"25 27 OFFCURVE",
"27 25 OFFCURVE",
"30 25 CURVE SMOOTH"
);
}
);
};
layerId = "9F07B2B3-7BA7-410C-8914-36619112BBA6";
paths = (
{
closed = 1;
nodes = (
"35 27 OFFCURVE",
"33 30 OFFCURVE",
"31 32 CURVE SMOOTH",
"29 34 OFFCURVE",
"27 35 OFFCURVE",
"26 34 CURVE SMOOTH",
"25 33 OFFCURVE",
"27 30 OFFCURVE",
"29 28 CURVE SMOOTH",
"31 26 OFFCURVE",
"33 25 OFFCURVE",
"34 26 CURVE SMOOTH"
);
}
);
width = 60;
},
{
background = {
paths = (
{
closed = 1;
nodes = (
"33 25 OFFCURVE",
"35 27 OFFCURVE",
"35 30 CURVE SMOOTH",
"35 33 OFFCURVE",
"33 35 OFFCURVE",
"30 35 CURVE SMOOTH",
"27 35 OFFCURVE",
"25 33 OFFCURVE",
"25 30 CURVE SMOOTH",
"25 27 OFFCURVE",
"27 25 OFFCURVE",
"30 25 CURVE SMOOTH"
);
}
);
};
layerId = "EBE48403-0FCD-44AC-9AB2-0AD3A5E63D9A";
paths = (
{
closed = 1;
nodes = (
"27 25 OFFCURVE",
"29 26 OFFCURVE",
"31 28 CURVE SMOOTH",
"33 30 OFFCURVE",
"35 33 OFFCURVE",
"34 34 CURVE SMOOTH",
"33 35 OFFCURVE",
"31 34 OFFCURVE",
"29 32 CURVE SMOOTH",
"27 30 OFFCURVE",
"25 27 OFFCURVE",
"26 26 CURVE SMOOTH"
);
}
);
width = 60;
},
{
background = {
paths = (
{
closed = 1;
nodes = (
"33 25 OFFCURVE",
"35 27 OFFCURVE",
"35 30 CURVE SMOOTH",
"35 33 OFFCURVE",
"33 35 OFFCURVE",
"30 35 CURVE SMOOTH",
"27 35 OFFCURVE",
"25 33 OFFCURVE",
"25 30 CURVE SMOOTH",
"25 27 OFFCURVE",
"27 25 OFFCURVE",
"30 25 CURVE SMOOTH"
);
}
);
};
layerId = "FCD7E709-3DAF-4187-AB4E-99AB154318F1";
paths = (
{
closed = 1;
nodes = (
"28 25 OFFCURVE",
"32 25 OFFCURVE",
"35 25 CURVE",
"35 28 OFFCURVE",
"35 32 OFFCURVE",
"35 35 CURVE",
"32 35 OFFCURVE",
"28 35 OFFCURVE",
"25 35 CURVE",
"25 32 OFFCURVE",
"25 28 OFFCURVE",
"25 25 CURVE"
);
}
);
width = 60;
},
{
background = {
paths = (
{
closed = 1;
nodes = (
"33 25 OFFCURVE",
"35 27 OFFCURVE",
"35 30 CURVE SMOOTH",
"35 33 OFFCURVE",
"33 35 OFFCURVE",
"30 35 CURVE SMOOTH",
"27 35 OFFCURVE",
"25 33 OFFCURVE",
"25 30 CURVE SMOOTH",
"25 27 OFFCURVE",
"27 25 OFFCURVE",
"30 25 CURVE SMOOTH"
);
}
);
};
layerId = "C12FEEC6-0181-4EF0-8187-9F5259F16C67";
paths = (
{
closed = 1;
nodes = (
"28 29 OFFCURVE",
"32 29 OFFCURVE",
"35 29 CURVE",
"35 30 OFFCURVE",
"35 30 OFFCURVE",
"35 31 CURVE",
"32 31 OFFCURVE",
"28 31 OFFCURVE",
"25 31 CURVE",
"25 30 OFFCURVE",
"25 30 OFFCURVE",
"25 29 CURVE"
);
}
);
width = 60;
},
{
background = {
paths = (
{
closed = 1;
nodes = (
"33 25 OFFCURVE",
"35 27 OFFCURVE",
"35 30 CURVE SMOOTH",
"35 33 OFFCURVE",
"33 35 OFFCURVE",
"30 35 CURVE SMOOTH",
"27 35 OFFCURVE",
"25 33 OFFCURVE",
"25 30 CURVE SMOOTH",
"25 27 OFFCURVE",
"27 25 OFFCURVE",
"30 25 CURVE SMOOTH"
);
}
);
};
layerId = "08C62C66-FD01-4260-BAA0-BEE60294F9EF";
paths = (
{
closed = 1;
nodes = (
"28 25 OFFCURVE",
"34 35 OFFCURVE",
"34 35 CURVE",
"33 35 OFFCURVE",
"33 35 OFFCURVE",
"32 35 CURVE",
"32 35 OFFCURVE",
"26 25 OFFCURVE",
"26 25 CURVE",
"27 25 OFFCURVE",
"27 25 OFFCURVE",
"28 25 CURVE"
);
}
);
width = 60;
},
{
background = {
paths = (
{
closed = 1;
nodes = (
"33 25 OFFCURVE",
"35 27 OFFCURVE",
"35 30 CURVE SMOOTH",
"35 33 OFFCURVE",
"33 35 OFFCURVE",
"30 35 CURVE SMOOTH",
"27 35 OFFCURVE",
"25 33 OFFCURVE",
"25 30 CURVE SMOOTH",
"25 27 OFFCURVE",
"27 25 OFFCURVE",
"30 25 CURVE SMOOTH"
);
}
);
};
layerId = "D4E4317C-6609-4A69-A5F7-6DDC3CFB0BD6";
paths = (
{
closed = 1;
nodes = (
"34 25 OFFCURVE",
"28 35 OFFCURVE",
"28 35 CURVE",
"27 35 OFFCURVE",
"27 35 OFFCURVE",
"26 35 CURVE",
"26 35 OFFCURVE",
"32 25 OFFCURVE",
"32 25 CURVE",
"33 25 OFFCURVE",
"33 25 OFFCURVE",
"34 25 CURVE"
);
}
);
width = 60;
},
{
background = {
paths = (
{
closed = 1;
nodes = (
"33 25 OFFCURVE",
"35 27 OFFCURVE",
"35 30 CURVE SMOOTH",
"35 33 OFFCURVE",
"33 35 OFFCURVE",
"30 35 CURVE SMOOTH",
"27 35 OFFCURVE",
"25 33 OFFCURVE",
"25 30 CURVE SMOOTH",
"25 27 OFFCURVE",
"27 25 OFFCURVE",
"30 25 CURVE SMOOTH"
);
}
);
};
layerId = "731692F0-AA29-4851-B444-6CE3FFE142F7";
paths = (
{
closed = 1;
nodes = (
"33 32 OFFCURVE",
"32 33 OFFCURVE",
"30 35 CURVE",
"28 33 OFFCURVE",
"27 32 OFFCURVE",
"25 30 CURVE",
"27 28 OFFCURVE",
"28 27 OFFCURVE",
"30 25 CURVE",
"32 27 OFFCURVE",
"33 28 OFFCURVE",
"35 30 CURVE"
);
}
);
width = 60;
},
{
background = {
paths = (
{
closed = 1;
nodes = (
"33 25 OFFCURVE",
"35 27 OFFCURVE",
"35 30 CURVE SMOOTH",
"35 33 OFFCURVE",
"33 35 OFFCURVE",
"30 35 CURVE SMOOTH",
"27 35 OFFCURVE",
"25 33 OFFCURVE",
"25 30 CURVE SMOOTH",
"25 27 OFFCURVE",
"27 25 OFFCURVE",
"30 25 CURVE SMOOTH"
);
}
);
};
layerId = "8E325343-FE47-4360-9BB1-1FE512495D76";
paths = (
{
closed = 1;
nodes = (
"33 28 OFFCURVE",
"35 29 OFFCURVE",
"35 30 CURVE SMOOTH",
"35 31 OFFCURVE",
"33 32 OFFCURVE",
"30 32 CURVE SMOOTH",
"27 32 OFFCURVE",
"25 31 OFFCURVE",
"25 30 CURVE SMOOTH",
"25 29 OFFCURVE",
"27 28 OFFCURVE",
"30 28 CURVE SMOOTH"
);
}
);
width = 60;
},
{
layerId = "BCC53A07-FD2A-4E76-9F5C-642294C4600E";
paths = (
{
closed = 1;
nodes = (
"64 0 OFFCURVE",
"90 13 OFFCURVE",
"90 30 CURVE SMOOTH",
"90 47 OFFCURVE",
"64 60 OFFCURVE",
"30 60 CURVE SMOOTH",
"-4 60 OFFCURVE",
"-30 47 OFFCURVE",
"-30 30 CURVE SMOOTH",
"-30 13 OFFCURVE",
"-4 0 OFFCURVE",
"30 0 CURVE SMOOTH"
);
}
);
width = 60;
},
{
layerId = "C1F72B26-F5AA-4F0E-B116-14A9FBD87A6F";
paths = (
{
closed = 1;
nodes = (
"64 0 OFFCURVE",
"90 13 OFFCURVE",
"90 30 CURVE SMOOTH",
"90 47 OFFCURVE",
"64 60 OFFCURVE",
"30 60 CURVE SMOOTH",
"-4 60 OFFCURVE",
"-30 47 OFFCURVE",
"-30 30 CURVE SMOOTH",
"-30 13 OFFCURVE",
"-4 0 OFFCURVE",
"30 0 CURVE SMOOTH"
);
}
);
width = 60;
},
{
background = {
paths = (
{
closed = 1;
nodes = (
"33 25 OFFCURVE",
"35 27 OFFCURVE",
"35 30 CURVE SMOOTH",
"35 33 OFFCURVE",
"33 35 OFFCURVE",
"30 35 CURVE SMOOTH",
"27 35 OFFCURVE",
"25 33 OFFCURVE",
"25 30 CURVE SMOOTH",
"25 27 OFFCURVE",
"27 25 OFFCURVE",
"30 25 CURVE SMOOTH"
);
}
);
};
layerId = "CF821AF9-99F3-46AC-9C1F-60F128DF51F4";
paths = (
{
closed = 1;
nodes = (
"33 28 OFFCURVE",
"35 29 OFFCURVE",
"35 30 CURVE SMOOTH",
"35 31 OFFCURVE",
"33 32 OFFCURVE",
"30 32 CURVE SMOOTH",
"27 32 OFFCURVE",
"25 31 OFFCURVE",
"25 30 CURVE SMOOTH",
"25 29 OFFCURVE",
"27 28 OFFCURVE",
"30 28 CURVE SMOOTH"
);
}
);
width = 60;
}
);
},
{
color = 8;
glyphname = _shape.0;
lastChange = "2018-11-22 21:31:06 +0000";
layers = (
{
background = {
paths = (
{
closed = 1;
nodes = (
"33 25 OFFCURVE",
"35 27 OFFCURVE",
"35 30 CURVE SMOOTH",
"35 33 OFFCURVE",
"33 35 OFFCURVE",
"30 35 CURVE SMOOTH",
"27 35 OFFCURVE",
"25 33 OFFCURVE",
"25 30 CURVE SMOOTH",
"25 27 OFFCURVE",
"27 25 OFFCURVE",
"30 25 CURVE SMOOTH"
);
}
);
};
layerId = "48ADB338-978D-470D-BA28-092259F64D79";
paths = (
{
closed = 1;
nodes = (
"33 32 OFFCURVE",
"32 33 OFFCURVE",
"30 35 CURVE",
"28 33 OFFCURVE",
"27 32 OFFCURVE",
"25 30 CURVE",
"27 28 OFFCURVE",
"28 27 OFFCURVE",
"30 25 CURVE",
"32 27 OFFCURVE",
"33 28 OFFCURVE",
"35 30 CURVE"
);
}
);
width = 60;
},
{
background = {
paths = (
{
closed = 1;
nodes = (
"33 25 OFFCURVE",
"35 27 OFFCURVE",
"35 30 CURVE SMOOTH",
"35 33 OFFCURVE",
"33 35 OFFCURVE",
"30 35 CURVE SMOOTH",
"27 35 OFFCURVE",
"25 33 OFFCURVE",
"25 30 CURVE SMOOTH",
"25 27 OFFCURVE",
"27 25 OFFCURVE",
"30 25 CURVE SMOOTH"
);
}
);
};
layerId = "631FB97C-DDFD-47C8-A05F-E57C7765765C";
paths = (
{
closed = 1;
nodes = (
"32 27 OFFCURVE",
"33 28 OFFCURVE",
"35 30 CURVE",
"33 32 OFFCURVE",
"32 33 OFFCURVE",
"30 35 CURVE",
"28 33 OFFCURVE",
"27 32 OFFCURVE",
"25 30 CURVE",
"27 28 OFFCURVE",
"28 27 OFFCURVE",
"30 25 CURVE"
);
}
);
width = 60;
},
{
background = {
paths = (
{
closed = 1;
nodes = (
"38 16 OFFCURVE",
"44 22 OFFCURVE",
"44 30 CURVE SMOOTH",
"44 38 OFFCURVE",
"38 44 OFFCURVE",
"30 44 CURVE SMOOTH",
"22 44 OFFCURVE",
"16 38 OFFCURVE",
"16 30 CURVE SMOOTH",
"16 22 OFFCURVE",
"22 16 OFFCURVE",
"30 16 CURVE SMOOTH"
);
}
);
};
layerId = "1979AEBF-ACF3-4293-8280-4EC52756D623";
paths = (
{
closed = 1;
nodes = (
"33 25 OFFCURVE",
"35 27 OFFCURVE",
"35 30 CURVE SMOOTH",
"35 33 OFFCURVE",
"33 35 OFFCURVE",
"30 35 CURVE SMOOTH",
"27 35 OFFCURVE",
"25 33 OFFCURVE",
"25 30 CURVE SMOOTH",
"25 27 OFFCURVE",
"27 25 OFFCURVE",
"30 25 CURVE SMOOTH"
);
}
);
width = 60;
},
{
background = {
paths = (
{
closed = 1;
nodes = (
"33 25 OFFCURVE",
"35 27 OFFCURVE",
"35 30 CURVE SMOOTH",
"35 33 OFFCURVE",
"33 35 OFFCURVE",
"30 35 CURVE SMOOTH",
"27 35 OFFCURVE",
"25 33 OFFCURVE",
"25 30 CURVE SMOOTH",
"25 27 OFFCURVE",
"27 25 OFFCURVE",
"30 25 CURVE SMOOTH"
);
}
);
};
guideLines = (
{
position = "{-12, 30}";
},
{
angle = 90;
position = "{30, 79}";
},
{
position = "{0, 60}";
}
);
layerId = "3E7C7373-894E-465B-B362-7C09A6130116";
paths = (
{
closed = 1;
nodes = (
"30 20 OFFCURVE",
"40 30 OFFCURVE",
"30 30 CURVE",
"40 30 OFFCURVE",
"30 40 OFFCURVE",
"30 30 CURVE",
"30 40 OFFCURVE",
"20 30 OFFCURVE",
"30 30 CURVE",
"20 30 OFFCURVE",
"30 20 OFFCURVE",
"30 30 CURVE"
);
}
);
width = 60;
},
{
background = {
paths = (
{
closed = 1;
nodes = (
"33 25 OFFCURVE",
"35 27 OFFCURVE",
"35 30 CURVE SMOOTH",
"35 33 OFFCURVE",
"33 35 OFFCURVE",
"30 35 CURVE SMOOTH",
"27 35 OFFCURVE",
"25 33 OFFCURVE",
"25 30 CURVE SMOOTH",
"25 27 OFFCURVE",
"27 25 OFFCURVE",
"30 25 CURVE SMOOTH"
);
}
);
};
guideLines = (
{
position = "{-12, 30}";
},
{
angle = 90;
position = "{30, 79}";
},
{
position = "{0, 60}";
}
);
layerId = "51876FD2-FB15-42B1-8983-2C578064692B";
paths = (
{
closed = 1;
nodes = (
"32 28 OFFCURVE",
"35 29 OFFCURVE",
"35 32 CURVE SMOOTH",
"35 36 OFFCURVE",
"30 36 OFFCURVE",
"30 32 CURVE",
"30 36 OFFCURVE",
"25 36 OFFCURVE",
"25 32 CURVE SMOOTH",
"25 29 OFFCURVE",
"28 28 OFFCURVE",
"30 25 CURVE"
);
}
);
width = 60;
},
{
background = {
paths = (
{
closed = 1;
nodes = (
"33 25 OFFCURVE",
"35 27 OFFCURVE",
"35 30 CURVE SMOOTH",
"35 33 OFFCURVE",
"33 35 OFFCURVE",
"30 35 CURVE SMOOTH",
"27 35 OFFCURVE",
"25 33 OFFCURVE",
"25 30 CURVE SMOOTH",
"25 27 OFFCURVE",
"27 25 OFFCURVE",
"30 25 CURVE SMOOTH"
);
}
);
};
layerId = "338DE7A2-67B3-4D26-93B7-9535EBEDDE48";
paths = (
{
closed = 1;
nodes = (
"32 27 OFFCURVE",
"33 28 OFFCURVE",
"35 30 CURVE",
"33 32 OFFCURVE",
"32 33 OFFCURVE",
"30 35 CURVE",
"28 33 OFFCURVE",
"27 32 OFFCURVE",
"25 30 CURVE",
"27 28 OFFCURVE",
"28 27 OFFCURVE",
"30 25 CURVE"
);
}
);
width = 60;
},
{
layerId = "603BEC83-C21E-45CC-B62B-D21219333A9E";
width = 600;
},
{
layerId = "1BC44DF8-44A1-4B74-831C-40C40A10F098";
width = 600;
},
{
layerId = "852086DA-8501-469D-AA3F-41FA22DDFBCF";
width = 600;
},
{
layerId = "438D4B4E-3EA7-4A41-8875-80F76BAAB6B3";
width = 600;
},
{
layerId = "14BA25F3-C0EE-4CB4-9F98-5DFEB1E18EE7";
width = 600;
},
{
layerId = "2DAF2681-E3BA-4DC5-83D2-7594B55BDC1F";
width = 600;
},
{
layerId = "9520110A-DE13-4414-A7F5-42A172064E5B";
width = 600;
},
{
layerId = "D3FCCDB1-AA10-47A4-A23D-9BF96A588920";
width = 600;
},
{
layerId = "D643C430-56B0-49A8-9E39-8604C95EB74F";
width = 600;
},
{
layerId = "7797199F-D624-4FDD-A36F-0525AE380D0E";
width = 600;
},
{
layerId = "FA6E6620-C52D-4B33-AA81-50D031CD4A6F";
width = 600;
},
{
layerId = "DA51B74E-A0F5-42B5-A2C0-D3D9A70E926B";
width = 600;
},
{
layerId = "011F2706-27C6-45CF-AFED-5303A8B32752";
width = 600;
},
{
layerId = "6EB6CF65-351D-4989-AD9F-DEECEF62225A";
width = 600;
},
{
layerId = "6D95C03C-148A-4E89-A36A-6A79147497B1";
width = 600;
},
{
layerId = "14825B7F-9412-41E2-8CF9-8F44AA640669";
width = 600;
},
{
layerId = "4DFDD194-A56F-4F9E-97BA-3297822BC055";
width = 600;
},
{
layerId = "9C6A9D34-ABAA-4A0D-9930-BC1F7644D0B6";
width = 600;
},
{
layerId = "A86FE5DC-CBCB-41B2-8326-591D5FD18EB9";
width = 600;
},
{
layerId = "9F96208C-832B-4808-B438-7D3FEE586D2A";
width = 600;
},
{
layerId = "BD5397A9-1FE6-4514-BE6D-B734FE133BF5";
width = 600;
},
{
layerId = "A5C2AB9C-ADFD-454D-8DF7-F417DB232433";
width = 600;
},
{
layerId = "4E15560D-BCA3-4DD9-A968-409C9AA0E428";
width = 600;
},
{
background = {
paths = (
{
closed = 1;
nodes = (
"33 25 OFFCURVE",
"35 27 OFFCURVE",
"35 30 CURVE SMOOTH",
"35 33 OFFCURVE",
"33 35 OFFCURVE",
"30 35 CURVE SMOOTH",
"27 35 OFFCURVE",
"25 33 OFFCURVE",
"25 30 CURVE SMOOTH",
"25 27 OFFCURVE",
"27 25 OFFCURVE",
"30 25 CURVE SMOOTH"
);
}
);
};
layerId = "AAD68214-DCF7-41E4-9114-14FE146B1BEB";
paths = (
{
closed = 1;
nodes = (
"32 27 OFFCURVE",
"33 28 OFFCURVE",
"35 30 CURVE",
"33 32 OFFCURVE",
"32 33 OFFCURVE",
"30 35 CURVE",
"28 33 OFFCURVE",
"27 32 OFFCURVE",
"25 30 CURVE",
"27 28 OFFCURVE",
"28 27 OFFCURVE",
"30 25 CURVE"
);
}
);
width = 60;
},
{
layerId = "8CEE01F3-9DE0-4E6E-8013-9406EBA360D1";
width = 600;
},
{
layerId = "E4E551F6-F8FD-4982-9E15-E7C282900C29";
width = 600;
},
{
layerId = "F7E00E3A-158A-422E-8335-F758AC046B2C";
width = 600;
},
{
layerId = "9F07B2B3-7BA7-410C-8914-36619112BBA6";
width = 600;
},
{
layerId = "EBE48403-0FCD-44AC-9AB2-0AD3A5E63D9A";
width = 600;
},
{
background = {
paths = (
{
closed = 1;
nodes = (
"33 25 OFFCURVE",
"35 27 OFFCURVE",
"35 30 CURVE SMOOTH",
"35 33 OFFCURVE",
"33 35 OFFCURVE",
"30 35 CURVE SMOOTH",
"27 35 OFFCURVE",
"25 33 OFFCURVE",
"25 30 CURVE SMOOTH",
"25 27 OFFCURVE",
"27 25 OFFCURVE",
"30 25 CURVE SMOOTH"
);
}
);
};
layerId = "731692F0-AA29-4851-B444-6CE3FFE142F7";
paths = (
{
closed = 1;
nodes = (
"32 27 OFFCURVE",
"33 28 OFFCURVE",
"35 30 CURVE",
"33 32 OFFCURVE",
"32 33 OFFCURVE",
"30 35 CURVE",
"28 33 OFFCURVE",
"27 32 OFFCURVE",
"25 30 CURVE",
"27 28 OFFCURVE",
"28 27 OFFCURVE",
"30 25 CURVE"
);
}
);
width = 60;
},
{
layerId = "D4E4317C-6609-4A69-A5F7-6DDC3CFB0BD6";
width = 600;
},
{
layerId = "08C62C66-FD01-4260-BAA0-BEE60294F9EF";
width = 600;
},
{
layerId = "C12FEEC6-0181-4EF0-8187-9F5259F16C67";
width = 600;
},
{
layerId = "FCD7E709-3DAF-4187-AB4E-99AB154318F1";
width = 600;
},
{
layerId = "8E325343-FE47-4360-9BB1-1FE512495D76";
width = 600;
},
{
layerId = "BCC53A07-FD2A-4E76-9F5C-642294C4600E";
width = 600;
},
{
layerId = "C1F72B26-F5AA-4F0E-B116-14A9FBD87A6F";
width = 600;
},
{
layerId = "CF821AF9-99F3-46AC-9C1F-60F128DF51F4";
width = 600;
}
);
},
{
color = 8;
glyphname = _shape.1;
lastChange = "2018-11-22 20:45:00 +0000";
layers = (
{
background = {
paths = (
{
closed = 1;
nodes = (
"33 25 OFFCURVE",
"35 27 OFFCURVE",
"35 30 CURVE SMOOTH",
"35 33 OFFCURVE",
"33 35 OFFCURVE",
"30 35 CURVE SMOOTH",
"27 35 OFFCURVE",
"25 33 OFFCURVE",
"25 30 CURVE SMOOTH",
"25 27 OFFCURVE",
"27 25 OFFCURVE",
"30 25 CURVE SMOOTH"
);
}
);
};
layerId = "48ADB338-978D-470D-BA28-092259F64D79";
paths = (
{
closed = 1;
nodes = (
"34 25 OFFCURVE",
"28 35 OFFCURVE",
"28 35 CURVE",
"27 35 OFFCURVE",
"27 35 OFFCURVE",
"26 35 CURVE",
"26 35 OFFCURVE",
"32 25 OFFCURVE",
"32 25 CURVE",
"33 25 OFFCURVE",
"33 25 OFFCURVE",
"34 25 CURVE"
);
}
);
width = 60;
},
{
background = {
paths = (
{
closed = 1;
nodes = (
"33 25 OFFCURVE",
"35 27 OFFCURVE",
"35 30 CURVE SMOOTH",
"35 33 OFFCURVE",
"33 35 OFFCURVE",
"30 35 CURVE SMOOTH",
"27 35 OFFCURVE",
"25 33 OFFCURVE",
"25 30 CURVE SMOOTH",
"25 27 OFFCURVE",
"27 25 OFFCURVE",
"30 25 CURVE SMOOTH"
);
}
);
};
layerId = "631FB97C-DDFD-47C8-A05F-E57C7765765C";
paths = (
{
closed = 1;
nodes = (
"32 27 OFFCURVE",
"33 28 OFFCURVE",
"35 30 CURVE",
"33 32 OFFCURVE",
"32 33 OFFCURVE",
"30 35 CURVE",
"28 33 OFFCURVE",
"27 32 OFFCURVE",
"25 30 CURVE",
"27 28 OFFCURVE",
"28 27 OFFCURVE",
"30 25 CURVE"
);
}
);
width = 60;
},
{
background = {
paths = (
{
closed = 1;
nodes = (
"38 16 OFFCURVE",
"44 22 OFFCURVE",
"44 30 CURVE SMOOTH",
"44 38 OFFCURVE",
"38 44 OFFCURVE",
"30 44 CURVE SMOOTH",
"22 44 OFFCURVE",
"16 38 OFFCURVE",
"16 30 CURVE SMOOTH",
"16 22 OFFCURVE",
"22 16 OFFCURVE",
"30 16 CURVE SMOOTH"
);
}
);
};
layerId = "1979AEBF-ACF3-4293-8280-4EC52756D623";
paths = (
{
closed = 1;
nodes = (
"33 25 OFFCURVE",
"35 27 OFFCURVE",
"35 30 CURVE SMOOTH",
"35 33 OFFCURVE",
"33 35 OFFCURVE",
"30 35 CURVE SMOOTH",
"27 35 OFFCURVE",
"25 33 OFFCURVE",
"25 30 CURVE SMOOTH",
"25 27 OFFCURVE",
"27 25 OFFCURVE",
"30 25 CURVE SMOOTH"
);
}
);
width = 60;
},
{
background = {
paths = (
{
closed = 1;
nodes = (
"33 25 OFFCURVE",
"35 27 OFFCURVE",
"35 30 CURVE SMOOTH",
"35 33 OFFCURVE",
"33 35 OFFCURVE",
"30 35 CURVE SMOOTH",
"27 35 OFFCURVE",
"25 33 OFFCURVE",
"25 30 CURVE SMOOTH",
"25 27 OFFCURVE",
"27 25 OFFCURVE",
"30 25 CURVE SMOOTH"
);
}
);
};
guideLines = (
{
position = "{-12, 30}";
},
{
angle = 90;
position = "{30, 79}";
},
{
position = "{0, 60}";
}
);
layerId = "3E7C7373-894E-465B-B362-7C09A6130116";
paths = (
{
closed = 1;
nodes = (
"30 20 OFFCURVE",
"40 30 OFFCURVE",
"30 30 CURVE",
"40 30 OFFCURVE",
"30 40 OFFCURVE",
"30 30 CURVE",
"30 40 OFFCURVE",
"20 30 OFFCURVE",
"30 30 CURVE",
"20 30 OFFCURVE",
"30 20 OFFCURVE",
"30 30 CURVE"
);
}
);
width = 60;
},
{
background = {
paths = (
{
closed = 1;
nodes = (
"33 25 OFFCURVE",
"35 27 OFFCURVE",
"35 30 CURVE SMOOTH",
"35 33 OFFCURVE",
"33 35 OFFCURVE",
"30 35 CURVE SMOOTH",
"27 35 OFFCURVE",
"25 33 OFFCURVE",
"25 30 CURVE SMOOTH",
"25 27 OFFCURVE",
"27 25 OFFCURVE",
"30 25 CURVE SMOOTH"
);
}
);
};
guideLines = (
{
position = "{-12, 30}";
},
{
angle = 90;
position = "{30, 79}";
},
{
position = "{0, 60}";
}
);
layerId = "51876FD2-FB15-42B1-8983-2C578064692B";
paths = (
{
closed = 1;
nodes = (
"32 28 OFFCURVE",
"35 29 OFFCURVE",
"35 32 CURVE SMOOTH",
"35 36 OFFCURVE",
"30 36 OFFCURVE",
"30 32 CURVE",
"30 36 OFFCURVE",
"25 36 OFFCURVE",
"25 32 CURVE SMOOTH",
"25 29 OFFCURVE",
"28 28 OFFCURVE",
"30 25 CURVE"
);
}
);
width = 60;
},
{
background = {
paths = (
{
closed = 1;
nodes = (
"33 25 OFFCURVE",
"35 27 OFFCURVE",
"35 30 CURVE SMOOTH",
"35 33 OFFCURVE",
"33 35 OFFCURVE",
"30 35 CURVE SMOOTH",
"27 35 OFFCURVE",
"25 33 OFFCURVE",
"25 30 CURVE SMOOTH",
"25 27 OFFCURVE",
"27 25 OFFCURVE",
"30 25 CURVE SMOOTH"
);
}
);
};
layerId = "338DE7A2-67B3-4D26-93B7-9535EBEDDE48";
paths = (
{
closed = 1;
nodes = (
"32 25 OFFCURVE",
"32 25 OFFCURVE",
"33 25 CURVE",
"33 25 OFFCURVE",
"29 35 OFFCURVE",
"29 35 CURVE",
"29 35 OFFCURVE",
"29 35 OFFCURVE",
"27 35 CURVE",
"27 35 OFFCURVE",
"31 25 OFFCURVE",
"31 25 CURVE"
);
}
);
width = 60;
},
{
background = {
paths = (
{
closed = 1;
nodes = (
"33 25 OFFCURVE",
"35 27 OFFCURVE",
"35 30 CURVE SMOOTH",
"35 33 OFFCURVE",
"33 35 OFFCURVE",
"30 35 CURVE SMOOTH",
"27 35 OFFCURVE",
"25 33 OFFCURVE",
"25 30 CURVE SMOOTH",
"25 27 OFFCURVE",
"27 25 OFFCURVE",
"30 25 CURVE SMOOTH"
);
}
);
};
layerId = "AAD68214-DCF7-41E4-9114-14FE146B1BEB";
paths = (
{
closed = 1;
nodes = (
"32 25 OFFCURVE",
"32 25 OFFCURVE",
"33 25 CURVE",
"33 25 OFFCURVE",
"29 35 OFFCURVE",
"29 35 CURVE",
"29 35 OFFCURVE",
"29 35 OFFCURVE",
"27 35 CURVE",
"27 35 OFFCURVE",
"31 25 OFFCURVE",
"31 25 CURVE"
);
}
);
width = 60;
},
{
background = {
paths = (
{
closed = 1;
nodes = (
"33 25 OFFCURVE",
"35 27 OFFCURVE",
"35 30 CURVE SMOOTH",
"35 33 OFFCURVE",
"33 35 OFFCURVE",
"30 35 CURVE SMOOTH",
"27 35 OFFCURVE",
"25 33 OFFCURVE",
"25 30 CURVE SMOOTH",
"25 27 OFFCURVE",
"27 25 OFFCURVE",
"30 25 CURVE SMOOTH"
);
}
);
};
layerId = "731692F0-AA29-4851-B444-6CE3FFE142F7";
paths = (
{
closed = 1;
nodes = (
"32 25 OFFCURVE",
"32 25 OFFCURVE",
"33 25 CURVE",
"33 25 OFFCURVE",
"29 35 OFFCURVE",
"29 35 CURVE",
"29 35 OFFCURVE",
"29 35 OFFCURVE",
"27 35 CURVE",
"27 35 OFFCURVE",
"31 25 OFFCURVE",
"31 25 CURVE"
);
}
);
width = 60;
},
{
layerId = "603BEC83-C21E-45CC-B62B-D21219333A9E";
width = 600;
},
{
layerId = "1BC44DF8-44A1-4B74-831C-40C40A10F098";
width = 600;
},
{
layerId = "852086DA-8501-469D-AA3F-41FA22DDFBCF";
width = 600;
},
{
layerId = "438D4B4E-3EA7-4A41-8875-80F76BAAB6B3";
width = 600;
},
{
layerId = "14BA25F3-C0EE-4CB4-9F98-5DFEB1E18EE7";
width = 600;
},
{
layerId = "2DAF2681-E3BA-4DC5-83D2-7594B55BDC1F";
width = 600;
},
{
layerId = "9520110A-DE13-4414-A7F5-42A172064E5B";
width = 600;
},
{
layerId = "D3FCCDB1-AA10-47A4-A23D-9BF96A588920";
width = 600;
},
{
layerId = "D643C430-56B0-49A8-9E39-8604C95EB74F";
width = 600;
},
{
layerId = "7797199F-D624-4FDD-A36F-0525AE380D0E";
width = 600;
},
{
layerId = "FA6E6620-C52D-4B33-AA81-50D031CD4A6F";
width = 600;
},
{
layerId = "DA51B74E-A0F5-42B5-A2C0-D3D9A70E926B";
width = 600;
},
{
layerId = "011F2706-27C6-45CF-AFED-5303A8B32752";
width = 600;
},
{
layerId = "6EB6CF65-351D-4989-AD9F-DEECEF62225A";
width = 600;
},
{
layerId = "D4E4317C-6609-4A69-A5F7-6DDC3CFB0BD6";
width = 600;
},
{
layerId = "08C62C66-FD01-4260-BAA0-BEE60294F9EF";
width = 600;
},
{
layerId = "C12FEEC6-0181-4EF0-8187-9F5259F16C67";
width = 600;
},
{
layerId = "FCD7E709-3DAF-4187-AB4E-99AB154318F1";
width = 600;
},
{
layerId = "EBE48403-0FCD-44AC-9AB2-0AD3A5E63D9A";
width = 600;
},
{
layerId = "9F07B2B3-7BA7-410C-8914-36619112BBA6";
width = 600;
},
{
layerId = "F7E00E3A-158A-422E-8335-F758AC046B2C";
width = 600;
},
{
layerId = "E4E551F6-F8FD-4982-9E15-E7C282900C29";
width = 600;
},
{
layerId = "8CEE01F3-9DE0-4E6E-8013-9406EBA360D1";
width = 600;
},
{
layerId = "4E15560D-BCA3-4DD9-A968-409C9AA0E428";
width = 600;
},
{
layerId = "A5C2AB9C-ADFD-454D-8DF7-F417DB232433";
width = 600;
},
{
layerId = "BD5397A9-1FE6-4514-BE6D-B734FE133BF5";
width = 600;
},
{
layerId = "9F96208C-832B-4808-B438-7D3FEE586D2A";
width = 600;
},
{
layerId = "A86FE5DC-CBCB-41B2-8326-591D5FD18EB9";
width = 600;
},
{
layerId = "9C6A9D34-ABAA-4A0D-9930-BC1F7644D0B6";
width = 600;
},
{
layerId = "4DFDD194-A56F-4F9E-97BA-3297822BC055";
width = 600;
},
{
layerId = "14825B7F-9412-41E2-8CF9-8F44AA640669";
width = 600;
},
{
layerId = "6D95C03C-148A-4E89-A36A-6A79147497B1";
width = 600;
},
{
layerId = "8E325343-FE47-4360-9BB1-1FE512495D76";
width = 600;
},
{
layerId = "BCC53A07-FD2A-4E76-9F5C-642294C4600E";
width = 600;
},
{
layerId = "C1F72B26-F5AA-4F0E-B116-14A9FBD87A6F";
width = 600;
},
{
layerId = "CF821AF9-99F3-46AC-9C1F-60F128DF51F4";
width = 600;
}
);
},
{
color = 8;
glyphname = _shape.2;
lastChange = "2018-11-22 20:45:00 +0000";
layers = (
{
background = {
paths = (
{
closed = 1;
nodes = (
"33 25 OFFCURVE",
"35 27 OFFCURVE",
"35 30 CURVE SMOOTH",
"35 33 OFFCURVE",
"33 35 OFFCURVE",
"30 35 CURVE SMOOTH",
"27 35 OFFCURVE",
"25 33 OFFCURVE",
"25 30 CURVE SMOOTH",
"25 27 OFFCURVE",
"27 25 OFFCURVE",
"30 25 CURVE SMOOTH"
);
}
);
};
layerId = "48ADB338-978D-470D-BA28-092259F64D79";
paths = (
{
closed = 1;
nodes = (
"28 25 OFFCURVE",
"34 35 OFFCURVE",
"34 35 CURVE",
"33 35 OFFCURVE",
"33 35 OFFCURVE",
"32 35 CURVE",
"32 35 OFFCURVE",
"26 25 OFFCURVE",
"26 25 CURVE",
"27 25 OFFCURVE",
"27 25 OFFCURVE",
"28 25 CURVE"
);
}
);
width = 60;
},
{
background = {
paths = (
{
closed = 1;
nodes = (
"33 25 OFFCURVE",
"35 27 OFFCURVE",
"35 30 CURVE SMOOTH",
"35 33 OFFCURVE",
"33 35 OFFCURVE",
"30 35 CURVE SMOOTH",
"27 35 OFFCURVE",
"25 33 OFFCURVE",
"25 30 CURVE SMOOTH",
"25 27 OFFCURVE",
"27 25 OFFCURVE",
"30 25 CURVE SMOOTH"
);
}
);
};
layerId = "631FB97C-DDFD-47C8-A05F-E57C7765765C";
paths = (
{
closed = 1;
nodes = (
"32 27 OFFCURVE",
"33 28 OFFCURVE",
"35 30 CURVE",
"33 32 OFFCURVE",
"32 33 OFFCURVE",
"30 35 CURVE",
"28 33 OFFCURVE",
"27 32 OFFCURVE",
"25 30 CURVE",
"27 28 OFFCURVE",
"28 27 OFFCURVE",
"30 25 CURVE"
);
}
);
width = 60;
},
{
background = {
paths = (
{
closed = 1;
nodes = (
"38 16 OFFCURVE",
"44 22 OFFCURVE",
"44 30 CURVE SMOOTH",
"44 38 OFFCURVE",
"38 44 OFFCURVE",
"30 44 CURVE SMOOTH",
"22 44 OFFCURVE",
"16 38 OFFCURVE",
"16 30 CURVE SMOOTH",
"16 22 OFFCURVE",
"22 16 OFFCURVE",
"30 16 CURVE SMOOTH"
);
}
);
};
layerId = "1979AEBF-ACF3-4293-8280-4EC52756D623";
paths = (
{
closed = 1;
nodes = (
"33 25 OFFCURVE",
"35 27 OFFCURVE",
"35 30 CURVE SMOOTH",
"35 33 OFFCURVE",
"33 35 OFFCURVE",
"30 35 CURVE SMOOTH",
"27 35 OFFCURVE",
"25 33 OFFCURVE",
"25 30 CURVE SMOOTH",
"25 27 OFFCURVE",
"27 25 OFFCURVE",
"30 25 CURVE SMOOTH"
);
}
);
width = 60;
},
{
background = {
paths = (
{
closed = 1;
nodes = (
"33 25 OFFCURVE",
"35 27 OFFCURVE",
"35 30 CURVE SMOOTH",
"35 33 OFFCURVE",
"33 35 OFFCURVE",
"30 35 CURVE SMOOTH",
"27 35 OFFCURVE",
"25 33 OFFCURVE",
"25 30 CURVE SMOOTH",
"25 27 OFFCURVE",
"27 25 OFFCURVE",
"30 25 CURVE SMOOTH"
);
}
);
};
guideLines = (
{
position = "{-12, 30}";
},
{
angle = 90;
position = "{30, 79}";
},
{
position = "{0, 60}";
}
);
layerId = "3E7C7373-894E-465B-B362-7C09A6130116";
paths = (
{
closed = 1;
nodes = (
"30 20 OFFCURVE",
"40 30 OFFCURVE",
"30 30 CURVE",
"40 30 OFFCURVE",
"30 40 OFFCURVE",
"30 30 CURVE",
"30 40 OFFCURVE",
"20 30 OFFCURVE",
"30 30 CURVE",
"20 30 OFFCURVE",
"30 20 OFFCURVE",
"30 30 CURVE"
);
}
);
width = 60;
},
{
background = {
paths = (
{
closed = 1;
nodes = (
"33 25 OFFCURVE",
"35 27 OFFCURVE",
"35 30 CURVE SMOOTH",
"35 33 OFFCURVE",
"33 35 OFFCURVE",
"30 35 CURVE SMOOTH",
"27 35 OFFCURVE",
"25 33 OFFCURVE",
"25 30 CURVE SMOOTH",
"25 27 OFFCURVE",
"27 25 OFFCURVE",
"30 25 CURVE SMOOTH"
);
}
);
};
guideLines = (
{
position = "{-12, 30}";
},
{
angle = 90;
position = "{30, 79}";
},
{
position = "{0, 60}";
}
);
layerId = "51876FD2-FB15-42B1-8983-2C578064692B";
paths = (
{
closed = 1;
nodes = (
"32 28 OFFCURVE",
"35 29 OFFCURVE",
"35 32 CURVE SMOOTH",
"35 36 OFFCURVE",
"30 36 OFFCURVE",
"30 32 CURVE",
"30 36 OFFCURVE",
"25 36 OFFCURVE",
"25 32 CURVE SMOOTH",
"25 29 OFFCURVE",
"28 28 OFFCURVE",
"30 25 CURVE"
);
}
);
width = 60;
},
{
background = {
paths = (
{
closed = 1;
nodes = (
"33 25 OFFCURVE",
"35 27 OFFCURVE",
"35 30 CURVE SMOOTH",
"35 33 OFFCURVE",
"33 35 OFFCURVE",
"30 35 CURVE SMOOTH",
"27 35 OFFCURVE",
"25 33 OFFCURVE",
"25 30 CURVE SMOOTH",
"25 27 OFFCURVE",
"27 25 OFFCURVE",
"30 25 CURVE SMOOTH"
);
}
);
};
layerId = "338DE7A2-67B3-4D26-93B7-9535EBEDDE48";
paths = (
{
closed = 1;
nodes = (
"28 25 OFFCURVE",
"28 25 OFFCURVE",
"29 25 CURVE",
"29 25 OFFCURVE",
"33 35 OFFCURVE",
"33 35 CURVE",
"31 35 OFFCURVE",
"31 35 OFFCURVE",
"31 35 CURVE",
"31 35 OFFCURVE",
"27 25 OFFCURVE",
"27 25 CURVE"
);
}
);
width = 60;
},
{
background = {
paths = (
{
closed = 1;
nodes = (
"33 25 OFFCURVE",
"35 27 OFFCURVE",
"35 30 CURVE SMOOTH",
"35 33 OFFCURVE",
"33 35 OFFCURVE",
"30 35 CURVE SMOOTH",
"27 35 OFFCURVE",
"25 33 OFFCURVE",
"25 30 CURVE SMOOTH",
"25 27 OFFCURVE",
"27 25 OFFCURVE",
"30 25 CURVE SMOOTH"
);
}
);
};
layerId = "AAD68214-DCF7-41E4-9114-14FE146B1BEB";
paths = (
{
closed = 1;
nodes = (
"28 25 OFFCURVE",
"28 25 OFFCURVE",
"29 25 CURVE",
"29 25 OFFCURVE",
"33 35 OFFCURVE",
"33 35 CURVE",
"31 35 OFFCURVE",
"31 35 OFFCURVE",
"31 35 CURVE",
"31 35 OFFCURVE",
"27 25 OFFCURVE",
"27 25 CURVE"
);
}
);
width = 60;
},
{
background = {
paths = (
{
closed = 1;
nodes = (
"33 25 OFFCURVE",
"35 27 OFFCURVE",
"35 30 CURVE SMOOTH",
"35 33 OFFCURVE",
"33 35 OFFCURVE",
"30 35 CURVE SMOOTH",
"27 35 OFFCURVE",
"25 33 OFFCURVE",
"25 30 CURVE SMOOTH",
"25 27 OFFCURVE",
"27 25 OFFCURVE",
"30 25 CURVE SMOOTH"
);
}
);
};
layerId = "731692F0-AA29-4851-B444-6CE3FFE142F7";
paths = (
{
closed = 1;
nodes = (
"28 25 OFFCURVE",
"28 25 OFFCURVE",
"29 25 CURVE",
"29 25 OFFCURVE",
"33 35 OFFCURVE",
"33 35 CURVE",
"31 35 OFFCURVE",
"31 35 OFFCURVE",
"31 35 CURVE",
"31 35 OFFCURVE",
"27 25 OFFCURVE",
"27 25 CURVE"
);
}
);
width = 60;
},
{
layerId = "603BEC83-C21E-45CC-B62B-D21219333A9E";
width = 600;
},
{
layerId = "1BC44DF8-44A1-4B74-831C-40C40A10F098";
width = 600;
},
{
layerId = "852086DA-8501-469D-AA3F-41FA22DDFBCF";
width = 600;
},
{
layerId = "438D4B4E-3EA7-4A41-8875-80F76BAAB6B3";
width = 600;
},
{
layerId = "14BA25F3-C0EE-4CB4-9F98-5DFEB1E18EE7";
width = 600;
},
{
layerId = "2DAF2681-E3BA-4DC5-83D2-7594B55BDC1F";
width = 600;
},
{
layerId = "9520110A-DE13-4414-A7F5-42A172064E5B";
width = 600;
},
{
layerId = "D3FCCDB1-AA10-47A4-A23D-9BF96A588920";
width = 600;
},
{
layerId = "D643C430-56B0-49A8-9E39-8604C95EB74F";
width = 600;
},
{
layerId = "7797199F-D624-4FDD-A36F-0525AE380D0E";
width = 600;
},
{
layerId = "FA6E6620-C52D-4B33-AA81-50D031CD4A6F";
width = 600;
},
{
layerId = "DA51B74E-A0F5-42B5-A2C0-D3D9A70E926B";
width = 600;
},
{
layerId = "011F2706-27C6-45CF-AFED-5303A8B32752";
width = 600;
},
{
layerId = "6EB6CF65-351D-4989-AD9F-DEECEF62225A";
width = 600;
},
{
layerId = "D4E4317C-6609-4A69-A5F7-6DDC3CFB0BD6";
width = 600;
},
{
layerId = "08C62C66-FD01-4260-BAA0-BEE60294F9EF";
width = 600;
},
{
layerId = "C12FEEC6-0181-4EF0-8187-9F5259F16C67";
width = 600;
},
{
layerId = "FCD7E709-3DAF-4187-AB4E-99AB154318F1";
width = 600;
},
{
layerId = "EBE48403-0FCD-44AC-9AB2-0AD3A5E63D9A";
width = 600;
},
{
layerId = "9F07B2B3-7BA7-410C-8914-36619112BBA6";
width = 600;
},
{
layerId = "F7E00E3A-158A-422E-8335-F758AC046B2C";
width = 600;
},
{
layerId = "E4E551F6-F8FD-4982-9E15-E7C282900C29";
width = 600;
},
{
layerId = "8CEE01F3-9DE0-4E6E-8013-9406EBA360D1";
width = 600;
},
{
layerId = "4E15560D-BCA3-4DD9-A968-409C9AA0E428";
width = 600;
},
{
layerId = "A5C2AB9C-ADFD-454D-8DF7-F417DB232433";
width = 600;
},
{
layerId = "BD5397A9-1FE6-4514-BE6D-B734FE133BF5";
width = 600;
},
{
layerId = "9F96208C-832B-4808-B438-7D3FEE586D2A";
width = 600;
},
{
layerId = "A86FE5DC-CBCB-41B2-8326-591D5FD18EB9";
width = 600;
},
{
layerId = "9C6A9D34-ABAA-4A0D-9930-BC1F7644D0B6";
width = 600;
},
{
layerId = "4DFDD194-A56F-4F9E-97BA-3297822BC055";
width = 600;
},
{
layerId = "14825B7F-9412-41E2-8CF9-8F44AA640669";
width = 600;
},
{
layerId = "6D95C03C-148A-4E89-A36A-6A79147497B1";
width = 600;
},
{
layerId = "8E325343-FE47-4360-9BB1-1FE512495D76";
width = 600;
},
{
layerId = "BCC53A07-FD2A-4E76-9F5C-642294C4600E";
width = 600;
},
{
layerId = "C1F72B26-F5AA-4F0E-B116-14A9FBD87A6F";
width = 600;
},
{
layerId = "CF821AF9-99F3-46AC-9C1F-60F128DF51F4";
width = 600;
}
);
},
{
color = 8;
glyphname = _shape.3;
lastChange = "2018-11-22 20:45:01 +0000";
layers = (
{
background = {
paths = (
{
closed = 1;
nodes = (
"33 25 OFFCURVE",
"35 27 OFFCURVE",
"35 30 CURVE SMOOTH",
"35 33 OFFCURVE",
"33 35 OFFCURVE",
"30 35 CURVE SMOOTH",
"27 35 OFFCURVE",
"25 33 OFFCURVE",
"25 30 CURVE SMOOTH",
"25 27 OFFCURVE",
"27 25 OFFCURVE",
"30 25 CURVE SMOOTH"
);
}
);
};
layerId = "48ADB338-978D-470D-BA28-092259F64D79";
paths = (
{
closed = 1;
nodes = (
"28 29 OFFCURVE",
"32 29 OFFCURVE",
"35 29 CURVE",
"35 30 OFFCURVE",
"35 30 OFFCURVE",
"35 31 CURVE",
"32 31 OFFCURVE",
"28 31 OFFCURVE",
"25 31 CURVE",
"25 30 OFFCURVE",
"25 30 OFFCURVE",
"25 29 CURVE"
);
}
);
width = 60;
},
{
background = {
paths = (
{
closed = 1;
nodes = (
"33 25 OFFCURVE",
"35 27 OFFCURVE",
"35 30 CURVE SMOOTH",
"35 33 OFFCURVE",
"33 35 OFFCURVE",
"30 35 CURVE SMOOTH",
"27 35 OFFCURVE",
"25 33 OFFCURVE",
"25 30 CURVE SMOOTH",
"25 27 OFFCURVE",
"27 25 OFFCURVE",
"30 25 CURVE SMOOTH"
);
}
);
};
layerId = "631FB97C-DDFD-47C8-A05F-E57C7765765C";
paths = (
{
closed = 1;
nodes = (
"32 27 OFFCURVE",
"33 28 OFFCURVE",
"35 30 CURVE",
"33 32 OFFCURVE",
"32 33 OFFCURVE",
"30 35 CURVE",
"28 33 OFFCURVE",
"27 32 OFFCURVE",
"25 30 CURVE",
"27 28 OFFCURVE",
"28 27 OFFCURVE",
"30 25 CURVE"
);
}
);
width = 60;
},
{
background = {
paths = (
{
closed = 1;
nodes = (
"38 16 OFFCURVE",
"44 22 OFFCURVE",
"44 30 CURVE SMOOTH",
"44 38 OFFCURVE",
"38 44 OFFCURVE",
"30 44 CURVE SMOOTH",
"22 44 OFFCURVE",
"16 38 OFFCURVE",
"16 30 CURVE SMOOTH",
"16 22 OFFCURVE",
"22 16 OFFCURVE",
"30 16 CURVE SMOOTH"
);
}
);
};
layerId = "1979AEBF-ACF3-4293-8280-4EC52756D623";
paths = (
{
closed = 1;
nodes = (
"33 25 OFFCURVE",
"35 27 OFFCURVE",
"35 30 CURVE SMOOTH",
"35 33 OFFCURVE",
"33 35 OFFCURVE",
"30 35 CURVE SMOOTH",
"27 35 OFFCURVE",
"25 33 OFFCURVE",
"25 30 CURVE SMOOTH",
"25 27 OFFCURVE",
"27 25 OFFCURVE",
"30 25 CURVE SMOOTH"
);
}
);
width = 60;
},
{
background = {
paths = (
{
closed = 1;
nodes = (
"33 25 OFFCURVE",
"35 27 OFFCURVE",
"35 30 CURVE SMOOTH",
"35 33 OFFCURVE",
"33 35 OFFCURVE",
"30 35 CURVE SMOOTH",
"27 35 OFFCURVE",
"25 33 OFFCURVE",
"25 30 CURVE SMOOTH",
"25 27 OFFCURVE",
"27 25 OFFCURVE",
"30 25 CURVE SMOOTH"
);
}
);
};
guideLines = (
{
position = "{-12, 30}";
},
{
angle = 90;
position = "{30, 79}";
},
{
position = "{0, 60}";
}
);
layerId = "3E7C7373-894E-465B-B362-7C09A6130116";
paths = (
{
closed = 1;
nodes = (
"30 20 OFFCURVE",
"40 30 OFFCURVE",
"30 30 CURVE",
"40 30 OFFCURVE",
"30 40 OFFCURVE",
"30 30 CURVE",
"30 40 OFFCURVE",
"20 30 OFFCURVE",
"30 30 CURVE",
"20 30 OFFCURVE",
"30 20 OFFCURVE",
"30 30 CURVE"
);
}
);
width = 60;
},
{
background = {
paths = (
{
closed = 1;
nodes = (
"33 25 OFFCURVE",
"35 27 OFFCURVE",
"35 30 CURVE SMOOTH",
"35 33 OFFCURVE",
"33 35 OFFCURVE",
"30 35 CURVE SMOOTH",
"27 35 OFFCURVE",
"25 33 OFFCURVE",
"25 30 CURVE SMOOTH",
"25 27 OFFCURVE",
"27 25 OFFCURVE",
"30 25 CURVE SMOOTH"
);
}
);
};
guideLines = (
{
position = "{-12, 30}";
},
{
angle = 90;
position = "{30, 79}";
},
{
position = "{0, 60}";
}
);
layerId = "51876FD2-FB15-42B1-8983-2C578064692B";
paths = (
{
closed = 1;
nodes = (
"32 28 OFFCURVE",
"35 29 OFFCURVE",
"35 32 CURVE SMOOTH",
"35 36 OFFCURVE",
"30 36 OFFCURVE",
"30 32 CURVE",
"30 36 OFFCURVE",
"25 36 OFFCURVE",
"25 32 CURVE SMOOTH",
"25 29 OFFCURVE",
"28 28 OFFCURVE",
"30 25 CURVE"
);
}
);
width = 60;
},
{
background = {
paths = (
{
closed = 1;
nodes = (
"33 25 OFFCURVE",
"35 27 OFFCURVE",
"35 30 CURVE SMOOTH",
"35 33 OFFCURVE",
"33 35 OFFCURVE",
"30 35 CURVE SMOOTH",
"27 35 OFFCURVE",
"25 33 OFFCURVE",
"25 30 CURVE SMOOTH",
"25 27 OFFCURVE",
"27 25 OFFCURVE",
"30 25 CURVE SMOOTH"
);
}
);
};
layerId = "338DE7A2-67B3-4D26-93B7-9535EBEDDE48";
paths = (
{
closed = 1;
nodes = (
"30 25 OFFCURVE",
"30 25 OFFCURVE",
"31 25 CURVE",
"31 28 OFFCURVE",
"31 32 OFFCURVE",
"31 35 CURVE",
"30 35 OFFCURVE",
"30 35 OFFCURVE",
"29 35 CURVE",
"29 32 OFFCURVE",
"29 28 OFFCURVE",
"29 25 CURVE"
);
}
);
width = 60;
},
{
background = {
paths = (
{
closed = 1;
nodes = (
"33 25 OFFCURVE",
"35 27 OFFCURVE",
"35 30 CURVE SMOOTH",
"35 33 OFFCURVE",
"33 35 OFFCURVE",
"30 35 CURVE SMOOTH",
"27 35 OFFCURVE",
"25 33 OFFCURVE",
"25 30 CURVE SMOOTH",
"25 27 OFFCURVE",
"27 25 OFFCURVE",
"30 25 CURVE SMOOTH"
);
}
);
};
layerId = "AAD68214-DCF7-41E4-9114-14FE146B1BEB";
paths = (
{
closed = 1;
nodes = (
"30 25 OFFCURVE",
"30 25 OFFCURVE",
"31 25 CURVE",
"31 28 OFFCURVE",
"31 32 OFFCURVE",
"31 35 CURVE",
"30 35 OFFCURVE",
"30 35 OFFCURVE",
"29 35 CURVE",
"29 32 OFFCURVE",
"29 28 OFFCURVE",
"29 25 CURVE"
);
}
);
width = 60;
},
{
background = {
paths = (
{
closed = 1;
nodes = (
"33 25 OFFCURVE",
"35 27 OFFCURVE",
"35 30 CURVE SMOOTH",
"35 33 OFFCURVE",
"33 35 OFFCURVE",
"30 35 CURVE SMOOTH",
"27 35 OFFCURVE",
"25 33 OFFCURVE",
"25 30 CURVE SMOOTH",
"25 27 OFFCURVE",
"27 25 OFFCURVE",
"30 25 CURVE SMOOTH"
);
}
);
};
layerId = "731692F0-AA29-4851-B444-6CE3FFE142F7";
paths = (
{
closed = 1;
nodes = (
"30 25 OFFCURVE",
"30 25 OFFCURVE",
"31 25 CURVE",
"31 28 OFFCURVE",
"31 32 OFFCURVE",
"31 35 CURVE",
"30 35 OFFCURVE",
"30 35 OFFCURVE",
"29 35 CURVE",
"29 32 OFFCURVE",
"29 28 OFFCURVE",
"29 25 CURVE"
);
}
);
width = 60;
},
{
layerId = "603BEC83-C21E-45CC-B62B-D21219333A9E";
width = 600;
},
{
layerId = "1BC44DF8-44A1-4B74-831C-40C40A10F098";
width = 600;
},
{
layerId = "852086DA-8501-469D-AA3F-41FA22DDFBCF";
width = 600;
},
{
layerId = "438D4B4E-3EA7-4A41-8875-80F76BAAB6B3";
width = 600;
},
{
layerId = "14BA25F3-C0EE-4CB4-9F98-5DFEB1E18EE7";
width = 600;
},
{
layerId = "2DAF2681-E3BA-4DC5-83D2-7594B55BDC1F";
width = 600;
},
{
layerId = "9520110A-DE13-4414-A7F5-42A172064E5B";
width = 600;
},
{
layerId = "D3FCCDB1-AA10-47A4-A23D-9BF96A588920";
width = 600;
},
{
layerId = "D643C430-56B0-49A8-9E39-8604C95EB74F";
width = 600;
},
{
layerId = "7797199F-D624-4FDD-A36F-0525AE380D0E";
width = 600;
},
{
layerId = "FA6E6620-C52D-4B33-AA81-50D031CD4A6F";
width = 600;
},
{
layerId = "DA51B74E-A0F5-42B5-A2C0-D3D9A70E926B";
width = 600;
},
{
layerId = "011F2706-27C6-45CF-AFED-5303A8B32752";
width = 600;
},
{
layerId = "6EB6CF65-351D-4989-AD9F-DEECEF62225A";
width = 600;
},
{
layerId = "D4E4317C-6609-4A69-A5F7-6DDC3CFB0BD6";
width = 600;
},
{
layerId = "08C62C66-FD01-4260-BAA0-BEE60294F9EF";
width = 600;
},
{
layerId = "C12FEEC6-0181-4EF0-8187-9F5259F16C67";
width = 600;
},
{
layerId = "FCD7E709-3DAF-4187-AB4E-99AB154318F1";
width = 600;
},
{
layerId = "EBE48403-0FCD-44AC-9AB2-0AD3A5E63D9A";
width = 600;
},
{
layerId = "9F07B2B3-7BA7-410C-8914-36619112BBA6";
width = 600;
},
{
layerId = "F7E00E3A-158A-422E-8335-F758AC046B2C";
width = 600;
},
{
layerId = "E4E551F6-F8FD-4982-9E15-E7C282900C29";
width = 600;
},
{
layerId = "8CEE01F3-9DE0-4E6E-8013-9406EBA360D1";
width = 600;
},
{
layerId = "4E15560D-BCA3-4DD9-A968-409C9AA0E428";
width = 600;
},
{
layerId = "A5C2AB9C-ADFD-454D-8DF7-F417DB232433";
width = 600;
},
{
layerId = "BD5397A9-1FE6-4514-BE6D-B734FE133BF5";
width = 600;
},
{
layerId = "9F96208C-832B-4808-B438-7D3FEE586D2A";
width = 600;
},
{
layerId = "A86FE5DC-CBCB-41B2-8326-591D5FD18EB9";
width = 600;
},
{
layerId = "9C6A9D34-ABAA-4A0D-9930-BC1F7644D0B6";
width = 600;
},
{
layerId = "4DFDD194-A56F-4F9E-97BA-3297822BC055";
width = 600;
},
{
layerId = "14825B7F-9412-41E2-8CF9-8F44AA640669";
width = 600;
},
{
layerId = "6D95C03C-148A-4E89-A36A-6A79147497B1";
width = 600;
},
{
layerId = "8E325343-FE47-4360-9BB1-1FE512495D76";
width = 600;
},
{
layerId = "BCC53A07-FD2A-4E76-9F5C-642294C4600E";
width = 600;
},
{
layerId = "C1F72B26-F5AA-4F0E-B116-14A9FBD87A6F";
width = 600;
},
{
layerId = "CF821AF9-99F3-46AC-9C1F-60F128DF51F4";
width = 600;
}
);
},
{
color = 8;
glyphname = _shape.4;
lastChange = "2018-11-22 20:45:01 +0000";
layers = (
{
background = {
paths = (
{
closed = 1;
nodes = (
"33 25 OFFCURVE",
"35 27 OFFCURVE",
"35 30 CURVE SMOOTH",
"35 33 OFFCURVE",
"33 35 OFFCURVE",
"30 35 CURVE SMOOTH",
"27 35 OFFCURVE",
"25 33 OFFCURVE",
"25 30 CURVE SMOOTH",
"25 27 OFFCURVE",
"27 25 OFFCURVE",
"30 25 CURVE SMOOTH"
);
}
);
};
layerId = "48ADB338-978D-470D-BA28-092259F64D79";
paths = (
{
closed = 1;
nodes = (
"28 25 OFFCURVE",
"32 25 OFFCURVE",
"35 25 CURVE",
"35 28 OFFCURVE",
"35 32 OFFCURVE",
"35 35 CURVE",
"32 35 OFFCURVE",
"28 35 OFFCURVE",
"25 35 CURVE",
"25 32 OFFCURVE",
"25 28 OFFCURVE",
"25 25 CURVE"
);
}
);
width = 60;
},
{
background = {
paths = (
{
closed = 1;
nodes = (
"33 25 OFFCURVE",
"35 27 OFFCURVE",
"35 30 CURVE SMOOTH",
"35 33 OFFCURVE",
"33 35 OFFCURVE",
"30 35 CURVE SMOOTH",
"27 35 OFFCURVE",
"25 33 OFFCURVE",
"25 30 CURVE SMOOTH",
"25 27 OFFCURVE",
"27 25 OFFCURVE",
"30 25 CURVE SMOOTH"
);
}
);
};
layerId = "631FB97C-DDFD-47C8-A05F-E57C7765765C";
paths = (
{
closed = 1;
nodes = (
"32 27 OFFCURVE",
"33 28 OFFCURVE",
"35 30 CURVE",
"33 32 OFFCURVE",
"32 33 OFFCURVE",
"30 35 CURVE",
"28 33 OFFCURVE",
"27 32 OFFCURVE",
"25 30 CURVE",
"27 28 OFFCURVE",
"28 27 OFFCURVE",
"30 25 CURVE"
);
}
);
width = 60;
},
{
background = {
paths = (
{
closed = 1;
nodes = (
"38 16 OFFCURVE",
"44 22 OFFCURVE",
"44 30 CURVE SMOOTH",
"44 38 OFFCURVE",
"38 44 OFFCURVE",
"30 44 CURVE SMOOTH",
"22 44 OFFCURVE",
"16 38 OFFCURVE",
"16 30 CURVE SMOOTH",
"16 22 OFFCURVE",
"22 16 OFFCURVE",
"30 16 CURVE SMOOTH"
);
}
);
};
layerId = "1979AEBF-ACF3-4293-8280-4EC52756D623";
paths = (
{
closed = 1;
nodes = (
"33 25 OFFCURVE",
"35 27 OFFCURVE",
"35 30 CURVE SMOOTH",
"35 33 OFFCURVE",
"33 35 OFFCURVE",
"30 35 CURVE SMOOTH",
"27 35 OFFCURVE",
"25 33 OFFCURVE",
"25 30 CURVE SMOOTH",
"25 27 OFFCURVE",
"27 25 OFFCURVE",
"30 25 CURVE SMOOTH"
);
}
);
width = 60;
},
{
background = {
paths = (
{
closed = 1;
nodes = (
"33 25 OFFCURVE",
"35 27 OFFCURVE",
"35 30 CURVE SMOOTH",
"35 33 OFFCURVE",
"33 35 OFFCURVE",
"30 35 CURVE SMOOTH",
"27 35 OFFCURVE",
"25 33 OFFCURVE",
"25 30 CURVE SMOOTH",
"25 27 OFFCURVE",
"27 25 OFFCURVE",
"30 25 CURVE SMOOTH"
);
}
);
};
guideLines = (
{
position = "{-12, 30}";
},
{
angle = 90;
position = "{30, 79}";
},
{
position = "{0, 60}";
}
);
layerId = "3E7C7373-894E-465B-B362-7C09A6130116";
paths = (
{
closed = 1;
nodes = (
"30 20 OFFCURVE",
"40 30 OFFCURVE",
"30 30 CURVE",
"40 30 OFFCURVE",
"30 40 OFFCURVE",
"30 30 CURVE",
"30 40 OFFCURVE",
"20 30 OFFCURVE",
"30 30 CURVE",
"20 30 OFFCURVE",
"30 20 OFFCURVE",
"30 30 CURVE"
);
}
);
width = 60;
},
{
background = {
paths = (
{
closed = 1;
nodes = (
"33 25 OFFCURVE",
"35 27 OFFCURVE",
"35 30 CURVE SMOOTH",
"35 33 OFFCURVE",
"33 35 OFFCURVE",
"30 35 CURVE SMOOTH",
"27 35 OFFCURVE",
"25 33 OFFCURVE",
"25 30 CURVE SMOOTH",
"25 27 OFFCURVE",
"27 25 OFFCURVE",
"30 25 CURVE SMOOTH"
);
}
);
};
guideLines = (
{
position = "{-12, 30}";
},
{
angle = 90;
position = "{30, 79}";
},
{
position = "{0, 60}";
}
);
layerId = "51876FD2-FB15-42B1-8983-2C578064692B";
paths = (
{
closed = 1;
nodes = (
"32 28 OFFCURVE",
"35 29 OFFCURVE",
"35 32 CURVE SMOOTH",
"35 36 OFFCURVE",
"30 36 OFFCURVE",
"30 32 CURVE",
"30 36 OFFCURVE",
"25 36 OFFCURVE",
"25 32 CURVE SMOOTH",
"25 29 OFFCURVE",
"28 28 OFFCURVE",
"30 25 CURVE"
);
}
);
width = 60;
},
{
background = {
paths = (
{
closed = 1;
nodes = (
"33 25 OFFCURVE",
"35 27 OFFCURVE",
"35 30 CURVE SMOOTH",
"35 33 OFFCURVE",
"33 35 OFFCURVE",
"30 35 CURVE SMOOTH",
"27 35 OFFCURVE",
"25 33 OFFCURVE",
"25 30 CURVE SMOOTH",
"25 27 OFFCURVE",
"27 25 OFFCURVE",
"30 25 CURVE SMOOTH"
);
}
);
};
layerId = "338DE7A2-67B3-4D26-93B7-9535EBEDDE48";
paths = (
{
closed = 1;
nodes = (
"28 25 OFFCURVE",
"32 25 OFFCURVE",
"35 25 CURVE",
"35 28 OFFCURVE",
"35 32 OFFCURVE",
"35 35 CURVE",
"32 35 OFFCURVE",
"28 35 OFFCURVE",
"25 35 CURVE",
"25 32 OFFCURVE",
"25 28 OFFCURVE",
"25 25 CURVE"
);
}
);
width = 60;
},
{
background = {
paths = (
{
closed = 1;
nodes = (
"33 25 OFFCURVE",
"35 27 OFFCURVE",
"35 30 CURVE SMOOTH",
"35 33 OFFCURVE",
"33 35 OFFCURVE",
"30 35 CURVE SMOOTH",
"27 35 OFFCURVE",
"25 33 OFFCURVE",
"25 30 CURVE SMOOTH",
"25 27 OFFCURVE",
"27 25 OFFCURVE",
"30 25 CURVE SMOOTH"
);
}
);
};
layerId = "AAD68214-DCF7-41E4-9114-14FE146B1BEB";
paths = (
{
closed = 1;
nodes = (
"28 25 OFFCURVE",
"32 25 OFFCURVE",
"35 25 CURVE",
"35 28 OFFCURVE",
"35 32 OFFCURVE",
"35 35 CURVE",
"32 35 OFFCURVE",
"28 35 OFFCURVE",
"25 35 CURVE",
"25 32 OFFCURVE",
"25 28 OFFCURVE",
"25 25 CURVE"
);
}
);
width = 60;
},
{
background = {
paths = (
{
closed = 1;
nodes = (
"33 25 OFFCURVE",
"35 27 OFFCURVE",
"35 30 CURVE SMOOTH",
"35 33 OFFCURVE",
"33 35 OFFCURVE",
"30 35 CURVE SMOOTH",
"27 35 OFFCURVE",
"25 33 OFFCURVE",
"25 30 CURVE SMOOTH",
"25 27 OFFCURVE",
"27 25 OFFCURVE",
"30 25 CURVE SMOOTH"
);
}
);
};
layerId = "731692F0-AA29-4851-B444-6CE3FFE142F7";
paths = (
{
closed = 1;
nodes = (
"28 25 OFFCURVE",
"32 25 OFFCURVE",
"35 25 CURVE",
"35 28 OFFCURVE",
"35 32 OFFCURVE",
"35 35 CURVE",
"32 35 OFFCURVE",
"28 35 OFFCURVE",
"25 35 CURVE",
"25 32 OFFCURVE",
"25 28 OFFCURVE",
"25 25 CURVE"
);
}
);
width = 60;
},
{
layerId = "603BEC83-C21E-45CC-B62B-D21219333A9E";
width = 600;
},
{
layerId = "1BC44DF8-44A1-4B74-831C-40C40A10F098";
width = 600;
},
{
layerId = "852086DA-8501-469D-AA3F-41FA22DDFBCF";
width = 600;
},
{
layerId = "438D4B4E-3EA7-4A41-8875-80F76BAAB6B3";
width = 600;
},
{
layerId = "14BA25F3-C0EE-4CB4-9F98-5DFEB1E18EE7";
width = 600;
},
{
layerId = "2DAF2681-E3BA-4DC5-83D2-7594B55BDC1F";
width = 600;
},
{
layerId = "9520110A-DE13-4414-A7F5-42A172064E5B";
width = 600;
},
{
layerId = "D3FCCDB1-AA10-47A4-A23D-9BF96A588920";
width = 600;
},
{
layerId = "D643C430-56B0-49A8-9E39-8604C95EB74F";
width = 600;
},
{
layerId = "7797199F-D624-4FDD-A36F-0525AE380D0E";
width = 600;
},
{
layerId = "FA6E6620-C52D-4B33-AA81-50D031CD4A6F";
width = 600;
},
{
layerId = "DA51B74E-A0F5-42B5-A2C0-D3D9A70E926B";
width = 600;
},
{
layerId = "011F2706-27C6-45CF-AFED-5303A8B32752";
width = 600;
},
{
layerId = "6EB6CF65-351D-4989-AD9F-DEECEF62225A";
width = 600;
},
{
layerId = "D4E4317C-6609-4A69-A5F7-6DDC3CFB0BD6";
width = 600;
},
{
layerId = "08C62C66-FD01-4260-BAA0-BEE60294F9EF";
width = 600;
},
{
layerId = "C12FEEC6-0181-4EF0-8187-9F5259F16C67";
width = 600;
},
{
layerId = "FCD7E709-3DAF-4187-AB4E-99AB154318F1";
width = 600;
},
{
layerId = "EBE48403-0FCD-44AC-9AB2-0AD3A5E63D9A";
width = 600;
},
{
layerId = "9F07B2B3-7BA7-410C-8914-36619112BBA6";
width = 600;
},
{
layerId = "F7E00E3A-158A-422E-8335-F758AC046B2C";
width = 600;
},
{
layerId = "E4E551F6-F8FD-4982-9E15-E7C282900C29";
width = 600;
},
{
layerId = "8CEE01F3-9DE0-4E6E-8013-9406EBA360D1";
width = 600;
},
{
layerId = "4E15560D-BCA3-4DD9-A968-409C9AA0E428";
width = 600;
},
{
layerId = "A5C2AB9C-ADFD-454D-8DF7-F417DB232433";
width = 600;
},
{
layerId = "BD5397A9-1FE6-4514-BE6D-B734FE133BF5";
width = 600;
},
{
layerId = "9F96208C-832B-4808-B438-7D3FEE586D2A";
width = 600;
},
{
layerId = "A86FE5DC-CBCB-41B2-8326-591D5FD18EB9";
width = 600;
},
{
layerId = "9C6A9D34-ABAA-4A0D-9930-BC1F7644D0B6";
width = 600;
},
{
layerId = "4DFDD194-A56F-4F9E-97BA-3297822BC055";
width = 600;
},
{
layerId = "14825B7F-9412-41E2-8CF9-8F44AA640669";
width = 600;
},
{
layerId = "6D95C03C-148A-4E89-A36A-6A79147497B1";
width = 600;
},
{
layerId = "8E325343-FE47-4360-9BB1-1FE512495D76";
width = 600;
},
{
layerId = "BCC53A07-FD2A-4E76-9F5C-642294C4600E";
width = 600;
},
{
layerId = "C1F72B26-F5AA-4F0E-B116-14A9FBD87A6F";
width = 600;
},
{
layerId = "CF821AF9-99F3-46AC-9C1F-60F128DF51F4";
width = 600;
}
);
},
{
color = 8;
glyphname = _shape.5;
lastChange = "2018-11-22 21:02:41 +0000";
layers = (
{
background = {
paths = (
{
closed = 1;
nodes = (
"33 25 OFFCURVE",
"35 27 OFFCURVE",
"35 30 CURVE SMOOTH",
"35 33 OFFCURVE",
"33 35 OFFCURVE",
"30 35 CURVE SMOOTH",
"27 35 OFFCURVE",
"25 33 OFFCURVE",
"25 30 CURVE SMOOTH",
"25 27 OFFCURVE",
"27 25 OFFCURVE",
"30 25 CURVE SMOOTH"
);
}
);
};
layerId = "48ADB338-978D-470D-BA28-092259F64D79";
paths = (
{
closed = 1;
nodes = (
"27 25 OFFCURVE",
"29 26 OFFCURVE",
"31 28 CURVE SMOOTH",
"33 30 OFFCURVE",
"35 33 OFFCURVE",
"34 34 CURVE SMOOTH",
"33 35 OFFCURVE",
"31 34 OFFCURVE",
"29 32 CURVE SMOOTH",
"27 30 OFFCURVE",
"25 27 OFFCURVE",
"26 26 CURVE SMOOTH"
);
}
);
width = 60;
},
{
background = {
paths = (
{
closed = 1;
nodes = (
"33 25 OFFCURVE",
"35 27 OFFCURVE",
"35 30 CURVE SMOOTH",
"35 33 OFFCURVE",
"33 35 OFFCURVE",
"30 35 CURVE SMOOTH",
"27 35 OFFCURVE",
"25 33 OFFCURVE",
"25 30 CURVE SMOOTH",
"25 27 OFFCURVE",
"27 25 OFFCURVE",
"30 25 CURVE SMOOTH"
);
}
);
};
layerId = "631FB97C-DDFD-47C8-A05F-E57C7765765C";
paths = (
{
closed = 1;
nodes = (
"32 27 OFFCURVE",
"33 28 OFFCURVE",
"35 30 CURVE",
"33 32 OFFCURVE",
"32 33 OFFCURVE",
"30 35 CURVE",
"28 33 OFFCURVE",
"27 32 OFFCURVE",
"25 30 CURVE",
"27 28 OFFCURVE",
"28 27 OFFCURVE",
"30 25 CURVE"
);
}
);
width = 60;
},
{
background = {
paths = (
{
closed = 1;
nodes = (
"38 16 OFFCURVE",
"44 22 OFFCURVE",
"44 30 CURVE SMOOTH",
"44 38 OFFCURVE",
"38 44 OFFCURVE",
"30 44 CURVE SMOOTH",
"22 44 OFFCURVE",
"16 38 OFFCURVE",
"16 30 CURVE SMOOTH",
"16 22 OFFCURVE",
"22 16 OFFCURVE",
"30 16 CURVE SMOOTH"
);
}
);
};
layerId = "1979AEBF-ACF3-4293-8280-4EC52756D623";
paths = (
{
closed = 1;
nodes = (
"33 25 OFFCURVE",
"35 27 OFFCURVE",
"35 30 CURVE SMOOTH",
"35 33 OFFCURVE",
"33 35 OFFCURVE",
"30 35 CURVE SMOOTH",
"27 35 OFFCURVE",
"25 33 OFFCURVE",
"25 30 CURVE SMOOTH",
"25 27 OFFCURVE",
"27 25 OFFCURVE",
"30 25 CURVE SMOOTH"
);
}
);
width = 60;
},
{
background = {
paths = (
{
closed = 1;
nodes = (
"33 25 OFFCURVE",
"35 27 OFFCURVE",
"35 30 CURVE SMOOTH",
"35 33 OFFCURVE",
"33 35 OFFCURVE",
"30 35 CURVE SMOOTH",
"27 35 OFFCURVE",
"25 33 OFFCURVE",
"25 30 CURVE SMOOTH",
"25 27 OFFCURVE",
"27 25 OFFCURVE",
"30 25 CURVE SMOOTH"
);
}
);
};
guideLines = (
{
position = "{-12, 30}";
},
{
angle = 90;
position = "{30, 79}";
},
{
position = "{0, 60}";
}
);
layerId = "3E7C7373-894E-465B-B362-7C09A6130116";
paths = (
{
closed = 1;
nodes = (
"30 20 OFFCURVE",
"40 30 OFFCURVE",
"30 30 CURVE",
"40 30 OFFCURVE",
"30 40 OFFCURVE",
"30 30 CURVE",
"30 40 OFFCURVE",
"20 30 OFFCURVE",
"30 30 CURVE",
"20 30 OFFCURVE",
"30 20 OFFCURVE",
"30 30 CURVE"
);
}
);
width = 60;
},
{
background = {
paths = (
{
closed = 1;
nodes = (
"33 25 OFFCURVE",
"35 27 OFFCURVE",
"35 30 CURVE SMOOTH",
"35 33 OFFCURVE",
"33 35 OFFCURVE",
"30 35 CURVE SMOOTH",
"27 35 OFFCURVE",
"25 33 OFFCURVE",
"25 30 CURVE SMOOTH",
"25 27 OFFCURVE",
"27 25 OFFCURVE",
"30 25 CURVE SMOOTH"
);
}
);
};
guideLines = (
{
position = "{-12, 30}";
},
{
angle = 90;
position = "{30, 79}";
},
{
position = "{0, 60}";
}
);
layerId = "51876FD2-FB15-42B1-8983-2C578064692B";
paths = (
{
closed = 1;
nodes = (
"32 28 OFFCURVE",
"35 29 OFFCURVE",
"35 32 CURVE SMOOTH",
"35 36 OFFCURVE",
"30 36 OFFCURVE",
"30 32 CURVE",
"30 36 OFFCURVE",
"25 36 OFFCURVE",
"25 32 CURVE SMOOTH",
"25 29 OFFCURVE",
"28 28 OFFCURVE",
"30 25 CURVE"
);
}
);
width = 60;
},
{
background = {
paths = (
{
closed = 1;
nodes = (
"33 25 OFFCURVE",
"35 27 OFFCURVE",
"35 30 CURVE SMOOTH",
"35 33 OFFCURVE",
"33 35 OFFCURVE",
"30 35 CURVE SMOOTH",
"27 35 OFFCURVE",
"25 33 OFFCURVE",
"25 30 CURVE SMOOTH",
"25 27 OFFCURVE",
"27 25 OFFCURVE",
"30 25 CURVE SMOOTH"
);
}
);
};
layerId = "338DE7A2-67B3-4D26-93B7-9535EBEDDE48";
paths = (
{
closed = 1;
nodes = (
"31 25 OFFCURVE",
"32 27 OFFCURVE",
"32 30 CURVE SMOOTH",
"32 33 OFFCURVE",
"31 35 OFFCURVE",
"30 35 CURVE SMOOTH",
"29 35 OFFCURVE",
"28 33 OFFCURVE",
"28 30 CURVE SMOOTH",
"28 27 OFFCURVE",
"29 25 OFFCURVE",
"30 25 CURVE SMOOTH"
);
}
);
width = 60;
},
{
background = {
paths = (
{
closed = 1;
nodes = (
"33 25 OFFCURVE",
"35 27 OFFCURVE",
"35 30 CURVE SMOOTH",
"35 33 OFFCURVE",
"33 35 OFFCURVE",
"30 35 CURVE SMOOTH",
"27 35 OFFCURVE",
"25 33 OFFCURVE",
"25 30 CURVE SMOOTH",
"25 27 OFFCURVE",
"27 25 OFFCURVE",
"30 25 CURVE SMOOTH"
);
}
);
};
layerId = "AAD68214-DCF7-41E4-9114-14FE146B1BEB";
paths = (
{
closed = 1;
nodes = (
"31 25 OFFCURVE",
"32 27 OFFCURVE",
"32 30 CURVE SMOOTH",
"32 33 OFFCURVE",
"31 35 OFFCURVE",
"30 35 CURVE SMOOTH",
"29 35 OFFCURVE",
"28 33 OFFCURVE",
"28 30 CURVE SMOOTH",
"28 27 OFFCURVE",
"29 25 OFFCURVE",
"30 25 CURVE SMOOTH"
);
}
);
width = 60;
},
{
background = {
paths = (
{
closed = 1;
nodes = (
"33 25 OFFCURVE",
"35 27 OFFCURVE",
"35 30 CURVE SMOOTH",
"35 33 OFFCURVE",
"33 35 OFFCURVE",
"30 35 CURVE SMOOTH",
"27 35 OFFCURVE",
"25 33 OFFCURVE",
"25 30 CURVE SMOOTH",
"25 27 OFFCURVE",
"27 25 OFFCURVE",
"30 25 CURVE SMOOTH"
);
}
);
};
layerId = "731692F0-AA29-4851-B444-6CE3FFE142F7";
paths = (
{
closed = 1;
nodes = (
"31 25 OFFCURVE",
"32 27 OFFCURVE",
"32 30 CURVE SMOOTH",
"32 33 OFFCURVE",
"31 35 OFFCURVE",
"30 35 CURVE SMOOTH",
"29 35 OFFCURVE",
"28 33 OFFCURVE",
"28 30 CURVE SMOOTH",
"28 27 OFFCURVE",
"29 25 OFFCURVE",
"30 25 CURVE SMOOTH"
);
}
);
width = 60;
},
{
layerId = "603BEC83-C21E-45CC-B62B-D21219333A9E";
width = 600;
},
{
layerId = "1BC44DF8-44A1-4B74-831C-40C40A10F098";
width = 600;
},
{
layerId = "852086DA-8501-469D-AA3F-41FA22DDFBCF";
width = 600;
},
{
layerId = "438D4B4E-3EA7-4A41-8875-80F76BAAB6B3";
width = 600;
},
{
layerId = "14BA25F3-C0EE-4CB4-9F98-5DFEB1E18EE7";
width = 600;
},
{
layerId = "2DAF2681-E3BA-4DC5-83D2-7594B55BDC1F";
width = 600;
},
{
layerId = "9520110A-DE13-4414-A7F5-42A172064E5B";
width = 600;
},
{
layerId = "D3FCCDB1-AA10-47A4-A23D-9BF96A588920";
width = 600;
},
{
layerId = "D643C430-56B0-49A8-9E39-8604C95EB74F";
width = 600;
},
{
layerId = "7797199F-D624-4FDD-A36F-0525AE380D0E";
width = 600;
},
{
layerId = "FA6E6620-C52D-4B33-AA81-50D031CD4A6F";
width = 600;
},
{
layerId = "DA51B74E-A0F5-42B5-A2C0-D3D9A70E926B";
width = 600;
},
{
layerId = "011F2706-27C6-45CF-AFED-5303A8B32752";
width = 600;
},
{
layerId = "6EB6CF65-351D-4989-AD9F-DEECEF62225A";
width = 600;
},
{
layerId = "D4E4317C-6609-4A69-A5F7-6DDC3CFB0BD6";
width = 600;
},
{
layerId = "08C62C66-FD01-4260-BAA0-BEE60294F9EF";
width = 600;
},
{
layerId = "C12FEEC6-0181-4EF0-8187-9F5259F16C67";
width = 600;
},
{
layerId = "FCD7E709-3DAF-4187-AB4E-99AB154318F1";
width = 600;
},
{
layerId = "EBE48403-0FCD-44AC-9AB2-0AD3A5E63D9A";
width = 600;
},
{
layerId = "9F07B2B3-7BA7-410C-8914-36619112BBA6";
width = 600;
},
{
layerId = "F7E00E3A-158A-422E-8335-F758AC046B2C";
width = 600;
},
{
layerId = "E4E551F6-F8FD-4982-9E15-E7C282900C29";
width = 600;
},
{
layerId = "8CEE01F3-9DE0-4E6E-8013-9406EBA360D1";
width = 600;
},
{
layerId = "4E15560D-BCA3-4DD9-A968-409C9AA0E428";
width = 600;
},
{
layerId = "A5C2AB9C-ADFD-454D-8DF7-F417DB232433";
width = 600;
},
{
layerId = "BD5397A9-1FE6-4514-BE6D-B734FE133BF5";
width = 600;
},
{
layerId = "9F96208C-832B-4808-B438-7D3FEE586D2A";
width = 600;
},
{
layerId = "A86FE5DC-CBCB-41B2-8326-591D5FD18EB9";
width = 600;
},
{
layerId = "9C6A9D34-ABAA-4A0D-9930-BC1F7644D0B6";
width = 600;
},
{
layerId = "4DFDD194-A56F-4F9E-97BA-3297822BC055";
width = 600;
},
{
layerId = "14825B7F-9412-41E2-8CF9-8F44AA640669";
width = 600;
},
{
layerId = "6D95C03C-148A-4E89-A36A-6A79147497B1";
width = 600;
},
{
layerId = "8E325343-FE47-4360-9BB1-1FE512495D76";
width = 600;
},
{
layerId = "BCC53A07-FD2A-4E76-9F5C-642294C4600E";
width = 600;
},
{
layerId = "C1F72B26-F5AA-4F0E-B116-14A9FBD87A6F";
width = 600;
},
{
layerId = "CF821AF9-99F3-46AC-9C1F-60F128DF51F4";
width = 600;
}
);
},
{
color = 8;
glyphname = _shape.6;
lastChange = "2018-11-22 21:02:36 +0000";
layers = (
{
background = {
paths = (
{
closed = 1;
nodes = (
"33 25 OFFCURVE",
"35 27 OFFCURVE",
"35 30 CURVE SMOOTH",
"35 33 OFFCURVE",
"33 35 OFFCURVE",
"30 35 CURVE SMOOTH",
"27 35 OFFCURVE",
"25 33 OFFCURVE",
"25 30 CURVE SMOOTH",
"25 27 OFFCURVE",
"27 25 OFFCURVE",
"30 25 CURVE SMOOTH"
);
}
);
};
layerId = "48ADB338-978D-470D-BA28-092259F64D79";
paths = (
{
closed = 1;
nodes = (
"35 27 OFFCURVE",
"33 30 OFFCURVE",
"31 32 CURVE SMOOTH",
"29 34 OFFCURVE",
"27 35 OFFCURVE",
"26 34 CURVE SMOOTH",
"25 33 OFFCURVE",
"27 30 OFFCURVE",
"29 28 CURVE SMOOTH",
"31 26 OFFCURVE",
"33 25 OFFCURVE",
"34 26 CURVE SMOOTH"
);
}
);
width = 60;
},
{
background = {
paths = (
{
closed = 1;
nodes = (
"33 25 OFFCURVE",
"35 27 OFFCURVE",
"35 30 CURVE SMOOTH",
"35 33 OFFCURVE",
"33 35 OFFCURVE",
"30 35 CURVE SMOOTH",
"27 35 OFFCURVE",
"25 33 OFFCURVE",
"25 30 CURVE SMOOTH",
"25 27 OFFCURVE",
"27 25 OFFCURVE",
"30 25 CURVE SMOOTH"
);
}
);
};
layerId = "631FB97C-DDFD-47C8-A05F-E57C7765765C";
paths = (
{
closed = 1;
nodes = (
"32 27 OFFCURVE",
"33 28 OFFCURVE",
"35 30 CURVE",
"33 32 OFFCURVE",
"32 33 OFFCURVE",
"30 35 CURVE",
"28 33 OFFCURVE",
"27 32 OFFCURVE",
"25 30 CURVE",
"27 28 OFFCURVE",
"28 27 OFFCURVE",
"30 25 CURVE"
);
}
);
width = 60;
},
{
background = {
paths = (
{
closed = 1;
nodes = (
"38 16 OFFCURVE",
"44 22 OFFCURVE",
"44 30 CURVE SMOOTH",
"44 38 OFFCURVE",
"38 44 OFFCURVE",
"30 44 CURVE SMOOTH",
"22 44 OFFCURVE",
"16 38 OFFCURVE",
"16 30 CURVE SMOOTH",
"16 22 OFFCURVE",
"22 16 OFFCURVE",
"30 16 CURVE SMOOTH"
);
}
);
};
layerId = "1979AEBF-ACF3-4293-8280-4EC52756D623";
paths = (
{
closed = 1;
nodes = (
"33 25 OFFCURVE",
"35 27 OFFCURVE",
"35 30 CURVE SMOOTH",
"35 33 OFFCURVE",
"33 35 OFFCURVE",
"30 35 CURVE SMOOTH",
"27 35 OFFCURVE",
"25 33 OFFCURVE",
"25 30 CURVE SMOOTH",
"25 27 OFFCURVE",
"27 25 OFFCURVE",
"30 25 CURVE SMOOTH"
);
}
);
width = 60;
},
{
background = {
paths = (
{
closed = 1;
nodes = (
"33 25 OFFCURVE",
"35 27 OFFCURVE",
"35 30 CURVE SMOOTH",
"35 33 OFFCURVE",
"33 35 OFFCURVE",
"30 35 CURVE SMOOTH",
"27 35 OFFCURVE",
"25 33 OFFCURVE",
"25 30 CURVE SMOOTH",
"25 27 OFFCURVE",
"27 25 OFFCURVE",
"30 25 CURVE SMOOTH"
);
}
);
};
guideLines = (
{
position = "{-12, 30}";
},
{
angle = 90;
position = "{30, 79}";
},
{
position = "{0, 60}";
}
);
layerId = "3E7C7373-894E-465B-B362-7C09A6130116";
paths = (
{
closed = 1;
nodes = (
"30 20 OFFCURVE",
"40 30 OFFCURVE",
"30 30 CURVE",
"40 30 OFFCURVE",
"30 40 OFFCURVE",
"30 30 CURVE",
"30 40 OFFCURVE",
"20 30 OFFCURVE",
"30 30 CURVE",
"20 30 OFFCURVE",
"30 20 OFFCURVE",
"30 30 CURVE"
);
}
);
width = 60;
},
{
background = {
paths = (
{
closed = 1;
nodes = (
"33 25 OFFCURVE",
"35 27 OFFCURVE",
"35 30 CURVE SMOOTH",
"35 33 OFFCURVE",
"33 35 OFFCURVE",
"30 35 CURVE SMOOTH",
"27 35 OFFCURVE",
"25 33 OFFCURVE",
"25 30 CURVE SMOOTH",
"25 27 OFFCURVE",
"27 25 OFFCURVE",
"30 25 CURVE SMOOTH"
);
}
);
};
guideLines = (
{
position = "{-12, 30}";
},
{
angle = 90;
position = "{30, 79}";
},
{
position = "{0, 60}";
}
);
layerId = "51876FD2-FB15-42B1-8983-2C578064692B";
paths = (
{
closed = 1;
nodes = (
"32 28 OFFCURVE",
"35 29 OFFCURVE",
"35 32 CURVE SMOOTH",
"35 36 OFFCURVE",
"30 36 OFFCURVE",
"30 32 CURVE",
"30 36 OFFCURVE",
"25 36 OFFCURVE",
"25 32 CURVE SMOOTH",
"25 29 OFFCURVE",
"28 28 OFFCURVE",
"30 25 CURVE"
);
}
);
width = 60;
},
{
background = {
paths = (
{
closed = 1;
nodes = (
"33 25 OFFCURVE",
"35 27 OFFCURVE",
"35 30 CURVE SMOOTH",
"35 33 OFFCURVE",
"33 35 OFFCURVE",
"30 35 CURVE SMOOTH",
"27 35 OFFCURVE",
"25 33 OFFCURVE",
"25 30 CURVE SMOOTH",
"25 27 OFFCURVE",
"27 25 OFFCURVE",
"30 25 CURVE SMOOTH"
);
}
);
};
layerId = "338DE7A2-67B3-4D26-93B7-9535EBEDDE48";
paths = (
{
closed = 1;
nodes = (
"27 25 OFFCURVE",
"29 26 OFFCURVE",
"31 28 CURVE SMOOTH",
"33 30 OFFCURVE",
"35 33 OFFCURVE",
"34 34 CURVE SMOOTH",
"33 35 OFFCURVE",
"31 34 OFFCURVE",
"29 32 CURVE SMOOTH",
"27 30 OFFCURVE",
"25 27 OFFCURVE",
"26 26 CURVE SMOOTH"
);
}
);
width = 60;
},
{
background = {
paths = (
{
closed = 1;
nodes = (
"33 25 OFFCURVE",
"35 27 OFFCURVE",
"35 30 CURVE SMOOTH",
"35 33 OFFCURVE",
"33 35 OFFCURVE",
"30 35 CURVE SMOOTH",
"27 35 OFFCURVE",
"25 33 OFFCURVE",
"25 30 CURVE SMOOTH",
"25 27 OFFCURVE",
"27 25 OFFCURVE",
"30 25 CURVE SMOOTH"
);
}
);
};
layerId = "AAD68214-DCF7-41E4-9114-14FE146B1BEB";
paths = (
{
closed = 1;
nodes = (
"27 25 OFFCURVE",
"29 26 OFFCURVE",
"31 28 CURVE SMOOTH",
"33 30 OFFCURVE",
"35 33 OFFCURVE",
"34 34 CURVE SMOOTH",
"33 35 OFFCURVE",
"31 34 OFFCURVE",
"29 32 CURVE SMOOTH",
"27 30 OFFCURVE",
"25 27 OFFCURVE",
"26 26 CURVE SMOOTH"
);
}
);
width = 60;
},
{
background = {
paths = (
{
closed = 1;
nodes = (
"33 25 OFFCURVE",
"35 27 OFFCURVE",
"35 30 CURVE SMOOTH",
"35 33 OFFCURVE",
"33 35 OFFCURVE",
"30 35 CURVE SMOOTH",
"27 35 OFFCURVE",
"25 33 OFFCURVE",
"25 30 CURVE SMOOTH",
"25 27 OFFCURVE",
"27 25 OFFCURVE",
"30 25 CURVE SMOOTH"
);
}
);
};
layerId = "731692F0-AA29-4851-B444-6CE3FFE142F7";
paths = (
{
closed = 1;
nodes = (
"27 25 OFFCURVE",
"29 26 OFFCURVE",
"31 28 CURVE SMOOTH",
"33 30 OFFCURVE",
"35 33 OFFCURVE",
"34 34 CURVE SMOOTH",
"33 35 OFFCURVE",
"31 34 OFFCURVE",
"29 32 CURVE SMOOTH",
"27 30 OFFCURVE",
"25 27 OFFCURVE",
"26 26 CURVE SMOOTH"
);
}
);
width = 60;
},
{
layerId = "1BC44DF8-44A1-4B74-831C-40C40A10F098";
width = 600;
},
{
layerId = "603BEC83-C21E-45CC-B62B-D21219333A9E";
width = 600;
},
{
layerId = "852086DA-8501-469D-AA3F-41FA22DDFBCF";
width = 600;
},
{
layerId = "438D4B4E-3EA7-4A41-8875-80F76BAAB6B3";
width = 600;
},
{
layerId = "14BA25F3-C0EE-4CB4-9F98-5DFEB1E18EE7";
width = 600;
},
{
layerId = "2DAF2681-E3BA-4DC5-83D2-7594B55BDC1F";
width = 600;
},
{
layerId = "9520110A-DE13-4414-A7F5-42A172064E5B";
width = 600;
},
{
layerId = "D3FCCDB1-AA10-47A4-A23D-9BF96A588920";
width = 600;
},
{
layerId = "D643C430-56B0-49A8-9E39-8604C95EB74F";
width = 600;
},
{
layerId = "7797199F-D624-4FDD-A36F-0525AE380D0E";
width = 600;
},
{
layerId = "FA6E6620-C52D-4B33-AA81-50D031CD4A6F";
width = 600;
},
{
layerId = "DA51B74E-A0F5-42B5-A2C0-D3D9A70E926B";
width = 600;
},
{
layerId = "011F2706-27C6-45CF-AFED-5303A8B32752";
width = 600;
},
{
layerId = "6EB6CF65-351D-4989-AD9F-DEECEF62225A";
width = 600;
},
{
layerId = "D4E4317C-6609-4A69-A5F7-6DDC3CFB0BD6";
width = 600;
},
{
layerId = "08C62C66-FD01-4260-BAA0-BEE60294F9EF";
width = 600;
},
{
layerId = "C12FEEC6-0181-4EF0-8187-9F5259F16C67";
width = 600;
},
{
layerId = "FCD7E709-3DAF-4187-AB4E-99AB154318F1";
width = 600;
},
{
layerId = "EBE48403-0FCD-44AC-9AB2-0AD3A5E63D9A";
width = 600;
},
{
layerId = "9F07B2B3-7BA7-410C-8914-36619112BBA6";
width = 600;
},
{
layerId = "F7E00E3A-158A-422E-8335-F758AC046B2C";
width = 600;
},
{
layerId = "E4E551F6-F8FD-4982-9E15-E7C282900C29";
width = 600;
},
{
layerId = "8CEE01F3-9DE0-4E6E-8013-9406EBA360D1";
width = 600;
},
{
layerId = "4E15560D-BCA3-4DD9-A968-409C9AA0E428";
width = 600;
},
{
layerId = "A5C2AB9C-ADFD-454D-8DF7-F417DB232433";
width = 600;
},
{
layerId = "BD5397A9-1FE6-4514-BE6D-B734FE133BF5";
width = 600;
},
{
layerId = "9F96208C-832B-4808-B438-7D3FEE586D2A";
width = 600;
},
{
layerId = "A86FE5DC-CBCB-41B2-8326-591D5FD18EB9";
width = 600;
},
{
layerId = "9C6A9D34-ABAA-4A0D-9930-BC1F7644D0B6";
width = 600;
},
{
layerId = "4DFDD194-A56F-4F9E-97BA-3297822BC055";
width = 600;
},
{
layerId = "14825B7F-9412-41E2-8CF9-8F44AA640669";
width = 600;
},
{
layerId = "6D95C03C-148A-4E89-A36A-6A79147497B1";
width = 600;
},
{
layerId = "8E325343-FE47-4360-9BB1-1FE512495D76";
width = 600;
},
{
layerId = "BCC53A07-FD2A-4E76-9F5C-642294C4600E";
width = 600;
},
{
layerId = "C1F72B26-F5AA-4F0E-B116-14A9FBD87A6F";
width = 600;
},
{
layerId = "CF821AF9-99F3-46AC-9C1F-60F128DF51F4";
width = 600;
}
);
},
{
color = 8;
glyphname = _shape.7;
lastChange = "2018-11-22 21:04:51 +0000";
layers = (
{
background = {
paths = (
{
closed = 1;
nodes = (
"33 25 OFFCURVE",
"35 27 OFFCURVE",
"35 30 CURVE SMOOTH",
"35 33 OFFCURVE",
"33 35 OFFCURVE",
"30 35 CURVE SMOOTH",
"27 35 OFFCURVE",
"25 33 OFFCURVE",
"25 30 CURVE SMOOTH",
"25 27 OFFCURVE",
"27 25 OFFCURVE",
"30 25 CURVE SMOOTH"
);
}
);
};
layerId = "48ADB338-978D-470D-BA28-092259F64D79";
paths = (
{
closed = 1;
nodes = (
"33 28 OFFCURVE",
"35 29 OFFCURVE",
"35 30 CURVE SMOOTH",
"35 31 OFFCURVE",
"33 32 OFFCURVE",
"30 32 CURVE SMOOTH",
"27 32 OFFCURVE",
"25 31 OFFCURVE",
"25 30 CURVE SMOOTH",
"25 29 OFFCURVE",
"27 28 OFFCURVE",
"30 28 CURVE SMOOTH"
);
}
);
width = 60;
},
{
background = {
paths = (
{
closed = 1;
nodes = (
"33 25 OFFCURVE",
"35 27 OFFCURVE",
"35 30 CURVE SMOOTH",
"35 33 OFFCURVE",
"33 35 OFFCURVE",
"30 35 CURVE SMOOTH",
"27 35 OFFCURVE",
"25 33 OFFCURVE",
"25 30 CURVE SMOOTH",
"25 27 OFFCURVE",
"27 25 OFFCURVE",
"30 25 CURVE SMOOTH"
);
}
);
};
layerId = "631FB97C-DDFD-47C8-A05F-E57C7765765C";
paths = (
{
closed = 1;
nodes = (
"32 27 OFFCURVE",
"33 28 OFFCURVE",
"35 30 CURVE",
"33 32 OFFCURVE",
"32 33 OFFCURVE",
"30 35 CURVE",
"28 33 OFFCURVE",
"27 32 OFFCURVE",
"25 30 CURVE",
"27 28 OFFCURVE",
"28 27 OFFCURVE",
"30 25 CURVE"
);
}
);
width = 60;
},
{
background = {
paths = (
{
closed = 1;
nodes = (
"38 16 OFFCURVE",
"44 22 OFFCURVE",
"44 30 CURVE SMOOTH",
"44 38 OFFCURVE",
"38 44 OFFCURVE",
"30 44 CURVE SMOOTH",
"22 44 OFFCURVE",
"16 38 OFFCURVE",
"16 30 CURVE SMOOTH",
"16 22 OFFCURVE",
"22 16 OFFCURVE",
"30 16 CURVE SMOOTH"
);
}
);
};
layerId = "1979AEBF-ACF3-4293-8280-4EC52756D623";
paths = (
{
closed = 1;
nodes = (
"33 25 OFFCURVE",
"35 27 OFFCURVE",
"35 30 CURVE SMOOTH",
"35 33 OFFCURVE",
"33 35 OFFCURVE",
"30 35 CURVE SMOOTH",
"27 35 OFFCURVE",
"25 33 OFFCURVE",
"25 30 CURVE SMOOTH",
"25 27 OFFCURVE",
"27 25 OFFCURVE",
"30 25 CURVE SMOOTH"
);
}
);
width = 60;
},
{
background = {
paths = (
{
closed = 1;
nodes = (
"33 25 OFFCURVE",
"35 27 OFFCURVE",
"35 30 CURVE SMOOTH",
"35 33 OFFCURVE",
"33 35 OFFCURVE",
"30 35 CURVE SMOOTH",
"27 35 OFFCURVE",
"25 33 OFFCURVE",
"25 30 CURVE SMOOTH",
"25 27 OFFCURVE",
"27 25 OFFCURVE",
"30 25 CURVE SMOOTH"
);
}
);
};
guideLines = (
{
position = "{-12, 30}";
},
{
angle = 90;
position = "{30, 79}";
},
{
position = "{0, 60}";
}
);
layerId = "3E7C7373-894E-465B-B362-7C09A6130116";
paths = (
{
closed = 1;
nodes = (
"30 20 OFFCURVE",
"40 30 OFFCURVE",
"30 30 CURVE",
"40 30 OFFCURVE",
"30 40 OFFCURVE",
"30 30 CURVE",
"30 40 OFFCURVE",
"20 30 OFFCURVE",
"30 30 CURVE",
"20 30 OFFCURVE",
"30 20 OFFCURVE",
"30 30 CURVE"
);
}
);
width = 60;
},
{
background = {
paths = (
{
closed = 1;
nodes = (
"33 25 OFFCURVE",
"35 27 OFFCURVE",
"35 30 CURVE SMOOTH",
"35 33 OFFCURVE",
"33 35 OFFCURVE",
"30 35 CURVE SMOOTH",
"27 35 OFFCURVE",
"25 33 OFFCURVE",
"25 30 CURVE SMOOTH",
"25 27 OFFCURVE",
"27 25 OFFCURVE",
"30 25 CURVE SMOOTH"
);
}
);
};
guideLines = (
{
position = "{-12, 30}";
},
{
angle = 90;
position = "{30, 79}";
},
{
position = "{0, 60}";
}
);
layerId = "51876FD2-FB15-42B1-8983-2C578064692B";
paths = (
{
closed = 1;
nodes = (
"32 28 OFFCURVE",
"35 29 OFFCURVE",
"35 32 CURVE SMOOTH",
"35 36 OFFCURVE",
"30 36 OFFCURVE",
"30 32 CURVE",
"30 36 OFFCURVE",
"25 36 OFFCURVE",
"25 32 CURVE SMOOTH",
"25 29 OFFCURVE",
"28 28 OFFCURVE",
"30 25 CURVE"
);
}
);
width = 60;
},
{
background = {
paths = (
{
closed = 1;
nodes = (
"33 25 OFFCURVE",
"35 27 OFFCURVE",
"35 30 CURVE SMOOTH",
"35 33 OFFCURVE",
"33 35 OFFCURVE",
"30 35 CURVE SMOOTH",
"27 35 OFFCURVE",
"25 33 OFFCURVE",
"25 30 CURVE SMOOTH",
"25 27 OFFCURVE",
"27 25 OFFCURVE",
"30 25 CURVE SMOOTH"
);
}
);
};
layerId = "338DE7A2-67B3-4D26-93B7-9535EBEDDE48";
paths = (
{
closed = 1;
nodes = (
"31 25 OFFCURVE",
"32 27 OFFCURVE",
"32 30 CURVE SMOOTH",
"32 33 OFFCURVE",
"31 35 OFFCURVE",
"30 35 CURVE SMOOTH",
"29 35 OFFCURVE",
"28 33 OFFCURVE",
"28 30 CURVE SMOOTH",
"28 27 OFFCURVE",
"29 25 OFFCURVE",
"30 25 CURVE SMOOTH"
);
}
);
width = 60;
},
{
background = {
paths = (
{
closed = 1;
nodes = (
"33 25 OFFCURVE",
"35 27 OFFCURVE",
"35 30 CURVE SMOOTH",
"35 33 OFFCURVE",
"33 35 OFFCURVE",
"30 35 CURVE SMOOTH",
"27 35 OFFCURVE",
"25 33 OFFCURVE",
"25 30 CURVE SMOOTH",
"25 27 OFFCURVE",
"27 25 OFFCURVE",
"30 25 CURVE SMOOTH"
);
}
);
};
layerId = "AAD68214-DCF7-41E4-9114-14FE146B1BEB";
paths = (
{
closed = 1;
nodes = (
"31 25 OFFCURVE",
"32 27 OFFCURVE",
"32 30 CURVE SMOOTH",
"32 33 OFFCURVE",
"31 35 OFFCURVE",
"30 35 CURVE SMOOTH",
"29 35 OFFCURVE",
"28 33 OFFCURVE",
"28 30 CURVE SMOOTH",
"28 27 OFFCURVE",
"29 25 OFFCURVE",
"30 25 CURVE SMOOTH"
);
}
);
width = 60;
},
{
background = {
paths = (
{
closed = 1;
nodes = (
"33 25 OFFCURVE",
"35 27 OFFCURVE",
"35 30 CURVE SMOOTH",
"35 33 OFFCURVE",
"33 35 OFFCURVE",
"30 35 CURVE SMOOTH",
"27 35 OFFCURVE",
"25 33 OFFCURVE",
"25 30 CURVE SMOOTH",
"25 27 OFFCURVE",
"27 25 OFFCURVE",
"30 25 CURVE SMOOTH"
);
}
);
};
layerId = "731692F0-AA29-4851-B444-6CE3FFE142F7";
paths = (
{
closed = 1;
nodes = (
"31 25 OFFCURVE",
"32 27 OFFCURVE",
"32 30 CURVE SMOOTH",
"32 33 OFFCURVE",
"31 35 OFFCURVE",
"30 35 CURVE SMOOTH",
"29 35 OFFCURVE",
"28 33 OFFCURVE",
"28 30 CURVE SMOOTH",
"28 27 OFFCURVE",
"29 25 OFFCURVE",
"30 25 CURVE SMOOTH"
);
}
);
width = 60;
},
{
layerId = "603BEC83-C21E-45CC-B62B-D21219333A9E";
width = 600;
},
{
layerId = "1BC44DF8-44A1-4B74-831C-40C40A10F098";
width = 600;
},
{
layerId = "852086DA-8501-469D-AA3F-41FA22DDFBCF";
width = 600;
},
{
layerId = "438D4B4E-3EA7-4A41-8875-80F76BAAB6B3";
width = 600;
},
{
layerId = "14BA25F3-C0EE-4CB4-9F98-5DFEB1E18EE7";
width = 600;
},
{
layerId = "2DAF2681-E3BA-4DC5-83D2-7594B55BDC1F";
width = 600;
},
{
layerId = "9520110A-DE13-4414-A7F5-42A172064E5B";
width = 600;
},
{
layerId = "D3FCCDB1-AA10-47A4-A23D-9BF96A588920";
width = 600;
},
{
layerId = "D643C430-56B0-49A8-9E39-8604C95EB74F";
width = 600;
},
{
layerId = "7797199F-D624-4FDD-A36F-0525AE380D0E";
width = 600;
},
{
layerId = "FA6E6620-C52D-4B33-AA81-50D031CD4A6F";
width = 600;
},
{
layerId = "DA51B74E-A0F5-42B5-A2C0-D3D9A70E926B";
width = 600;
},
{
layerId = "011F2706-27C6-45CF-AFED-5303A8B32752";
width = 600;
},
{
layerId = "6EB6CF65-351D-4989-AD9F-DEECEF62225A";
width = 600;
},
{
layerId = "D4E4317C-6609-4A69-A5F7-6DDC3CFB0BD6";
width = 600;
},
{
layerId = "08C62C66-FD01-4260-BAA0-BEE60294F9EF";
width = 600;
},
{
layerId = "C12FEEC6-0181-4EF0-8187-9F5259F16C67";
width = 600;
},
{
layerId = "FCD7E709-3DAF-4187-AB4E-99AB154318F1";
width = 600;
},
{
layerId = "EBE48403-0FCD-44AC-9AB2-0AD3A5E63D9A";
width = 600;
},
{
layerId = "9F07B2B3-7BA7-410C-8914-36619112BBA6";
width = 600;
},
{
layerId = "F7E00E3A-158A-422E-8335-F758AC046B2C";
width = 600;
},
{
layerId = "E4E551F6-F8FD-4982-9E15-E7C282900C29";
width = 600;
},
{
layerId = "8CEE01F3-9DE0-4E6E-8013-9406EBA360D1";
width = 600;
},
{
layerId = "4E15560D-BCA3-4DD9-A968-409C9AA0E428";
width = 600;
},
{
layerId = "A5C2AB9C-ADFD-454D-8DF7-F417DB232433";
width = 600;
},
{
layerId = "BD5397A9-1FE6-4514-BE6D-B734FE133BF5";
width = 600;
},
{
layerId = "9F96208C-832B-4808-B438-7D3FEE586D2A";
width = 600;
},
{
layerId = "A86FE5DC-CBCB-41B2-8326-591D5FD18EB9";
width = 600;
},
{
layerId = "9C6A9D34-ABAA-4A0D-9930-BC1F7644D0B6";
width = 600;
},
{
layerId = "4DFDD194-A56F-4F9E-97BA-3297822BC055";
width = 600;
},
{
layerId = "14825B7F-9412-41E2-8CF9-8F44AA640669";
width = 600;
},
{
layerId = "6D95C03C-148A-4E89-A36A-6A79147497B1";
width = 600;
},
{
layerId = "8E325343-FE47-4360-9BB1-1FE512495D76";
width = 600;
},
{
layerId = "BCC53A07-FD2A-4E76-9F5C-642294C4600E";
width = 600;
},
{
layerId = "C1F72B26-F5AA-4F0E-B116-14A9FBD87A6F";
width = 600;
},
{
layerId = "CF821AF9-99F3-46AC-9C1F-60F128DF51F4";
width = 600;
}
);
},
{
color = 8;
glyphname = _shape.8;
lastChange = "2018-11-22 20:45:02 +0000";
layers = (
{
background = {
paths = (
{
closed = 1;
nodes = (
"33 25 OFFCURVE",
"35 27 OFFCURVE",
"35 30 CURVE SMOOTH",
"35 33 OFFCURVE",
"33 35 OFFCURVE",
"30 35 CURVE SMOOTH",
"27 35 OFFCURVE",
"25 33 OFFCURVE",
"25 30 CURVE SMOOTH",
"25 27 OFFCURVE",
"27 25 OFFCURVE",
"30 25 CURVE SMOOTH"
);
}
);
};
layerId = "48ADB338-978D-470D-BA28-092259F64D79";
paths = (
{
closed = 1;
nodes = (
"33 25 OFFCURVE",
"35 27 OFFCURVE",
"35 30 CURVE SMOOTH",
"35 33 OFFCURVE",
"33 35 OFFCURVE",
"30 35 CURVE SMOOTH",
"27 35 OFFCURVE",
"25 33 OFFCURVE",
"25 30 CURVE SMOOTH",
"25 27 OFFCURVE",
"27 25 OFFCURVE",
"30 25 CURVE SMOOTH"
);
}
);
width = 60;
},
{
background = {
paths = (
{
closed = 1;
nodes = (
"33 25 OFFCURVE",
"35 27 OFFCURVE",
"35 30 CURVE SMOOTH",
"35 33 OFFCURVE",
"33 35 OFFCURVE",
"30 35 CURVE SMOOTH",
"27 35 OFFCURVE",
"25 33 OFFCURVE",
"25 30 CURVE SMOOTH",
"25 27 OFFCURVE",
"27 25 OFFCURVE",
"30 25 CURVE SMOOTH"
);
}
);
};
layerId = "631FB97C-DDFD-47C8-A05F-E57C7765765C";
paths = (
{
closed = 1;
nodes = (
"32 27 OFFCURVE",
"33 28 OFFCURVE",
"35 30 CURVE",
"33 32 OFFCURVE",
"32 33 OFFCURVE",
"30 35 CURVE",
"28 33 OFFCURVE",
"27 32 OFFCURVE",
"25 30 CURVE",
"27 28 OFFCURVE",
"28 27 OFFCURVE",
"30 25 CURVE"
);
}
);
width = 60;
},
{
background = {
paths = (
{
closed = 1;
nodes = (
"38 16 OFFCURVE",
"44 22 OFFCURVE",
"44 30 CURVE SMOOTH",
"44 38 OFFCURVE",
"38 44 OFFCURVE",
"30 44 CURVE SMOOTH",
"22 44 OFFCURVE",
"16 38 OFFCURVE",
"16 30 CURVE SMOOTH",
"16 22 OFFCURVE",
"22 16 OFFCURVE",
"30 16 CURVE SMOOTH"
);
}
);
};
layerId = "1979AEBF-ACF3-4293-8280-4EC52756D623";
paths = (
{
closed = 1;
nodes = (
"33 25 OFFCURVE",
"35 27 OFFCURVE",
"35 30 CURVE SMOOTH",
"35 33 OFFCURVE",
"33 35 OFFCURVE",
"30 35 CURVE SMOOTH",
"27 35 OFFCURVE",
"25 33 OFFCURVE",
"25 30 CURVE SMOOTH",
"25 27 OFFCURVE",
"27 25 OFFCURVE",
"30 25 CURVE SMOOTH"
);
}
);
width = 60;
},
{
background = {
paths = (
{
closed = 1;
nodes = (
"33 25 OFFCURVE",
"35 27 OFFCURVE",
"35 30 CURVE SMOOTH",
"35 33 OFFCURVE",
"33 35 OFFCURVE",
"30 35 CURVE SMOOTH",
"27 35 OFFCURVE",
"25 33 OFFCURVE",
"25 30 CURVE SMOOTH",
"25 27 OFFCURVE",
"27 25 OFFCURVE",
"30 25 CURVE SMOOTH"
);
}
);
};
guideLines = (
{
position = "{-12, 30}";
},
{
angle = 90;
position = "{30, 79}";
},
{
position = "{0, 60}";
}
);
layerId = "3E7C7373-894E-465B-B362-7C09A6130116";
paths = (
{
closed = 1;
nodes = (
"30 20 OFFCURVE",
"40 30 OFFCURVE",
"30 30 CURVE",
"40 30 OFFCURVE",
"30 40 OFFCURVE",
"30 30 CURVE",
"30 40 OFFCURVE",
"20 30 OFFCURVE",
"30 30 CURVE",
"20 30 OFFCURVE",
"30 20 OFFCURVE",
"30 30 CURVE"
);
}
);
width = 60;
},
{
background = {
paths = (
{
closed = 1;
nodes = (
"33 25 OFFCURVE",
"35 27 OFFCURVE",
"35 30 CURVE SMOOTH",
"35 33 OFFCURVE",
"33 35 OFFCURVE",
"30 35 CURVE SMOOTH",
"27 35 OFFCURVE",
"25 33 OFFCURVE",
"25 30 CURVE SMOOTH",
"25 27 OFFCURVE",
"27 25 OFFCURVE",
"30 25 CURVE SMOOTH"
);
}
);
};
guideLines = (
{
position = "{-12, 30}";
},
{
angle = 90;
position = "{30, 79}";
},
{
position = "{0, 60}";
}
);
layerId = "51876FD2-FB15-42B1-8983-2C578064692B";
paths = (
{
closed = 1;
nodes = (
"32 28 OFFCURVE",
"35 29 OFFCURVE",
"35 32 CURVE SMOOTH",
"35 36 OFFCURVE",
"30 36 OFFCURVE",
"30 32 CURVE",
"30 36 OFFCURVE",
"25 36 OFFCURVE",
"25 32 CURVE SMOOTH",
"25 29 OFFCURVE",
"28 28 OFFCURVE",
"30 25 CURVE"
);
}
);
width = 60;
},
{
background = {
paths = (
{
closed = 1;
nodes = (
"33 25 OFFCURVE",
"35 27 OFFCURVE",
"35 30 CURVE SMOOTH",
"35 33 OFFCURVE",
"33 35 OFFCURVE",
"30 35 CURVE SMOOTH",
"27 35 OFFCURVE",
"25 33 OFFCURVE",
"25 30 CURVE SMOOTH",
"25 27 OFFCURVE",
"27 25 OFFCURVE",
"30 25 CURVE SMOOTH"
);
}
);
};
layerId = "338DE7A2-67B3-4D26-93B7-9535EBEDDE48";
paths = (
{
closed = 1;
nodes = (
"31 25 OFFCURVE",
"32 27 OFFCURVE",
"32 30 CURVE SMOOTH",
"32 33 OFFCURVE",
"31 35 OFFCURVE",
"30 35 CURVE SMOOTH",
"29 35 OFFCURVE",
"28 33 OFFCURVE",
"28 30 CURVE SMOOTH",
"28 27 OFFCURVE",
"29 25 OFFCURVE",
"30 25 CURVE SMOOTH"
);
},
{
closed = 1;
nodes = (
"33 25 OFFCURVE",
"35 27 OFFCURVE",
"35 30 CURVE SMOOTH",
"35 33 OFFCURVE",
"33 35 OFFCURVE",
"30 35 CURVE SMOOTH",
"27 35 OFFCURVE",
"25 33 OFFCURVE",
"25 30 CURVE SMOOTH",
"25 27 OFFCURVE",
"27 25 OFFCURVE",
"30 25 CURVE SMOOTH"
);
}
);
width = 60;
},
{
background = {
paths = (
{
closed = 1;
nodes = (
"33 25 OFFCURVE",
"35 27 OFFCURVE",
"35 30 CURVE SMOOTH",
"35 33 OFFCURVE",
"33 35 OFFCURVE",
"30 35 CURVE SMOOTH",
"27 35 OFFCURVE",
"25 33 OFFCURVE",
"25 30 CURVE SMOOTH",
"25 27 OFFCURVE",
"27 25 OFFCURVE",
"30 25 CURVE SMOOTH"
);
}
);
};
layerId = "AAD68214-DCF7-41E4-9114-14FE146B1BEB";
paths = (
{
closed = 1;
nodes = (
"31 25 OFFCURVE",
"32 27 OFFCURVE",
"32 30 CURVE SMOOTH",
"32 33 OFFCURVE",
"31 35 OFFCURVE",
"30 35 CURVE SMOOTH",
"29 35 OFFCURVE",
"28 33 OFFCURVE",
"28 30 CURVE SMOOTH",
"28 27 OFFCURVE",
"29 25 OFFCURVE",
"30 25 CURVE SMOOTH"
);
},
{
closed = 1;
nodes = (
"33 25 OFFCURVE",
"35 27 OFFCURVE",
"35 30 CURVE SMOOTH",
"35 33 OFFCURVE",
"33 35 OFFCURVE",
"30 35 CURVE SMOOTH",
"27 35 OFFCURVE",
"25 33 OFFCURVE",
"25 30 CURVE SMOOTH",
"25 27 OFFCURVE",
"27 25 OFFCURVE",
"30 25 CURVE SMOOTH"
);
}
);
width = 60;
},
{
background = {
paths = (
{
closed = 1;
nodes = (
"33 25 OFFCURVE",
"35 27 OFFCURVE",
"35 30 CURVE SMOOTH",
"35 33 OFFCURVE",
"33 35 OFFCURVE",
"30 35 CURVE SMOOTH",
"27 35 OFFCURVE",
"25 33 OFFCURVE",
"25 30 CURVE SMOOTH",
"25 27 OFFCURVE",
"27 25 OFFCURVE",
"30 25 CURVE SMOOTH"
);
}
);
};
layerId = "731692F0-AA29-4851-B444-6CE3FFE142F7";
paths = (
{
closed = 1;
nodes = (
"31 25 OFFCURVE",
"32 27 OFFCURVE",
"32 30 CURVE SMOOTH",
"32 33 OFFCURVE",
"31 35 OFFCURVE",
"30 35 CURVE SMOOTH",
"29 35 OFFCURVE",
"28 33 OFFCURVE",
"28 30 CURVE SMOOTH",
"28 27 OFFCURVE",
"29 25 OFFCURVE",
"30 25 CURVE SMOOTH"
);
},
{
closed = 1;
nodes = (
"33 25 OFFCURVE",
"35 27 OFFCURVE",
"35 30 CURVE SMOOTH",
"35 33 OFFCURVE",
"33 35 OFFCURVE",
"30 35 CURVE SMOOTH",
"27 35 OFFCURVE",
"25 33 OFFCURVE",
"25 30 CURVE SMOOTH",
"25 27 OFFCURVE",
"27 25 OFFCURVE",
"30 25 CURVE SMOOTH"
);
}
);
width = 60;
},
{
layerId = "852086DA-8501-469D-AA3F-41FA22DDFBCF";
width = 600;
},
{
layerId = "603BEC83-C21E-45CC-B62B-D21219333A9E";
width = 600;
},
{
layerId = "1BC44DF8-44A1-4B74-831C-40C40A10F098";
width = 600;
},
{
layerId = "438D4B4E-3EA7-4A41-8875-80F76BAAB6B3";
width = 600;
},
{
layerId = "14BA25F3-C0EE-4CB4-9F98-5DFEB1E18EE7";
width = 600;
},
{
layerId = "2DAF2681-E3BA-4DC5-83D2-7594B55BDC1F";
width = 600;
},
{
layerId = "9520110A-DE13-4414-A7F5-42A172064E5B";
width = 600;
},
{
layerId = "D3FCCDB1-AA10-47A4-A23D-9BF96A588920";
width = 600;
},
{
layerId = "D643C430-56B0-49A8-9E39-8604C95EB74F";
width = 600;
},
{
layerId = "7797199F-D624-4FDD-A36F-0525AE380D0E";
width = 600;
},
{
layerId = "FA6E6620-C52D-4B33-AA81-50D031CD4A6F";
width = 600;
},
{
layerId = "DA51B74E-A0F5-42B5-A2C0-D3D9A70E926B";
width = 600;
},
{
layerId = "011F2706-27C6-45CF-AFED-5303A8B32752";
width = 600;
},
{
layerId = "6EB6CF65-351D-4989-AD9F-DEECEF62225A";
width = 600;
},
{
layerId = "D4E4317C-6609-4A69-A5F7-6DDC3CFB0BD6";
width = 600;
},
{
layerId = "08C62C66-FD01-4260-BAA0-BEE60294F9EF";
width = 600;
},
{
layerId = "C12FEEC6-0181-4EF0-8187-9F5259F16C67";
width = 600;
},
{
layerId = "FCD7E709-3DAF-4187-AB4E-99AB154318F1";
width = 600;
},
{
layerId = "EBE48403-0FCD-44AC-9AB2-0AD3A5E63D9A";
width = 600;
},
{
layerId = "9F07B2B3-7BA7-410C-8914-36619112BBA6";
width = 600;
},
{
layerId = "F7E00E3A-158A-422E-8335-F758AC046B2C";
width = 600;
},
{
layerId = "E4E551F6-F8FD-4982-9E15-E7C282900C29";
width = 600;
},
{
layerId = "8CEE01F3-9DE0-4E6E-8013-9406EBA360D1";
width = 600;
},
{
layerId = "4E15560D-BCA3-4DD9-A968-409C9AA0E428";
width = 600;
},
{
layerId = "A5C2AB9C-ADFD-454D-8DF7-F417DB232433";
width = 600;
},
{
layerId = "BD5397A9-1FE6-4514-BE6D-B734FE133BF5";
width = 600;
},
{
layerId = "9F96208C-832B-4808-B438-7D3FEE586D2A";
width = 600;
},
{
layerId = "A86FE5DC-CBCB-41B2-8326-591D5FD18EB9";
width = 600;
},
{
layerId = "9C6A9D34-ABAA-4A0D-9930-BC1F7644D0B6";
width = 600;
},
{
layerId = "4DFDD194-A56F-4F9E-97BA-3297822BC055";
width = 600;
},
{
layerId = "14825B7F-9412-41E2-8CF9-8F44AA640669";
width = 600;
},
{
layerId = "6D95C03C-148A-4E89-A36A-6A79147497B1";
width = 600;
},
{
layerId = "8E325343-FE47-4360-9BB1-1FE512495D76";
width = 600;
},
{
layerId = "BCC53A07-FD2A-4E76-9F5C-642294C4600E";
width = 600;
},
{
layerId = "C1F72B26-F5AA-4F0E-B116-14A9FBD87A6F";
width = 600;
},
{
layerId = "CF821AF9-99F3-46AC-9C1F-60F128DF51F4";
width = 600;
}
);
},
{
color = 8;
glyphname = _shape.9;
lastChange = "2018-11-22 20:45:02 +0000";
layers = (
{
background = {
paths = (
{
closed = 1;
nodes = (
"33 25 OFFCURVE",
"35 27 OFFCURVE",
"35 30 CURVE SMOOTH",
"35 33 OFFCURVE",
"33 35 OFFCURVE",
"30 35 CURVE SMOOTH",
"27 35 OFFCURVE",
"25 33 OFFCURVE",
"25 30 CURVE SMOOTH",
"25 27 OFFCURVE",
"27 25 OFFCURVE",
"30 25 CURVE SMOOTH"
);
}
);
};
layerId = "48ADB338-978D-470D-BA28-092259F64D79";
paths = (
{
closed = 1;
nodes = (
"32 28 OFFCURVE",
"35 29 OFFCURVE",
"35 32 CURVE SMOOTH",
"35 36 OFFCURVE",
"30 36 OFFCURVE",
"30 32 CURVE",
"30 36 OFFCURVE",
"25 36 OFFCURVE",
"25 32 CURVE SMOOTH",
"25 29 OFFCURVE",
"28 28 OFFCURVE",
"30 25 CURVE"
);
}
);
width = 60;
},
{
background = {
paths = (
{
closed = 1;
nodes = (
"33 25 OFFCURVE",
"35 27 OFFCURVE",
"35 30 CURVE SMOOTH",
"35 33 OFFCURVE",
"33 35 OFFCURVE",
"30 35 CURVE SMOOTH",
"27 35 OFFCURVE",
"25 33 OFFCURVE",
"25 30 CURVE SMOOTH",
"25 27 OFFCURVE",
"27 25 OFFCURVE",
"30 25 CURVE SMOOTH"
);
}
);
};
layerId = "631FB97C-DDFD-47C8-A05F-E57C7765765C";
paths = (
{
closed = 1;
nodes = (
"32 27 OFFCURVE",
"33 28 OFFCURVE",
"35 30 CURVE",
"33 32 OFFCURVE",
"32 33 OFFCURVE",
"30 35 CURVE",
"28 33 OFFCURVE",
"27 32 OFFCURVE",
"25 30 CURVE",
"27 28 OFFCURVE",
"28 27 OFFCURVE",
"30 25 CURVE"
);
}
);
width = 60;
},
{
background = {
paths = (
{
closed = 1;
nodes = (
"38 16 OFFCURVE",
"44 22 OFFCURVE",
"44 30 CURVE SMOOTH",
"44 38 OFFCURVE",
"38 44 OFFCURVE",
"30 44 CURVE SMOOTH",
"22 44 OFFCURVE",
"16 38 OFFCURVE",
"16 30 CURVE SMOOTH",
"16 22 OFFCURVE",
"22 16 OFFCURVE",
"30 16 CURVE SMOOTH"
);
}
);
};
layerId = "1979AEBF-ACF3-4293-8280-4EC52756D623";
paths = (
{
closed = 1;
nodes = (
"33 25 OFFCURVE",
"35 27 OFFCURVE",
"35 30 CURVE SMOOTH",
"35 33 OFFCURVE",
"33 35 OFFCURVE",
"30 35 CURVE SMOOTH",
"27 35 OFFCURVE",
"25 33 OFFCURVE",
"25 30 CURVE SMOOTH",
"25 27 OFFCURVE",
"27 25 OFFCURVE",
"30 25 CURVE SMOOTH"
);
}
);
width = 60;
},
{
background = {
paths = (
{
closed = 1;
nodes = (
"33 25 OFFCURVE",
"35 27 OFFCURVE",
"35 30 CURVE SMOOTH",
"35 33 OFFCURVE",
"33 35 OFFCURVE",
"30 35 CURVE SMOOTH",
"27 35 OFFCURVE",
"25 33 OFFCURVE",
"25 30 CURVE SMOOTH",
"25 27 OFFCURVE",
"27 25 OFFCURVE",
"30 25 CURVE SMOOTH"
);
}
);
};
guideLines = (
{
position = "{-12, 30}";
},
{
angle = 90;
position = "{30, 79}";
},
{
position = "{0, 60}";
}
);
layerId = "3E7C7373-894E-465B-B362-7C09A6130116";
paths = (
{
closed = 1;
nodes = (
"30 20 OFFCURVE",
"40 30 OFFCURVE",
"30 30 CURVE",
"40 30 OFFCURVE",
"30 40 OFFCURVE",
"30 30 CURVE",
"30 40 OFFCURVE",
"20 30 OFFCURVE",
"30 30 CURVE",
"20 30 OFFCURVE",
"30 20 OFFCURVE",
"30 30 CURVE"
);
}
);
width = 60;
},
{
background = {
paths = (
{
closed = 1;
nodes = (
"33 25 OFFCURVE",
"35 27 OFFCURVE",
"35 30 CURVE SMOOTH",
"35 33 OFFCURVE",
"33 35 OFFCURVE",
"30 35 CURVE SMOOTH",
"27 35 OFFCURVE",
"25 33 OFFCURVE",
"25 30 CURVE SMOOTH",
"25 27 OFFCURVE",
"27 25 OFFCURVE",
"30 25 CURVE SMOOTH"
);
}
);
};
guideLines = (
{
position = "{-12, 30}";
},
{
angle = 90;
position = "{30, 79}";
},
{
position = "{0, 60}";
}
);
layerId = "51876FD2-FB15-42B1-8983-2C578064692B";
paths = (
{
closed = 1;
nodes = (
"32 28 OFFCURVE",
"35 29 OFFCURVE",
"35 32 CURVE SMOOTH",
"35 36 OFFCURVE",
"30 36 OFFCURVE",
"30 32 CURVE",
"30 36 OFFCURVE",
"25 36 OFFCURVE",
"25 32 CURVE SMOOTH",
"25 29 OFFCURVE",
"28 28 OFFCURVE",
"30 25 CURVE"
);
}
);
width = 60;
},
{
background = {
paths = (
{
closed = 1;
nodes = (
"33 25 OFFCURVE",
"35 27 OFFCURVE",
"35 30 CURVE SMOOTH",
"35 33 OFFCURVE",
"33 35 OFFCURVE",
"30 35 CURVE SMOOTH",
"27 35 OFFCURVE",
"25 33 OFFCURVE",
"25 30 CURVE SMOOTH",
"25 27 OFFCURVE",
"27 25 OFFCURVE",
"30 25 CURVE SMOOTH"
);
}
);
};
layerId = "338DE7A2-67B3-4D26-93B7-9535EBEDDE48";
paths = (
{
closed = 1;
nodes = (
"32 28 OFFCURVE",
"35 29 OFFCURVE",
"35 32 CURVE SMOOTH",
"35 36 OFFCURVE",
"30 36 OFFCURVE",
"30 32 CURVE",
"30 36 OFFCURVE",
"25 36 OFFCURVE",
"25 32 CURVE SMOOTH",
"25 29 OFFCURVE",
"28 28 OFFCURVE",
"30 25 CURVE"
);
}
);
width = 60;
},
{
background = {
paths = (
{
closed = 1;
nodes = (
"33 25 OFFCURVE",
"35 27 OFFCURVE",
"35 30 CURVE SMOOTH",
"35 33 OFFCURVE",
"33 35 OFFCURVE",
"30 35 CURVE SMOOTH",
"27 35 OFFCURVE",
"25 33 OFFCURVE",
"25 30 CURVE SMOOTH",
"25 27 OFFCURVE",
"27 25 OFFCURVE",
"30 25 CURVE SMOOTH"
);
}
);
};
layerId = "AAD68214-DCF7-41E4-9114-14FE146B1BEB";
paths = (
{
closed = 1;
nodes = (
"32 28 OFFCURVE",
"35 29 OFFCURVE",
"35 32 CURVE SMOOTH",
"35 36 OFFCURVE",
"30 36 OFFCURVE",
"30 32 CURVE",
"30 36 OFFCURVE",
"25 36 OFFCURVE",
"25 32 CURVE SMOOTH",
"25 29 OFFCURVE",
"28 28 OFFCURVE",
"30 25 CURVE"
);
}
);
width = 60;
},
{
background = {
paths = (
{
closed = 1;
nodes = (
"33 25 OFFCURVE",
"35 27 OFFCURVE",
"35 30 CURVE SMOOTH",
"35 33 OFFCURVE",
"33 35 OFFCURVE",
"30 35 CURVE SMOOTH",
"27 35 OFFCURVE",
"25 33 OFFCURVE",
"25 30 CURVE SMOOTH",
"25 27 OFFCURVE",
"27 25 OFFCURVE",
"30 25 CURVE SMOOTH"
);
}
);
};
layerId = "731692F0-AA29-4851-B444-6CE3FFE142F7";
paths = (
{
closed = 1;
nodes = (
"32 28 OFFCURVE",
"35 29 OFFCURVE",
"35 32 CURVE SMOOTH",
"35 36 OFFCURVE",
"30 36 OFFCURVE",
"30 32 CURVE",
"30 36 OFFCURVE",
"25 36 OFFCURVE",
"25 32 CURVE SMOOTH",
"25 29 OFFCURVE",
"28 28 OFFCURVE",
"30 25 CURVE"
);
}
);
width = 60;
},
{
layerId = "603BEC83-C21E-45CC-B62B-D21219333A9E";
width = 600;
},
{
layerId = "1BC44DF8-44A1-4B74-831C-40C40A10F098";
width = 600;
},
{
layerId = "852086DA-8501-469D-AA3F-41FA22DDFBCF";
width = 600;
},
{
layerId = "438D4B4E-3EA7-4A41-8875-80F76BAAB6B3";
width = 600;
},
{
layerId = "14BA25F3-C0EE-4CB4-9F98-5DFEB1E18EE7";
width = 600;
},
{
layerId = "2DAF2681-E3BA-4DC5-83D2-7594B55BDC1F";
width = 600;
},
{
layerId = "9520110A-DE13-4414-A7F5-42A172064E5B";
width = 600;
},
{
layerId = "D3FCCDB1-AA10-47A4-A23D-9BF96A588920";
width = 600;
},
{
layerId = "D643C430-56B0-49A8-9E39-8604C95EB74F";
width = 600;
},
{
layerId = "7797199F-D624-4FDD-A36F-0525AE380D0E";
width = 600;
},
{
layerId = "FA6E6620-C52D-4B33-AA81-50D031CD4A6F";
width = 600;
},
{
layerId = "DA51B74E-A0F5-42B5-A2C0-D3D9A70E926B";
width = 600;
},
{
layerId = "011F2706-27C6-45CF-AFED-5303A8B32752";
width = 600;
},
{
layerId = "6EB6CF65-351D-4989-AD9F-DEECEF62225A";
width = 600;
},
{
layerId = "D4E4317C-6609-4A69-A5F7-6DDC3CFB0BD6";
width = 600;
},
{
layerId = "08C62C66-FD01-4260-BAA0-BEE60294F9EF";
width = 600;
},
{
layerId = "C12FEEC6-0181-4EF0-8187-9F5259F16C67";
width = 600;
},
{
layerId = "FCD7E709-3DAF-4187-AB4E-99AB154318F1";
width = 600;
},
{
layerId = "EBE48403-0FCD-44AC-9AB2-0AD3A5E63D9A";
width = 600;
},
{
layerId = "9F07B2B3-7BA7-410C-8914-36619112BBA6";
width = 600;
},
{
layerId = "F7E00E3A-158A-422E-8335-F758AC046B2C";
width = 600;
},
{
layerId = "E4E551F6-F8FD-4982-9E15-E7C282900C29";
width = 600;
},
{
layerId = "8CEE01F3-9DE0-4E6E-8013-9406EBA360D1";
width = 600;
},
{
layerId = "4E15560D-BCA3-4DD9-A968-409C9AA0E428";
width = 600;
},
{
layerId = "A5C2AB9C-ADFD-454D-8DF7-F417DB232433";
width = 600;
},
{
layerId = "BD5397A9-1FE6-4514-BE6D-B734FE133BF5";
width = 600;
},
{
layerId = "9F96208C-832B-4808-B438-7D3FEE586D2A";
width = 600;
},
{
layerId = "A86FE5DC-CBCB-41B2-8326-591D5FD18EB9";
width = 600;
},
{
layerId = "9C6A9D34-ABAA-4A0D-9930-BC1F7644D0B6";
width = 600;
},
{
layerId = "4DFDD194-A56F-4F9E-97BA-3297822BC055";
width = 600;
},
{
layerId = "14825B7F-9412-41E2-8CF9-8F44AA640669";
width = 600;
},
{
layerId = "6D95C03C-148A-4E89-A36A-6A79147497B1";
width = 600;
},
{
layerId = "8E325343-FE47-4360-9BB1-1FE512495D76";
width = 600;
},
{
layerId = "BCC53A07-FD2A-4E76-9F5C-642294C4600E";
width = 600;
},
{
layerId = "C1F72B26-F5AA-4F0E-B116-14A9FBD87A6F";
width = 600;
},
{
layerId = "CF821AF9-99F3-46AC-9C1F-60F128DF51F4";
width = 600;
}
);
},
{
color = 8;
glyphname = _shape.10;
lastChange = "2018-11-22 20:45:03 +0000";
layers = (
{
background = {
paths = (
{
closed = 1;
nodes = (
"33 25 OFFCURVE",
"35 27 OFFCURVE",
"35 30 CURVE SMOOTH",
"35 33 OFFCURVE",
"33 35 OFFCURVE",
"30 35 CURVE SMOOTH",
"27 35 OFFCURVE",
"25 33 OFFCURVE",
"25 30 CURVE SMOOTH",
"25 27 OFFCURVE",
"27 25 OFFCURVE",
"30 25 CURVE SMOOTH"
);
}
);
};
layerId = "48ADB338-978D-470D-BA28-092259F64D79";
paths = (
{
closed = 1;
nodes = (
"30 19 OFFCURVE",
"41 30 OFFCURVE",
"30 30 CURVE",
"41 30 OFFCURVE",
"30 41 OFFCURVE",
"30 30 CURVE",
"30 41 OFFCURVE",
"19 30 OFFCURVE",
"30 30 CURVE",
"19 30 OFFCURVE",
"30 19 OFFCURVE",
"30 30 CURVE"
);
}
);
width = 60;
},
{
background = {
paths = (
{
closed = 1;
nodes = (
"33 25 OFFCURVE",
"35 27 OFFCURVE",
"35 30 CURVE SMOOTH",
"35 33 OFFCURVE",
"33 35 OFFCURVE",
"30 35 CURVE SMOOTH",
"27 35 OFFCURVE",
"25 33 OFFCURVE",
"25 30 CURVE SMOOTH",
"25 27 OFFCURVE",
"27 25 OFFCURVE",
"30 25 CURVE SMOOTH"
);
}
);
};
layerId = "631FB97C-DDFD-47C8-A05F-E57C7765765C";
paths = (
{
closed = 1;
nodes = (
"32 27 OFFCURVE",
"33 28 OFFCURVE",
"35 30 CURVE",
"33 32 OFFCURVE",
"32 33 OFFCURVE",
"30 35 CURVE",
"28 33 OFFCURVE",
"27 32 OFFCURVE",
"25 30 CURVE",
"27 28 OFFCURVE",
"28 27 OFFCURVE",
"30 25 CURVE"
);
}
);
width = 60;
},
{
background = {
paths = (
{
closed = 1;
nodes = (
"38 16 OFFCURVE",
"44 22 OFFCURVE",
"44 30 CURVE SMOOTH",
"44 38 OFFCURVE",
"38 44 OFFCURVE",
"30 44 CURVE SMOOTH",
"22 44 OFFCURVE",
"16 38 OFFCURVE",
"16 30 CURVE SMOOTH",
"16 22 OFFCURVE",
"22 16 OFFCURVE",
"30 16 CURVE SMOOTH"
);
}
);
};
layerId = "1979AEBF-ACF3-4293-8280-4EC52756D623";
paths = (
{
closed = 1;
nodes = (
"33 25 OFFCURVE",
"35 27 OFFCURVE",
"35 30 CURVE SMOOTH",
"35 33 OFFCURVE",
"33 35 OFFCURVE",
"30 35 CURVE SMOOTH",
"27 35 OFFCURVE",
"25 33 OFFCURVE",
"25 30 CURVE SMOOTH",
"25 27 OFFCURVE",
"27 25 OFFCURVE",
"30 25 CURVE SMOOTH"
);
}
);
width = 60;
},
{
background = {
paths = (
{
closed = 1;
nodes = (
"33 25 OFFCURVE",
"35 27 OFFCURVE",
"35 30 CURVE SMOOTH",
"35 33 OFFCURVE",
"33 35 OFFCURVE",
"30 35 CURVE SMOOTH",
"27 35 OFFCURVE",
"25 33 OFFCURVE",
"25 30 CURVE SMOOTH",
"25 27 OFFCURVE",
"27 25 OFFCURVE",
"30 25 CURVE SMOOTH"
);
}
);
};
guideLines = (
{
position = "{-12, 30}";
},
{
angle = 90;
position = "{30, 79}";
},
{
position = "{0, 60}";
}
);
layerId = "3E7C7373-894E-465B-B362-7C09A6130116";
paths = (
{
closed = 1;
nodes = (
"30 20 OFFCURVE",
"40 30 OFFCURVE",
"30 30 CURVE",
"40 30 OFFCURVE",
"30 40 OFFCURVE",
"30 30 CURVE",
"30 40 OFFCURVE",
"20 30 OFFCURVE",
"30 30 CURVE",
"20 30 OFFCURVE",
"30 20 OFFCURVE",
"30 30 CURVE"
);
}
);
width = 60;
},
{
background = {
paths = (
{
closed = 1;
nodes = (
"33 25 OFFCURVE",
"35 27 OFFCURVE",
"35 30 CURVE SMOOTH",
"35 33 OFFCURVE",
"33 35 OFFCURVE",
"30 35 CURVE SMOOTH",
"27 35 OFFCURVE",
"25 33 OFFCURVE",
"25 30 CURVE SMOOTH",
"25 27 OFFCURVE",
"27 25 OFFCURVE",
"30 25 CURVE SMOOTH"
);
}
);
};
guideLines = (
{
position = "{-12, 30}";
},
{
angle = 90;
position = "{30, 79}";
},
{
position = "{0, 60}";
}
);
layerId = "51876FD2-FB15-42B1-8983-2C578064692B";
paths = (
{
closed = 1;
nodes = (
"32 28 OFFCURVE",
"35 29 OFFCURVE",
"35 32 CURVE SMOOTH",
"35 36 OFFCURVE",
"30 36 OFFCURVE",
"30 32 CURVE",
"30 36 OFFCURVE",
"25 36 OFFCURVE",
"25 32 CURVE SMOOTH",
"25 29 OFFCURVE",
"28 28 OFFCURVE",
"30 25 CURVE"
);
}
);
width = 60;
},
{
background = {
paths = (
{
closed = 1;
nodes = (
"33 25 OFFCURVE",
"35 27 OFFCURVE",
"35 30 CURVE SMOOTH",
"35 33 OFFCURVE",
"33 35 OFFCURVE",
"30 35 CURVE SMOOTH",
"27 35 OFFCURVE",
"25 33 OFFCURVE",
"25 30 CURVE SMOOTH",
"25 27 OFFCURVE",
"27 25 OFFCURVE",
"30 25 CURVE SMOOTH"
);
}
);
};
layerId = "338DE7A2-67B3-4D26-93B7-9535EBEDDE48";
paths = (
{
closed = 1;
nodes = (
"40 30 OFFCURVE",
"30 40 OFFCURVE",
"30 30 CURVE",
"30 40 OFFCURVE",
"20 30 OFFCURVE",
"30 30 CURVE",
"20 30 OFFCURVE",
"30 20 OFFCURVE",
"30 30 CURVE",
"30 20 OFFCURVE",
"40 30 OFFCURVE",
"30 30 CURVE"
);
}
);
width = 60;
},
{
background = {
paths = (
{
closed = 1;
nodes = (
"33 25 OFFCURVE",
"35 27 OFFCURVE",
"35 30 CURVE SMOOTH",
"35 33 OFFCURVE",
"33 35 OFFCURVE",
"30 35 CURVE SMOOTH",
"27 35 OFFCURVE",
"25 33 OFFCURVE",
"25 30 CURVE SMOOTH",
"25 27 OFFCURVE",
"27 25 OFFCURVE",
"30 25 CURVE SMOOTH"
);
}
);
};
layerId = "AAD68214-DCF7-41E4-9114-14FE146B1BEB";
paths = (
{
closed = 1;
nodes = (
"40 30 OFFCURVE",
"30 40 OFFCURVE",
"30 30 CURVE",
"30 40 OFFCURVE",
"20 30 OFFCURVE",
"30 30 CURVE",
"20 30 OFFCURVE",
"30 20 OFFCURVE",
"30 30 CURVE",
"30 20 OFFCURVE",
"40 30 OFFCURVE",
"30 30 CURVE"
);
}
);
width = 60;
},
{
background = {
paths = (
{
closed = 1;
nodes = (
"33 25 OFFCURVE",
"35 27 OFFCURVE",
"35 30 CURVE SMOOTH",
"35 33 OFFCURVE",
"33 35 OFFCURVE",
"30 35 CURVE SMOOTH",
"27 35 OFFCURVE",
"25 33 OFFCURVE",
"25 30 CURVE SMOOTH",
"25 27 OFFCURVE",
"27 25 OFFCURVE",
"30 25 CURVE SMOOTH"
);
}
);
};
layerId = "731692F0-AA29-4851-B444-6CE3FFE142F7";
paths = (
{
closed = 1;
nodes = (
"40 30 OFFCURVE",
"30 40 OFFCURVE",
"30 30 CURVE",
"30 40 OFFCURVE",
"20 30 OFFCURVE",
"30 30 CURVE",
"20 30 OFFCURVE",
"30 20 OFFCURVE",
"30 30 CURVE",
"30 20 OFFCURVE",
"40 30 OFFCURVE",
"30 30 CURVE"
);
}
);
width = 60;
},
{
layerId = "14BA25F3-C0EE-4CB4-9F98-5DFEB1E18EE7";
width = 600;
},
{
layerId = "603BEC83-C21E-45CC-B62B-D21219333A9E";
width = 600;
},
{
layerId = "1BC44DF8-44A1-4B74-831C-40C40A10F098";
width = 600;
},
{
layerId = "852086DA-8501-469D-AA3F-41FA22DDFBCF";
width = 600;
},
{
layerId = "438D4B4E-3EA7-4A41-8875-80F76BAAB6B3";
width = 600;
},
{
layerId = "2DAF2681-E3BA-4DC5-83D2-7594B55BDC1F";
width = 600;
},
{
layerId = "9520110A-DE13-4414-A7F5-42A172064E5B";
width = 600;
},
{
layerId = "D3FCCDB1-AA10-47A4-A23D-9BF96A588920";
width = 600;
},
{
layerId = "D643C430-56B0-49A8-9E39-8604C95EB74F";
width = 600;
},
{
layerId = "7797199F-D624-4FDD-A36F-0525AE380D0E";
width = 600;
},
{
layerId = "FA6E6620-C52D-4B33-AA81-50D031CD4A6F";
width = 600;
},
{
layerId = "DA51B74E-A0F5-42B5-A2C0-D3D9A70E926B";
width = 600;
},
{
layerId = "011F2706-27C6-45CF-AFED-5303A8B32752";
width = 600;
},
{
layerId = "6EB6CF65-351D-4989-AD9F-DEECEF62225A";
width = 600;
},
{
layerId = "D4E4317C-6609-4A69-A5F7-6DDC3CFB0BD6";
width = 600;
},
{
layerId = "08C62C66-FD01-4260-BAA0-BEE60294F9EF";
width = 600;
},
{
layerId = "C12FEEC6-0181-4EF0-8187-9F5259F16C67";
width = 600;
},
{
layerId = "FCD7E709-3DAF-4187-AB4E-99AB154318F1";
width = 600;
},
{
layerId = "EBE48403-0FCD-44AC-9AB2-0AD3A5E63D9A";
width = 600;
},
{
layerId = "9F07B2B3-7BA7-410C-8914-36619112BBA6";
width = 600;
},
{
layerId = "F7E00E3A-158A-422E-8335-F758AC046B2C";
width = 600;
},
{
layerId = "E4E551F6-F8FD-4982-9E15-E7C282900C29";
width = 600;
},
{
layerId = "8CEE01F3-9DE0-4E6E-8013-9406EBA360D1";
width = 600;
},
{
layerId = "4E15560D-BCA3-4DD9-A968-409C9AA0E428";
width = 600;
},
{
layerId = "A5C2AB9C-ADFD-454D-8DF7-F417DB232433";
width = 600;
},
{
layerId = "BD5397A9-1FE6-4514-BE6D-B734FE133BF5";
width = 600;
},
{
layerId = "9F96208C-832B-4808-B438-7D3FEE586D2A";
width = 600;
},
{
layerId = "A86FE5DC-CBCB-41B2-8326-591D5FD18EB9";
width = 600;
},
{
layerId = "9C6A9D34-ABAA-4A0D-9930-BC1F7644D0B6";
width = 600;
},
{
layerId = "4DFDD194-A56F-4F9E-97BA-3297822BC055";
width = 600;
},
{
layerId = "14825B7F-9412-41E2-8CF9-8F44AA640669";
width = 600;
},
{
layerId = "6D95C03C-148A-4E89-A36A-6A79147497B1";
width = 600;
},
{
layerId = "8E325343-FE47-4360-9BB1-1FE512495D76";
width = 600;
},
{
layerId = "BCC53A07-FD2A-4E76-9F5C-642294C4600E";
width = 600;
},
{
layerId = "C1F72B26-F5AA-4F0E-B116-14A9FBD87A6F";
width = 600;
},
{
layerId = "CF821AF9-99F3-46AC-9C1F-60F128DF51F4";
width = 600;
}
);
},
{
color = 9;
glyphname = _shape.11;
lastChange = "2018-11-22 21:30:40 +0000";
layers = (
{
background = {
paths = (
{
closed = 1;
nodes = (
"33 25 OFFCURVE",
"35 27 OFFCURVE",
"35 30 CURVE SMOOTH",
"35 33 OFFCURVE",
"33 35 OFFCURVE",
"30 35 CURVE SMOOTH",
"27 35 OFFCURVE",
"25 33 OFFCURVE",
"25 30 CURVE SMOOTH",
"25 27 OFFCURVE",
"27 25 OFFCURVE",
"30 25 CURVE SMOOTH"
);
}
);
};
layerId = "48ADB338-978D-470D-BA28-092259F64D79";
paths = (
{
closed = 1;
nodes = (
"70 50 OFFCURVE",
"50 70 OFFCURVE",
"30 90 CURVE",
"10 70 OFFCURVE",
"-10 50 OFFCURVE",
"-30 30 CURVE",
"-10 10 OFFCURVE",
"10 -10 OFFCURVE",
"30 -30 CURVE",
"50 -10 OFFCURVE",
"70 10 OFFCURVE",
"90 30 CURVE"
);
}
);
width = 60;
},
{
background = {
paths = (
{
closed = 1;
nodes = (
"33 25 OFFCURVE",
"35 27 OFFCURVE",
"35 30 CURVE SMOOTH",
"35 33 OFFCURVE",
"33 35 OFFCURVE",
"30 35 CURVE SMOOTH",
"27 35 OFFCURVE",
"25 33 OFFCURVE",
"25 30 CURVE SMOOTH",
"25 27 OFFCURVE",
"27 25 OFFCURVE",
"30 25 CURVE SMOOTH"
);
}
);
};
layerId = "631FB97C-DDFD-47C8-A05F-E57C7765765C";
paths = (
{
closed = 1;
nodes = (
"32 27 OFFCURVE",
"33 28 OFFCURVE",
"35 30 CURVE",
"33 32 OFFCURVE",
"32 33 OFFCURVE",
"30 35 CURVE",
"28 33 OFFCURVE",
"27 32 OFFCURVE",
"25 30 CURVE",
"27 28 OFFCURVE",
"28 27 OFFCURVE",
"30 25 CURVE"
);
}
);
width = 60;
},
{
background = {
paths = (
{
closed = 1;
nodes = (
"38 16 OFFCURVE",
"44 22 OFFCURVE",
"44 30 CURVE SMOOTH",
"44 38 OFFCURVE",
"38 44 OFFCURVE",
"30 44 CURVE SMOOTH",
"22 44 OFFCURVE",
"16 38 OFFCURVE",
"16 30 CURVE SMOOTH",
"16 22 OFFCURVE",
"22 16 OFFCURVE",
"30 16 CURVE SMOOTH"
);
}
);
};
layerId = "1979AEBF-ACF3-4293-8280-4EC52756D623";
paths = (
{
closed = 1;
nodes = (
"33 25 OFFCURVE",
"35 27 OFFCURVE",
"35 30 CURVE SMOOTH",
"35 33 OFFCURVE",
"33 35 OFFCURVE",
"30 35 CURVE SMOOTH",
"27 35 OFFCURVE",
"25 33 OFFCURVE",
"25 30 CURVE SMOOTH",
"25 27 OFFCURVE",
"27 25 OFFCURVE",
"30 25 CURVE SMOOTH"
);
}
);
width = 60;
},
{
background = {
paths = (
{
closed = 1;
nodes = (
"33 25 OFFCURVE",
"35 27 OFFCURVE",
"35 30 CURVE SMOOTH",
"35 33 OFFCURVE",
"33 35 OFFCURVE",
"30 35 CURVE SMOOTH",
"27 35 OFFCURVE",
"25 33 OFFCURVE",
"25 30 CURVE SMOOTH",
"25 27 OFFCURVE",
"27 25 OFFCURVE",
"30 25 CURVE SMOOTH"
);
}
);
};
guideLines = (
{
position = "{-12, 30}";
},
{
angle = 90;
position = "{30, 79}";
},
{
position = "{0, 60}";
}
);
layerId = "3E7C7373-894E-465B-B362-7C09A6130116";
paths = (
{
closed = 1;
nodes = (
"30 20 OFFCURVE",
"40 30 OFFCURVE",
"30 30 CURVE",
"40 30 OFFCURVE",
"30 40 OFFCURVE",
"30 30 CURVE",
"30 40 OFFCURVE",
"20 30 OFFCURVE",
"30 30 CURVE",
"20 30 OFFCURVE",
"30 20 OFFCURVE",
"30 30 CURVE"
);
}
);
width = 60;
},
{
background = {
paths = (
{
closed = 1;
nodes = (
"33 25 OFFCURVE",
"35 27 OFFCURVE",
"35 30 CURVE SMOOTH",
"35 33 OFFCURVE",
"33 35 OFFCURVE",
"30 35 CURVE SMOOTH",
"27 35 OFFCURVE",
"25 33 OFFCURVE",
"25 30 CURVE SMOOTH",
"25 27 OFFCURVE",
"27 25 OFFCURVE",
"30 25 CURVE SMOOTH"
);
}
);
};
guideLines = (
{
position = "{-12, 30}";
},
{
angle = 90;
position = "{30, 79}";
},
{
position = "{0, 60}";
}
);
layerId = "51876FD2-FB15-42B1-8983-2C578064692B";
paths = (
{
closed = 1;
nodes = (
"32 28 OFFCURVE",
"35 29 OFFCURVE",
"35 32 CURVE SMOOTH",
"35 36 OFFCURVE",
"30 36 OFFCURVE",
"30 32 CURVE",
"30 36 OFFCURVE",
"25 36 OFFCURVE",
"25 32 CURVE SMOOTH",
"25 29 OFFCURVE",
"28 28 OFFCURVE",
"30 25 CURVE"
);
}
);
width = 60;
},
{
background = {
paths = (
{
closed = 1;
nodes = (
"33 25 OFFCURVE",
"35 27 OFFCURVE",
"35 30 CURVE SMOOTH",
"35 33 OFFCURVE",
"33 35 OFFCURVE",
"30 35 CURVE SMOOTH",
"27 35 OFFCURVE",
"25 33 OFFCURVE",
"25 30 CURVE SMOOTH",
"25 27 OFFCURVE",
"27 25 OFFCURVE",
"30 25 CURVE SMOOTH"
);
}
);
};
layerId = "338DE7A2-67B3-4D26-93B7-9535EBEDDE48";
paths = (
{
closed = 1;
nodes = (
"50 -10 OFFCURVE",
"70 10 OFFCURVE",
"90 30 CURVE",
"70 50 OFFCURVE",
"50 70 OFFCURVE",
"30 90 CURVE",
"10 70 OFFCURVE",
"-10 50 OFFCURVE",
"-30 30 CURVE",
"-10 10 OFFCURVE",
"10 -10 OFFCURVE",
"30 -30 CURVE"
);
}
);
width = 60;
},
{
background = {
paths = (
{
closed = 1;
nodes = (
"33 25 OFFCURVE",
"35 27 OFFCURVE",
"35 30 CURVE SMOOTH",
"35 33 OFFCURVE",
"33 35 OFFCURVE",
"30 35 CURVE SMOOTH",
"27 35 OFFCURVE",
"25 33 OFFCURVE",
"25 30 CURVE SMOOTH",
"25 27 OFFCURVE",
"27 25 OFFCURVE",
"30 25 CURVE SMOOTH"
);
}
);
};
layerId = "AAD68214-DCF7-41E4-9114-14FE146B1BEB";
paths = (
{
closed = 1;
nodes = (
"50 -10 OFFCURVE",
"70 10 OFFCURVE",
"90 30 CURVE",
"70 50 OFFCURVE",
"50 70 OFFCURVE",
"30 90 CURVE",
"10 70 OFFCURVE",
"-10 50 OFFCURVE",
"-30 30 CURVE",
"-10 10 OFFCURVE",
"10 -10 OFFCURVE",
"30 -30 CURVE"
);
}
);
width = 60;
},
{
background = {
paths = (
{
closed = 1;
nodes = (
"33 25 OFFCURVE",
"35 27 OFFCURVE",
"35 30 CURVE SMOOTH",
"35 33 OFFCURVE",
"33 35 OFFCURVE",
"30 35 CURVE SMOOTH",
"27 35 OFFCURVE",
"25 33 OFFCURVE",
"25 30 CURVE SMOOTH",
"25 27 OFFCURVE",
"27 25 OFFCURVE",
"30 25 CURVE SMOOTH"
);
}
);
};
layerId = "731692F0-AA29-4851-B444-6CE3FFE142F7";
paths = (
{
closed = 1;
nodes = (
"50 -10 OFFCURVE",
"70 10 OFFCURVE",
"90 30 CURVE",
"70 50 OFFCURVE",
"50 70 OFFCURVE",
"30 90 CURVE",
"10 70 OFFCURVE",
"-10 50 OFFCURVE",
"-30 30 CURVE",
"-10 10 OFFCURVE",
"10 -10 OFFCURVE",
"30 -30 CURVE"
);
}
);
width = 60;
},
{
layerId = "603BEC83-C21E-45CC-B62B-D21219333A9E";
width = 600;
},
{
layerId = "1BC44DF8-44A1-4B74-831C-40C40A10F098";
width = 600;
},
{
layerId = "852086DA-8501-469D-AA3F-41FA22DDFBCF";
width = 600;
},
{
layerId = "438D4B4E-3EA7-4A41-8875-80F76BAAB6B3";
width = 600;
},
{
layerId = "14BA25F3-C0EE-4CB4-9F98-5DFEB1E18EE7";
width = 600;
},
{
layerId = "2DAF2681-E3BA-4DC5-83D2-7594B55BDC1F";
width = 600;
},
{
layerId = "9520110A-DE13-4414-A7F5-42A172064E5B";
width = 600;
},
{
layerId = "D3FCCDB1-AA10-47A4-A23D-9BF96A588920";
width = 600;
},
{
layerId = "D643C430-56B0-49A8-9E39-8604C95EB74F";
width = 600;
},
{
layerId = "7797199F-D624-4FDD-A36F-0525AE380D0E";
width = 600;
},
{
layerId = "FA6E6620-C52D-4B33-AA81-50D031CD4A6F";
width = 600;
},
{
layerId = "DA51B74E-A0F5-42B5-A2C0-D3D9A70E926B";
width = 600;
},
{
layerId = "011F2706-27C6-45CF-AFED-5303A8B32752";
width = 600;
},
{
layerId = "6EB6CF65-351D-4989-AD9F-DEECEF62225A";
width = 600;
},
{
layerId = "D4E4317C-6609-4A69-A5F7-6DDC3CFB0BD6";
width = 600;
},
{
layerId = "08C62C66-FD01-4260-BAA0-BEE60294F9EF";
width = 600;
},
{
layerId = "C12FEEC6-0181-4EF0-8187-9F5259F16C67";
width = 600;
},
{
layerId = "FCD7E709-3DAF-4187-AB4E-99AB154318F1";
width = 600;
},
{
layerId = "EBE48403-0FCD-44AC-9AB2-0AD3A5E63D9A";
width = 600;
},
{
layerId = "9F07B2B3-7BA7-410C-8914-36619112BBA6";
width = 600;
},
{
layerId = "F7E00E3A-158A-422E-8335-F758AC046B2C";
width = 600;
},
{
layerId = "E4E551F6-F8FD-4982-9E15-E7C282900C29";
width = 600;
},
{
layerId = "8CEE01F3-9DE0-4E6E-8013-9406EBA360D1";
width = 600;
},
{
layerId = "4E15560D-BCA3-4DD9-A968-409C9AA0E428";
width = 600;
},
{
layerId = "A5C2AB9C-ADFD-454D-8DF7-F417DB232433";
width = 600;
},
{
layerId = "BD5397A9-1FE6-4514-BE6D-B734FE133BF5";
width = 600;
},
{
layerId = "9F96208C-832B-4808-B438-7D3FEE586D2A";
width = 600;
},
{
layerId = "A86FE5DC-CBCB-41B2-8326-591D5FD18EB9";
width = 600;
},
{
layerId = "9C6A9D34-ABAA-4A0D-9930-BC1F7644D0B6";
width = 600;
},
{
layerId = "4DFDD194-A56F-4F9E-97BA-3297822BC055";
width = 600;
},
{
layerId = "14825B7F-9412-41E2-8CF9-8F44AA640669";
width = 600;
},
{
layerId = "6D95C03C-148A-4E89-A36A-6A79147497B1";
width = 600;
},
{
layerId = "8E325343-FE47-4360-9BB1-1FE512495D76";
width = 600;
},
{
layerId = "BCC53A07-FD2A-4E76-9F5C-642294C4600E";
width = 600;
},
{
layerId = "C1F72B26-F5AA-4F0E-B116-14A9FBD87A6F";
width = 600;
},
{
layerId = "CF821AF9-99F3-46AC-9C1F-60F128DF51F4";
width = 600;
}
);
},
{
color = 9;
glyphname = _shape.12;
lastChange = "2018-11-22 20:45:03 +0000";
layers = (
{
background = {
paths = (
{
closed = 1;
nodes = (
"32 25 OFFCURVE",
"32 25 OFFCURVE",
"33 25 CURVE",
"33 25 OFFCURVE",
"29 35 OFFCURVE",
"29 35 CURVE",
"29 35 OFFCURVE",
"29 35 OFFCURVE",
"27 35 CURVE",
"27 35 OFFCURVE",
"31 25 OFFCURVE",
"31 25 CURVE"
);
}
);
};
layerId = "48ADB338-978D-470D-BA28-092259F64D79";
paths = (
{
closed = 1;
nodes = (
"83 -10 OFFCURVE",
"25 90 OFFCURVE",
"25 90 CURVE",
"25 90 OFFCURVE",
"-35 90 OFFCURVE",
"-35 90 CURVE",
"-35 90 OFFCURVE",
"35 -30 OFFCURVE",
"35 -30 CURVE",
"35 -30 OFFCURVE",
"85 -30 OFFCURVE",
"95 -30 CURVE"
);
}
);
width = 60;
},
{
background = {
paths = (
{
closed = 1;
nodes = (
"33 25 OFFCURVE",
"35 27 OFFCURVE",
"35 30 CURVE SMOOTH",
"35 33 OFFCURVE",
"33 35 OFFCURVE",
"30 35 CURVE SMOOTH",
"27 35 OFFCURVE",
"25 33 OFFCURVE",
"25 30 CURVE SMOOTH",
"25 27 OFFCURVE",
"27 25 OFFCURVE",
"30 25 CURVE SMOOTH"
);
}
);
};
layerId = "631FB97C-DDFD-47C8-A05F-E57C7765765C";
paths = (
{
closed = 1;
nodes = (
"32 27 OFFCURVE",
"33 28 OFFCURVE",
"35 30 CURVE",
"33 32 OFFCURVE",
"32 33 OFFCURVE",
"30 35 CURVE",
"28 33 OFFCURVE",
"27 32 OFFCURVE",
"25 30 CURVE",
"27 28 OFFCURVE",
"28 27 OFFCURVE",
"30 25 CURVE"
);
}
);
width = 60;
},
{
background = {
paths = (
{
closed = 1;
nodes = (
"38 16 OFFCURVE",
"44 22 OFFCURVE",
"44 30 CURVE SMOOTH",
"44 38 OFFCURVE",
"38 44 OFFCURVE",
"30 44 CURVE SMOOTH",
"22 44 OFFCURVE",
"16 38 OFFCURVE",
"16 30 CURVE SMOOTH",
"16 22 OFFCURVE",
"22 16 OFFCURVE",
"30 16 CURVE SMOOTH"
);
}
);
};
layerId = "1979AEBF-ACF3-4293-8280-4EC52756D623";
paths = (
{
closed = 1;
nodes = (
"33 25 OFFCURVE",
"35 27 OFFCURVE",
"35 30 CURVE SMOOTH",
"35 33 OFFCURVE",
"33 35 OFFCURVE",
"30 35 CURVE SMOOTH",
"27 35 OFFCURVE",
"25 33 OFFCURVE",
"25 30 CURVE SMOOTH",
"25 27 OFFCURVE",
"27 25 OFFCURVE",
"30 25 CURVE SMOOTH"
);
}
);
width = 60;
},
{
background = {
paths = (
{
closed = 1;
nodes = (
"33 25 OFFCURVE",
"35 27 OFFCURVE",
"35 30 CURVE SMOOTH",
"35 33 OFFCURVE",
"33 35 OFFCURVE",
"30 35 CURVE SMOOTH",
"27 35 OFFCURVE",
"25 33 OFFCURVE",
"25 30 CURVE SMOOTH",
"25 27 OFFCURVE",
"27 25 OFFCURVE",
"30 25 CURVE SMOOTH"
);
}
);
};
guideLines = (
{
position = "{-12, 30}";
},
{
angle = 90;
position = "{30, 79}";
},
{
position = "{0, 60}";
}
);
layerId = "3E7C7373-894E-465B-B362-7C09A6130116";
paths = (
{
closed = 1;
nodes = (
"30 20 OFFCURVE",
"40 30 OFFCURVE",
"30 30 CURVE",
"40 30 OFFCURVE",
"30 40 OFFCURVE",
"30 30 CURVE",
"30 40 OFFCURVE",
"20 30 OFFCURVE",
"30 30 CURVE",
"20 30 OFFCURVE",
"30 20 OFFCURVE",
"30 30 CURVE"
);
}
);
width = 60;
},
{
background = {
paths = (
{
closed = 1;
nodes = (
"33 25 OFFCURVE",
"35 27 OFFCURVE",
"35 30 CURVE SMOOTH",
"35 33 OFFCURVE",
"33 35 OFFCURVE",
"30 35 CURVE SMOOTH",
"27 35 OFFCURVE",
"25 33 OFFCURVE",
"25 30 CURVE SMOOTH",
"25 27 OFFCURVE",
"27 25 OFFCURVE",
"30 25 CURVE SMOOTH"
);
}
);
};
guideLines = (
{
position = "{-12, 30}";
},
{
angle = 90;
position = "{30, 79}";
},
{
position = "{0, 60}";
}
);
layerId = "51876FD2-FB15-42B1-8983-2C578064692B";
paths = (
{
closed = 1;
nodes = (
"32 28 OFFCURVE",
"35 29 OFFCURVE",
"35 32 CURVE SMOOTH",
"35 36 OFFCURVE",
"30 36 OFFCURVE",
"30 32 CURVE",
"30 36 OFFCURVE",
"25 36 OFFCURVE",
"25 32 CURVE SMOOTH",
"25 29 OFFCURVE",
"28 28 OFFCURVE",
"30 25 CURVE"
);
}
);
width = 60;
},
{
background = {
paths = (
{
closed = 1;
nodes = (
"32 25 OFFCURVE",
"32 25 OFFCURVE",
"33 25 CURVE",
"33 25 OFFCURVE",
"29 35 OFFCURVE",
"29 35 CURVE",
"29 35 OFFCURVE",
"29 35 OFFCURVE",
"27 35 CURVE",
"27 35 OFFCURVE",
"31 25 OFFCURVE",
"31 25 CURVE"
);
}
);
};
layerId = "338DE7A2-67B3-4D26-93B7-9535EBEDDE48";
paths = (
{
closed = 1;
nodes = (
"20 -30 OFFCURVE",
"80 -30 OFFCURVE",
"80 -30 CURVE",
"80 -30 OFFCURVE",
"40 90 OFFCURVE",
"40 90 CURVE",
"40 90 OFFCURVE",
"-20 90 OFFCURVE",
"-20 90 CURVE",
"-20 90 OFFCURVE",
"20 -30 OFFCURVE",
"20 -30 CURVE"
);
}
);
width = 60;
},
{
background = {
paths = (
{
closed = 1;
nodes = (
"32 25 OFFCURVE",
"32 25 OFFCURVE",
"33 25 CURVE",
"33 25 OFFCURVE",
"29 35 OFFCURVE",
"29 35 CURVE",
"29 35 OFFCURVE",
"29 35 OFFCURVE",
"27 35 CURVE",
"27 35 OFFCURVE",
"31 25 OFFCURVE",
"31 25 CURVE"
);
}
);
};
layerId = "AAD68214-DCF7-41E4-9114-14FE146B1BEB";
paths = (
{
closed = 1;
nodes = (
"20 -30 OFFCURVE",
"80 -30 OFFCURVE",
"80 -30 CURVE",
"80 -30 OFFCURVE",
"40 90 OFFCURVE",
"40 90 CURVE",
"40 90 OFFCURVE",
"-20 90 OFFCURVE",
"-20 90 CURVE",
"-20 90 OFFCURVE",
"20 -30 OFFCURVE",
"20 -30 CURVE"
);
}
);
width = 60;
},
{
background = {
paths = (
{
closed = 1;
nodes = (
"32 25 OFFCURVE",
"32 25 OFFCURVE",
"33 25 CURVE",
"33 25 OFFCURVE",
"29 35 OFFCURVE",
"29 35 CURVE",
"29 35 OFFCURVE",
"29 35 OFFCURVE",
"27 35 CURVE",
"27 35 OFFCURVE",
"31 25 OFFCURVE",
"31 25 CURVE"
);
}
);
};
layerId = "731692F0-AA29-4851-B444-6CE3FFE142F7";
paths = (
{
closed = 1;
nodes = (
"20 -30 OFFCURVE",
"80 -30 OFFCURVE",
"80 -30 CURVE",
"80 -30 OFFCURVE",
"40 90 OFFCURVE",
"40 90 CURVE",
"40 90 OFFCURVE",
"-20 90 OFFCURVE",
"-20 90 CURVE",
"-20 90 OFFCURVE",
"20 -30 OFFCURVE",
"20 -30 CURVE"
);
}
);
width = 60;
},
{
layerId = "2DAF2681-E3BA-4DC5-83D2-7594B55BDC1F";
width = 600;
},
{
layerId = "9520110A-DE13-4414-A7F5-42A172064E5B";
width = 600;
},
{
layerId = "603BEC83-C21E-45CC-B62B-D21219333A9E";
width = 600;
},
{
layerId = "1BC44DF8-44A1-4B74-831C-40C40A10F098";
width = 600;
},
{
layerId = "8E325343-FE47-4360-9BB1-1FE512495D76";
width = 600;
},
{
layerId = "852086DA-8501-469D-AA3F-41FA22DDFBCF";
width = 600;
},
{
layerId = "438D4B4E-3EA7-4A41-8875-80F76BAAB6B3";
width = 600;
},
{
layerId = "14BA25F3-C0EE-4CB4-9F98-5DFEB1E18EE7";
width = 600;
},
{
layerId = "D3FCCDB1-AA10-47A4-A23D-9BF96A588920";
width = 600;
},
{
layerId = "D643C430-56B0-49A8-9E39-8604C95EB74F";
width = 600;
},
{
layerId = "7797199F-D624-4FDD-A36F-0525AE380D0E";
width = 600;
},
{
layerId = "FA6E6620-C52D-4B33-AA81-50D031CD4A6F";
width = 600;
},
{
layerId = "BCC53A07-FD2A-4E76-9F5C-642294C4600E";
width = 600;
},
{
layerId = "DA51B74E-A0F5-42B5-A2C0-D3D9A70E926B";
width = 600;
},
{
layerId = "011F2706-27C6-45CF-AFED-5303A8B32752";
width = 600;
},
{
layerId = "6EB6CF65-351D-4989-AD9F-DEECEF62225A";
width = 600;
},
{
layerId = "D4E4317C-6609-4A69-A5F7-6DDC3CFB0BD6";
width = 600;
},
{
layerId = "08C62C66-FD01-4260-BAA0-BEE60294F9EF";
width = 600;
},
{
layerId = "C12FEEC6-0181-4EF0-8187-9F5259F16C67";
width = 600;
},
{
layerId = "FCD7E709-3DAF-4187-AB4E-99AB154318F1";
width = 600;
},
{
layerId = "EBE48403-0FCD-44AC-9AB2-0AD3A5E63D9A";
width = 600;
},
{
layerId = "9F07B2B3-7BA7-410C-8914-36619112BBA6";
width = 600;
},
{
layerId = "CF821AF9-99F3-46AC-9C1F-60F128DF51F4";
width = 600;
},
{
layerId = "F7E00E3A-158A-422E-8335-F758AC046B2C";
width = 600;
},
{
layerId = "E4E551F6-F8FD-4982-9E15-E7C282900C29";
width = 600;
},
{
layerId = "8CEE01F3-9DE0-4E6E-8013-9406EBA360D1";
width = 600;
},
{
layerId = "4E15560D-BCA3-4DD9-A968-409C9AA0E428";
width = 600;
},
{
layerId = "A5C2AB9C-ADFD-454D-8DF7-F417DB232433";
width = 600;
},
{
layerId = "BD5397A9-1FE6-4514-BE6D-B734FE133BF5";
width = 600;
},
{
layerId = "9F96208C-832B-4808-B438-7D3FEE586D2A";
width = 600;
},
{
layerId = "A86FE5DC-CBCB-41B2-8326-591D5FD18EB9";
width = 600;
},
{
layerId = "9C6A9D34-ABAA-4A0D-9930-BC1F7644D0B6";
width = 600;
},
{
layerId = "C1F72B26-F5AA-4F0E-B116-14A9FBD87A6F";
width = 600;
},
{
layerId = "4DFDD194-A56F-4F9E-97BA-3297822BC055";
width = 600;
},
{
layerId = "14825B7F-9412-41E2-8CF9-8F44AA640669";
width = 600;
},
{
layerId = "6D95C03C-148A-4E89-A36A-6A79147497B1";
width = 600;
}
);
},
{
color = 9;
glyphname = _shape.13;
lastChange = "2018-11-22 20:36:13 +0000";
layers = (
{
background = {
paths = (
{
closed = 1;
nodes = (
"28 25 OFFCURVE",
"28 25 OFFCURVE",
"29 25 CURVE",
"29 25 OFFCURVE",
"33 35 OFFCURVE",
"33 35 CURVE",
"31 35 OFFCURVE",
"31 35 OFFCURVE",
"31 35 CURVE",
"31 35 OFFCURVE",
"27 25 OFFCURVE",
"27 25 CURVE"
);
}
);
};
layerId = "48ADB338-978D-470D-BA28-092259F64D79";
paths = (
{
closed = 1;
nodes = (
"37 -10 OFFCURVE",
"95 90 OFFCURVE",
"95 90 CURVE",
"95 90 OFFCURVE",
"35 90 OFFCURVE",
"35 90 CURVE",
"35 90 OFFCURVE",
"-35 -30 OFFCURVE",
"-35 -30 CURVE",
"-35 -30 OFFCURVE",
"15 -30 OFFCURVE",
"25 -30 CURVE"
);
}
);
width = 60;
},
{
background = {
paths = (
{
closed = 1;
nodes = (
"28 25 OFFCURVE",
"28 25 OFFCURVE",
"29 25 CURVE",
"29 25 OFFCURVE",
"33 35 OFFCURVE",
"33 35 CURVE",
"31 35 OFFCURVE",
"31 35 OFFCURVE",
"31 35 CURVE",
"31 35 OFFCURVE",
"27 25 OFFCURVE",
"27 25 CURVE"
);
}
);
};
layerId = "338DE7A2-67B3-4D26-93B7-9535EBEDDE48";
paths = (
{
closed = 1;
nodes = (
"-20 -30 OFFCURVE",
"40 -30 OFFCURVE",
"40 -30 CURVE",
"40 -30 OFFCURVE",
"80 90 OFFCURVE",
"80 90 CURVE",
"80 90 OFFCURVE",
"20 90 OFFCURVE",
"20 90 CURVE",
"20 90 OFFCURVE",
"-20 -30 OFFCURVE",
"-20 -30 CURVE"
);
}
);
width = 60;
},
{
background = {
paths = (
{
closed = 1;
nodes = (
"28 25 OFFCURVE",
"28 25 OFFCURVE",
"29 25 CURVE",
"29 25 OFFCURVE",
"33 35 OFFCURVE",
"33 35 CURVE",
"31 35 OFFCURVE",
"31 35 OFFCURVE",
"31 35 CURVE",
"31 35 OFFCURVE",
"27 25 OFFCURVE",
"27 25 CURVE"
);
}
);
};
layerId = "AAD68214-DCF7-41E4-9114-14FE146B1BEB";
paths = (
{
closed = 1;
nodes = (
"-20 -30 OFFCURVE",
"40 -30 OFFCURVE",
"40 -30 CURVE",
"40 -30 OFFCURVE",
"80 90 OFFCURVE",
"80 90 CURVE",
"80 90 OFFCURVE",
"20 90 OFFCURVE",
"20 90 CURVE",
"20 90 OFFCURVE",
"-20 -30 OFFCURVE",
"-20 -30 CURVE"
);
}
);
width = 60;
},
{
background = {
paths = (
{
closed = 1;
nodes = (
"28 25 OFFCURVE",
"28 25 OFFCURVE",
"29 25 CURVE",
"29 25 OFFCURVE",
"33 35 OFFCURVE",
"33 35 CURVE",
"31 35 OFFCURVE",
"31 35 OFFCURVE",
"31 35 CURVE",
"31 35 OFFCURVE",
"27 25 OFFCURVE",
"27 25 CURVE"
);
}
);
};
layerId = "731692F0-AA29-4851-B444-6CE3FFE142F7";
paths = (
{
closed = 1;
nodes = (
"-20 -30 OFFCURVE",
"40 -30 OFFCURVE",
"40 -30 CURVE",
"40 -30 OFFCURVE",
"80 90 OFFCURVE",
"80 90 CURVE",
"80 90 OFFCURVE",
"20 90 OFFCURVE",
"20 90 CURVE",
"20 90 OFFCURVE",
"-20 -30 OFFCURVE",
"-20 -30 CURVE"
);
}
);
width = 60;
},
{
layerId = "9520110A-DE13-4414-A7F5-42A172064E5B";
width = 600;
},
{
layerId = "D3FCCDB1-AA10-47A4-A23D-9BF96A588920";
width = 600;
},
{
layerId = "631FB97C-DDFD-47C8-A05F-E57C7765765C";
width = 600;
},
{
layerId = "1979AEBF-ACF3-4293-8280-4EC52756D623";
width = 600;
},
{
layerId = "51876FD2-FB15-42B1-8983-2C578064692B";
width = 600;
},
{
layerId = "3E7C7373-894E-465B-B362-7C09A6130116";
width = 600;
},
{
layerId = "603BEC83-C21E-45CC-B62B-D21219333A9E";
width = 600;
},
{
layerId = "1BC44DF8-44A1-4B74-831C-40C40A10F098";
width = 600;
},
{
layerId = "8E325343-FE47-4360-9BB1-1FE512495D76";
width = 600;
},
{
layerId = "852086DA-8501-469D-AA3F-41FA22DDFBCF";
width = 600;
},
{
layerId = "438D4B4E-3EA7-4A41-8875-80F76BAAB6B3";
width = 600;
},
{
layerId = "14BA25F3-C0EE-4CB4-9F98-5DFEB1E18EE7";
width = 600;
},
{
layerId = "2DAF2681-E3BA-4DC5-83D2-7594B55BDC1F";
width = 600;
},
{
layerId = "D643C430-56B0-49A8-9E39-8604C95EB74F";
width = 600;
},
{
layerId = "7797199F-D624-4FDD-A36F-0525AE380D0E";
width = 600;
},
{
layerId = "FA6E6620-C52D-4B33-AA81-50D031CD4A6F";
width = 600;
},
{
layerId = "BCC53A07-FD2A-4E76-9F5C-642294C4600E";
width = 600;
},
{
layerId = "DA51B74E-A0F5-42B5-A2C0-D3D9A70E926B";
width = 600;
},
{
layerId = "011F2706-27C6-45CF-AFED-5303A8B32752";
width = 600;
},
{
layerId = "6EB6CF65-351D-4989-AD9F-DEECEF62225A";
width = 600;
},
{
layerId = "D4E4317C-6609-4A69-A5F7-6DDC3CFB0BD6";
width = 600;
},
{
layerId = "08C62C66-FD01-4260-BAA0-BEE60294F9EF";
width = 600;
},
{
layerId = "C12FEEC6-0181-4EF0-8187-9F5259F16C67";
width = 600;
},
{
layerId = "FCD7E709-3DAF-4187-AB4E-99AB154318F1";
width = 600;
},
{
layerId = "EBE48403-0FCD-44AC-9AB2-0AD3A5E63D9A";
width = 600;
},
{
layerId = "9F07B2B3-7BA7-410C-8914-36619112BBA6";
width = 600;
},
{
layerId = "CF821AF9-99F3-46AC-9C1F-60F128DF51F4";
width = 600;
},
{
layerId = "F7E00E3A-158A-422E-8335-F758AC046B2C";
width = 600;
},
{
layerId = "E4E551F6-F8FD-4982-9E15-E7C282900C29";
width = 600;
},
{
layerId = "8CEE01F3-9DE0-4E6E-8013-9406EBA360D1";
width = 600;
},
{
layerId = "4E15560D-BCA3-4DD9-A968-409C9AA0E428";
width = 600;
},
{
layerId = "A5C2AB9C-ADFD-454D-8DF7-F417DB232433";
width = 600;
},
{
layerId = "BD5397A9-1FE6-4514-BE6D-B734FE133BF5";
width = 600;
},
{
layerId = "9F96208C-832B-4808-B438-7D3FEE586D2A";
width = 600;
},
{
layerId = "A86FE5DC-CBCB-41B2-8326-591D5FD18EB9";
width = 600;
},
{
layerId = "9C6A9D34-ABAA-4A0D-9930-BC1F7644D0B6";
width = 600;
},
{
layerId = "C1F72B26-F5AA-4F0E-B116-14A9FBD87A6F";
width = 600;
},
{
layerId = "4DFDD194-A56F-4F9E-97BA-3297822BC055";
width = 600;
},
{
layerId = "14825B7F-9412-41E2-8CF9-8F44AA640669";
width = 600;
},
{
layerId = "6D95C03C-148A-4E89-A36A-6A79147497B1";
width = 600;
}
);
},
{
color = 9;
glyphname = _shape.14;
lastChange = "2018-11-22 20:35:51 +0000";
layers = (
{
layerId = "48ADB338-978D-470D-BA28-092259F64D79";
paths = (
{
closed = 1;
nodes = (
"-10 0 OFFCURVE",
"90 0 OFFCURVE",
"90 0 CURVE",
"90 0 OFFCURVE",
"90 60 OFFCURVE",
"90 60 CURVE",
"90 60 OFFCURVE",
"-30 60 OFFCURVE",
"-30 60 CURVE",
"-30 60 OFFCURVE",
"-30 10 OFFCURVE",
"-30 0 CURVE"
);
}
);
width = 60;
},
{
layerId = "338DE7A2-67B3-4D26-93B7-9535EBEDDE48";
paths = (
{
closed = 1;
nodes = (
"0 -30 OFFCURVE",
"60 -30 OFFCURVE",
"60 -30 CURVE",
"60 -30 OFFCURVE",
"60 90 OFFCURVE",
"60 90 CURVE",
"60 90 OFFCURVE",
"0 90 OFFCURVE",
"0 90 CURVE",
"0 90 OFFCURVE",
"0 -30 OFFCURVE",
"0 -30 CURVE"
);
}
);
width = 60;
},
{
layerId = "AAD68214-DCF7-41E4-9114-14FE146B1BEB";
paths = (
{
closed = 1;
nodes = (
"0 -30 OFFCURVE",
"60 -30 OFFCURVE",
"60 -30 CURVE",
"60 -30 OFFCURVE",
"60 90 OFFCURVE",
"60 90 CURVE",
"60 90 OFFCURVE",
"0 90 OFFCURVE",
"0 90 CURVE",
"0 90 OFFCURVE",
"0 -30 OFFCURVE",
"0 -30 CURVE"
);
}
);
width = 60;
},
{
layerId = "731692F0-AA29-4851-B444-6CE3FFE142F7";
paths = (
{
closed = 1;
nodes = (
"0 -30 OFFCURVE",
"60 -30 OFFCURVE",
"60 -30 CURVE",
"60 -30 OFFCURVE",
"60 90 OFFCURVE",
"60 90 CURVE",
"60 90 OFFCURVE",
"0 90 OFFCURVE",
"0 90 CURVE",
"0 90 OFFCURVE",
"0 -30 OFFCURVE",
"0 -30 CURVE"
);
}
);
width = 60;
},
{
layerId = "D3FCCDB1-AA10-47A4-A23D-9BF96A588920";
width = 600;
},
{
layerId = "D643C430-56B0-49A8-9E39-8604C95EB74F";
width = 600;
},
{
layerId = "631FB97C-DDFD-47C8-A05F-E57C7765765C";
width = 600;
},
{
layerId = "1979AEBF-ACF3-4293-8280-4EC52756D623";
width = 600;
},
{
layerId = "51876FD2-FB15-42B1-8983-2C578064692B";
width = 600;
},
{
layerId = "3E7C7373-894E-465B-B362-7C09A6130116";
width = 600;
},
{
layerId = "603BEC83-C21E-45CC-B62B-D21219333A9E";
width = 600;
},
{
layerId = "1BC44DF8-44A1-4B74-831C-40C40A10F098";
width = 600;
},
{
layerId = "8E325343-FE47-4360-9BB1-1FE512495D76";
width = 600;
},
{
layerId = "852086DA-8501-469D-AA3F-41FA22DDFBCF";
width = 600;
},
{
layerId = "438D4B4E-3EA7-4A41-8875-80F76BAAB6B3";
width = 600;
},
{
layerId = "14BA25F3-C0EE-4CB4-9F98-5DFEB1E18EE7";
width = 600;
},
{
layerId = "2DAF2681-E3BA-4DC5-83D2-7594B55BDC1F";
width = 600;
},
{
layerId = "9520110A-DE13-4414-A7F5-42A172064E5B";
width = 600;
},
{
layerId = "7797199F-D624-4FDD-A36F-0525AE380D0E";
width = 600;
},
{
layerId = "FA6E6620-C52D-4B33-AA81-50D031CD4A6F";
width = 600;
},
{
layerId = "BCC53A07-FD2A-4E76-9F5C-642294C4600E";
width = 600;
},
{
layerId = "DA51B74E-A0F5-42B5-A2C0-D3D9A70E926B";
width = 600;
},
{
layerId = "011F2706-27C6-45CF-AFED-5303A8B32752";
width = 600;
},
{
layerId = "6EB6CF65-351D-4989-AD9F-DEECEF62225A";
width = 600;
},
{
layerId = "D4E4317C-6609-4A69-A5F7-6DDC3CFB0BD6";
width = 600;
},
{
layerId = "08C62C66-FD01-4260-BAA0-BEE60294F9EF";
width = 600;
},
{
layerId = "C12FEEC6-0181-4EF0-8187-9F5259F16C67";
width = 600;
},
{
layerId = "FCD7E709-3DAF-4187-AB4E-99AB154318F1";
width = 600;
},
{
layerId = "EBE48403-0FCD-44AC-9AB2-0AD3A5E63D9A";
width = 600;
},
{
layerId = "9F07B2B3-7BA7-410C-8914-36619112BBA6";
width = 600;
},
{
layerId = "CF821AF9-99F3-46AC-9C1F-60F128DF51F4";
width = 600;
},
{
layerId = "F7E00E3A-158A-422E-8335-F758AC046B2C";
width = 600;
},
{
layerId = "E4E551F6-F8FD-4982-9E15-E7C282900C29";
width = 600;
},
{
layerId = "8CEE01F3-9DE0-4E6E-8013-9406EBA360D1";
width = 600;
},
{
layerId = "4E15560D-BCA3-4DD9-A968-409C9AA0E428";
width = 600;
},
{
layerId = "A5C2AB9C-ADFD-454D-8DF7-F417DB232433";
width = 600;
},
{
layerId = "BD5397A9-1FE6-4514-BE6D-B734FE133BF5";
width = 600;
},
{
layerId = "9F96208C-832B-4808-B438-7D3FEE586D2A";
width = 600;
},
{
layerId = "A86FE5DC-CBCB-41B2-8326-591D5FD18EB9";
width = 600;
},
{
layerId = "9C6A9D34-ABAA-4A0D-9930-BC1F7644D0B6";
width = 600;
},
{
layerId = "C1F72B26-F5AA-4F0E-B116-14A9FBD87A6F";
width = 600;
},
{
layerId = "4DFDD194-A56F-4F9E-97BA-3297822BC055";
width = 600;
},
{
layerId = "14825B7F-9412-41E2-8CF9-8F44AA640669";
width = 600;
},
{
layerId = "6D95C03C-148A-4E89-A36A-6A79147497B1";
width = 600;
}
);
},
{
color = 9;
glyphname = _shape.15;
lastChange = "2018-11-21 17:26:16 +0000";
layers = (
{
layerId = "48ADB338-978D-470D-BA28-092259F64D79";
paths = (
{
closed = 1;
nodes = (
"10 -30 OFFCURVE",
"50 -30 OFFCURVE",
"90 -30 CURVE",
"90 10 OFFCURVE",
"90 50 OFFCURVE",
"90 90 CURVE",
"50 90 OFFCURVE",
"10 90 OFFCURVE",
"-30 90 CURVE",
"-30 50 OFFCURVE",
"-30 10 OFFCURVE",
"-30 -30 CURVE"
);
}
);
width = 60;
},
{
layerId = "338DE7A2-67B3-4D26-93B7-9535EBEDDE48";
paths = (
{
closed = 1;
nodes = (
"10 -30 OFFCURVE",
"50 -30 OFFCURVE",
"90 -30 CURVE",
"90 10 OFFCURVE",
"90 50 OFFCURVE",
"90 90 CURVE",
"50 90 OFFCURVE",
"10 90 OFFCURVE",
"-30 90 CURVE",
"-30 50 OFFCURVE",
"-30 10 OFFCURVE",
"-30 -30 CURVE"
);
}
);
width = 60;
},
{
layerId = "AAD68214-DCF7-41E4-9114-14FE146B1BEB";
paths = (
{
closed = 1;
nodes = (
"10 -30 OFFCURVE",
"50 -30 OFFCURVE",
"90 -30 CURVE",
"90 10 OFFCURVE",
"90 50 OFFCURVE",
"90 90 CURVE",
"50 90 OFFCURVE",
"10 90 OFFCURVE",
"-30 90 CURVE",
"-30 50 OFFCURVE",
"-30 10 OFFCURVE",
"-30 -30 CURVE"
);
}
);
width = 60;
},
{
layerId = "731692F0-AA29-4851-B444-6CE3FFE142F7";
paths = (
{
closed = 1;
nodes = (
"10 -30 OFFCURVE",
"50 -30 OFFCURVE",
"90 -30 CURVE",
"90 10 OFFCURVE",
"90 50 OFFCURVE",
"90 90 CURVE",
"50 90 OFFCURVE",
"10 90 OFFCURVE",
"-30 90 CURVE",
"-30 50 OFFCURVE",
"-30 10 OFFCURVE",
"-30 -30 CURVE"
);
}
);
width = 60;
},
{
layerId = "D643C430-56B0-49A8-9E39-8604C95EB74F";
width = 600;
},
{
layerId = "631FB97C-DDFD-47C8-A05F-E57C7765765C";
width = 600;
},
{
layerId = "1979AEBF-ACF3-4293-8280-4EC52756D623";
width = 600;
},
{
layerId = "51876FD2-FB15-42B1-8983-2C578064692B";
width = 600;
},
{
layerId = "3E7C7373-894E-465B-B362-7C09A6130116";
width = 600;
},
{
layerId = "603BEC83-C21E-45CC-B62B-D21219333A9E";
width = 600;
},
{
layerId = "1BC44DF8-44A1-4B74-831C-40C40A10F098";
width = 600;
},
{
layerId = "852086DA-8501-469D-AA3F-41FA22DDFBCF";
width = 600;
},
{
layerId = "438D4B4E-3EA7-4A41-8875-80F76BAAB6B3";
width = 600;
},
{
layerId = "14BA25F3-C0EE-4CB4-9F98-5DFEB1E18EE7";
width = 600;
},
{
layerId = "2DAF2681-E3BA-4DC5-83D2-7594B55BDC1F";
width = 600;
},
{
layerId = "9520110A-DE13-4414-A7F5-42A172064E5B";
width = 600;
},
{
layerId = "D3FCCDB1-AA10-47A4-A23D-9BF96A588920";
width = 600;
},
{
layerId = "7797199F-D624-4FDD-A36F-0525AE380D0E";
width = 600;
},
{
layerId = "FA6E6620-C52D-4B33-AA81-50D031CD4A6F";
width = 600;
},
{
layerId = "DA51B74E-A0F5-42B5-A2C0-D3D9A70E926B";
width = 600;
},
{
layerId = "011F2706-27C6-45CF-AFED-5303A8B32752";
width = 600;
},
{
layerId = "6EB6CF65-351D-4989-AD9F-DEECEF62225A";
width = 600;
},
{
layerId = "D4E4317C-6609-4A69-A5F7-6DDC3CFB0BD6";
width = 600;
},
{
layerId = "08C62C66-FD01-4260-BAA0-BEE60294F9EF";
width = 600;
},
{
layerId = "C12FEEC6-0181-4EF0-8187-9F5259F16C67";
width = 600;
},
{
layerId = "FCD7E709-3DAF-4187-AB4E-99AB154318F1";
width = 600;
},
{
layerId = "EBE48403-0FCD-44AC-9AB2-0AD3A5E63D9A";
width = 600;
},
{
layerId = "9F07B2B3-7BA7-410C-8914-36619112BBA6";
width = 600;
},
{
layerId = "F7E00E3A-158A-422E-8335-F758AC046B2C";
width = 600;
},
{
layerId = "E4E551F6-F8FD-4982-9E15-E7C282900C29";
width = 600;
},
{
layerId = "8CEE01F3-9DE0-4E6E-8013-9406EBA360D1";
width = 600;
},
{
layerId = "4E15560D-BCA3-4DD9-A968-409C9AA0E428";
width = 600;
},
{
layerId = "A5C2AB9C-ADFD-454D-8DF7-F417DB232433";
width = 600;
},
{
layerId = "BD5397A9-1FE6-4514-BE6D-B734FE133BF5";
width = 600;
},
{
layerId = "9F96208C-832B-4808-B438-7D3FEE586D2A";
width = 600;
},
{
layerId = "A86FE5DC-CBCB-41B2-8326-591D5FD18EB9";
width = 600;
},
{
layerId = "9C6A9D34-ABAA-4A0D-9930-BC1F7644D0B6";
width = 600;
},
{
layerId = "4DFDD194-A56F-4F9E-97BA-3297822BC055";
width = 600;
},
{
layerId = "14825B7F-9412-41E2-8CF9-8F44AA640669";
width = 600;
},
{
layerId = "6D95C03C-148A-4E89-A36A-6A79147497B1";
width = 600;
},
{
layerId = "8E325343-FE47-4360-9BB1-1FE512495D76";
width = 600;
},
{
layerId = "BCC53A07-FD2A-4E76-9F5C-642294C4600E";
width = 600;
},
{
layerId = "C1F72B26-F5AA-4F0E-B116-14A9FBD87A6F";
width = 600;
},
{
layerId = "CF821AF9-99F3-46AC-9C1F-60F128DF51F4";
width = 600;
}
);
},
{
color = 9;
glyphname = _shape.16;
lastChange = "2018-11-22 21:03:19 +0000";
layers = (
{
layerId = "48ADB338-978D-470D-BA28-092259F64D79";
paths = (
{
closed = 1;
nodes = (
"0 -24 OFFCURVE",
"27 -15 OFFCURVE",
"51 9 CURVE SMOOTH",
"75 33 OFFCURVE",
"84 60 OFFCURVE",
"72 72 CURVE SMOOTH",
"60 84 OFFCURVE",
"33 75 OFFCURVE",
"9 51 CURVE SMOOTH",
"-15 27 OFFCURVE",
"-24 0 OFFCURVE",
"-12 -12 CURVE SMOOTH"
);
}
);
width = 60;
},
{
layerId = "338DE7A2-67B3-4D26-93B7-9535EBEDDE48";
paths = (
{
closed = 1;
nodes = (
"47 -30 OFFCURVE",
"60 -4 OFFCURVE",
"60 30 CURVE SMOOTH",
"60 64 OFFCURVE",
"47 90 OFFCURVE",
"30 90 CURVE SMOOTH",
"13 90 OFFCURVE",
"0 64 OFFCURVE",
"0 30 CURVE SMOOTH",
"0 -4 OFFCURVE",
"13 -30 OFFCURVE",
"30 -30 CURVE SMOOTH"
);
}
);
width = 60;
},
{
layerId = "AAD68214-DCF7-41E4-9114-14FE146B1BEB";
paths = (
{
closed = 1;
nodes = (
"47 -30 OFFCURVE",
"60 -4 OFFCURVE",
"60 30 CURVE SMOOTH",
"60 64 OFFCURVE",
"47 90 OFFCURVE",
"30 90 CURVE SMOOTH",
"13 90 OFFCURVE",
"0 64 OFFCURVE",
"0 30 CURVE SMOOTH",
"0 -4 OFFCURVE",
"13 -30 OFFCURVE",
"30 -30 CURVE SMOOTH"
);
}
);
width = 60;
},
{
layerId = "731692F0-AA29-4851-B444-6CE3FFE142F7";
paths = (
{
closed = 1;
nodes = (
"47 -30 OFFCURVE",
"60 -4 OFFCURVE",
"60 30 CURVE SMOOTH",
"60 64 OFFCURVE",
"47 90 OFFCURVE",
"30 90 CURVE SMOOTH",
"13 90 OFFCURVE",
"0 64 OFFCURVE",
"0 30 CURVE SMOOTH",
"0 -4 OFFCURVE",
"13 -30 OFFCURVE",
"30 -30 CURVE SMOOTH"
);
}
);
width = 60;
},
{
layerId = "7797199F-D624-4FDD-A36F-0525AE380D0E";
width = 600;
},
{
layerId = "631FB97C-DDFD-47C8-A05F-E57C7765765C";
width = 600;
},
{
layerId = "1979AEBF-ACF3-4293-8280-4EC52756D623";
width = 600;
},
{
layerId = "51876FD2-FB15-42B1-8983-2C578064692B";
width = 600;
},
{
layerId = "3E7C7373-894E-465B-B362-7C09A6130116";
width = 600;
},
{
layerId = "603BEC83-C21E-45CC-B62B-D21219333A9E";
width = 600;
},
{
layerId = "1BC44DF8-44A1-4B74-831C-40C40A10F098";
width = 600;
},
{
layerId = "852086DA-8501-469D-AA3F-41FA22DDFBCF";
width = 600;
},
{
layerId = "438D4B4E-3EA7-4A41-8875-80F76BAAB6B3";
width = 600;
},
{
layerId = "14BA25F3-C0EE-4CB4-9F98-5DFEB1E18EE7";
width = 600;
},
{
layerId = "2DAF2681-E3BA-4DC5-83D2-7594B55BDC1F";
width = 600;
},
{
layerId = "9520110A-DE13-4414-A7F5-42A172064E5B";
width = 600;
},
{
layerId = "D3FCCDB1-AA10-47A4-A23D-9BF96A588920";
width = 600;
},
{
layerId = "D643C430-56B0-49A8-9E39-8604C95EB74F";
width = 600;
},
{
layerId = "FA6E6620-C52D-4B33-AA81-50D031CD4A6F";
width = 600;
},
{
layerId = "DA51B74E-A0F5-42B5-A2C0-D3D9A70E926B";
width = 600;
},
{
layerId = "011F2706-27C6-45CF-AFED-5303A8B32752";
width = 600;
},
{
layerId = "6EB6CF65-351D-4989-AD9F-DEECEF62225A";
width = 600;
},
{
layerId = "D4E4317C-6609-4A69-A5F7-6DDC3CFB0BD6";
width = 600;
},
{
layerId = "08C62C66-FD01-4260-BAA0-BEE60294F9EF";
width = 600;
},
{
layerId = "C12FEEC6-0181-4EF0-8187-9F5259F16C67";
width = 600;
},
{
layerId = "FCD7E709-3DAF-4187-AB4E-99AB154318F1";
width = 600;
},
{
layerId = "EBE48403-0FCD-44AC-9AB2-0AD3A5E63D9A";
width = 600;
},
{
layerId = "9F07B2B3-7BA7-410C-8914-36619112BBA6";
width = 600;
},
{
layerId = "F7E00E3A-158A-422E-8335-F758AC046B2C";
width = 600;
},
{
layerId = "E4E551F6-F8FD-4982-9E15-E7C282900C29";
width = 600;
},
{
layerId = "8CEE01F3-9DE0-4E6E-8013-9406EBA360D1";
width = 600;
},
{
layerId = "4E15560D-BCA3-4DD9-A968-409C9AA0E428";
width = 600;
},
{
layerId = "A5C2AB9C-ADFD-454D-8DF7-F417DB232433";
width = 600;
},
{
layerId = "BD5397A9-1FE6-4514-BE6D-B734FE133BF5";
width = 600;
},
{
layerId = "9F96208C-832B-4808-B438-7D3FEE586D2A";
width = 600;
},
{
layerId = "A86FE5DC-CBCB-41B2-8326-591D5FD18EB9";
width = 600;
},
{
layerId = "9C6A9D34-ABAA-4A0D-9930-BC1F7644D0B6";
width = 600;
},
{
layerId = "4DFDD194-A56F-4F9E-97BA-3297822BC055";
width = 600;
},
{
layerId = "14825B7F-9412-41E2-8CF9-8F44AA640669";
width = 600;
},
{
layerId = "6D95C03C-148A-4E89-A36A-6A79147497B1";
width = 600;
},
{
layerId = "8E325343-FE47-4360-9BB1-1FE512495D76";
width = 600;
},
{
layerId = "BCC53A07-FD2A-4E76-9F5C-642294C4600E";
width = 600;
},
{
layerId = "C1F72B26-F5AA-4F0E-B116-14A9FBD87A6F";
width = 600;
},
{
layerId = "CF821AF9-99F3-46AC-9C1F-60F128DF51F4";
width = 600;
}
);
},
{
color = 9;
glyphname = _shape.17;
lastChange = "2018-11-22 21:03:17 +0000";
layers = (
{
layerId = "48ADB338-978D-470D-BA28-092259F64D79";
paths = (
{
closed = 1;
nodes = (
"84 0 OFFCURVE",
"75 27 OFFCURVE",
"51 51 CURVE SMOOTH",
"27 75 OFFCURVE",
"0 84 OFFCURVE",
"-12 72 CURVE SMOOTH",
"-24 60 OFFCURVE",
"-15 33 OFFCURVE",
"9 9 CURVE SMOOTH",
"33 -15 OFFCURVE",
"60 -24 OFFCURVE",
"72 -12 CURVE SMOOTH"
);
}
);
width = 60;
},
{
layerId = "338DE7A2-67B3-4D26-93B7-9535EBEDDE48";
paths = (
{
closed = 1;
nodes = (
"0 -24 OFFCURVE",
"27 -15 OFFCURVE",
"51 9 CURVE SMOOTH",
"75 33 OFFCURVE",
"84 60 OFFCURVE",
"72 72 CURVE SMOOTH",
"60 84 OFFCURVE",
"33 75 OFFCURVE",
"9 51 CURVE SMOOTH",
"-15 27 OFFCURVE",
"-24 0 OFFCURVE",
"-12 -12 CURVE SMOOTH"
);
}
);
width = 60;
},
{
layerId = "AAD68214-DCF7-41E4-9114-14FE146B1BEB";
paths = (
{
closed = 1;
nodes = (
"0 -24 OFFCURVE",
"27 -15 OFFCURVE",
"51 9 CURVE SMOOTH",
"75 33 OFFCURVE",
"84 60 OFFCURVE",
"72 72 CURVE SMOOTH",
"60 84 OFFCURVE",
"33 75 OFFCURVE",
"9 51 CURVE SMOOTH",
"-15 27 OFFCURVE",
"-24 0 OFFCURVE",
"-12 -12 CURVE SMOOTH"
);
}
);
width = 60;
},
{
layerId = "731692F0-AA29-4851-B444-6CE3FFE142F7";
paths = (
{
closed = 1;
nodes = (
"0 -24 OFFCURVE",
"27 -15 OFFCURVE",
"51 9 CURVE SMOOTH",
"75 33 OFFCURVE",
"84 60 OFFCURVE",
"72 72 CURVE SMOOTH",
"60 84 OFFCURVE",
"33 75 OFFCURVE",
"9 51 CURVE SMOOTH",
"-15 27 OFFCURVE",
"-24 0 OFFCURVE",
"-12 -12 CURVE SMOOTH"
);
}
);
width = 60;
},
{
layerId = "FA6E6620-C52D-4B33-AA81-50D031CD4A6F";
width = 600;
},
{
layerId = "631FB97C-DDFD-47C8-A05F-E57C7765765C";
width = 600;
},
{
layerId = "1979AEBF-ACF3-4293-8280-4EC52756D623";
width = 600;
},
{
layerId = "51876FD2-FB15-42B1-8983-2C578064692B";
width = 600;
},
{
layerId = "3E7C7373-894E-465B-B362-7C09A6130116";
width = 600;
},
{
layerId = "603BEC83-C21E-45CC-B62B-D21219333A9E";
width = 600;
},
{
layerId = "1BC44DF8-44A1-4B74-831C-40C40A10F098";
width = 600;
},
{
layerId = "852086DA-8501-469D-AA3F-41FA22DDFBCF";
width = 600;
},
{
layerId = "438D4B4E-3EA7-4A41-8875-80F76BAAB6B3";
width = 600;
},
{
layerId = "14BA25F3-C0EE-4CB4-9F98-5DFEB1E18EE7";
width = 600;
},
{
layerId = "2DAF2681-E3BA-4DC5-83D2-7594B55BDC1F";
width = 600;
},
{
layerId = "9520110A-DE13-4414-A7F5-42A172064E5B";
width = 600;
},
{
layerId = "D3FCCDB1-AA10-47A4-A23D-9BF96A588920";
width = 600;
},
{
layerId = "D643C430-56B0-49A8-9E39-8604C95EB74F";
width = 600;
},
{
layerId = "7797199F-D624-4FDD-A36F-0525AE380D0E";
width = 600;
},
{
layerId = "DA51B74E-A0F5-42B5-A2C0-D3D9A70E926B";
width = 600;
},
{
layerId = "011F2706-27C6-45CF-AFED-5303A8B32752";
width = 600;
},
{
layerId = "6EB6CF65-351D-4989-AD9F-DEECEF62225A";
width = 600;
},
{
layerId = "D4E4317C-6609-4A69-A5F7-6DDC3CFB0BD6";
width = 600;
},
{
layerId = "08C62C66-FD01-4260-BAA0-BEE60294F9EF";
width = 600;
},
{
layerId = "C12FEEC6-0181-4EF0-8187-9F5259F16C67";
width = 600;
},
{
layerId = "FCD7E709-3DAF-4187-AB4E-99AB154318F1";
width = 600;
},
{
layerId = "EBE48403-0FCD-44AC-9AB2-0AD3A5E63D9A";
width = 600;
},
{
layerId = "9F07B2B3-7BA7-410C-8914-36619112BBA6";
width = 600;
},
{
layerId = "F7E00E3A-158A-422E-8335-F758AC046B2C";
width = 600;
},
{
layerId = "E4E551F6-F8FD-4982-9E15-E7C282900C29";
width = 600;
},
{
layerId = "8CEE01F3-9DE0-4E6E-8013-9406EBA360D1";
width = 600;
},
{
layerId = "4E15560D-BCA3-4DD9-A968-409C9AA0E428";
width = 600;
},
{
layerId = "A5C2AB9C-ADFD-454D-8DF7-F417DB232433";
width = 600;
},
{
layerId = "BD5397A9-1FE6-4514-BE6D-B734FE133BF5";
width = 600;
},
{
layerId = "9F96208C-832B-4808-B438-7D3FEE586D2A";
width = 600;
},
{
layerId = "A86FE5DC-CBCB-41B2-8326-591D5FD18EB9";
width = 600;
},
{
layerId = "9C6A9D34-ABAA-4A0D-9930-BC1F7644D0B6";
width = 600;
},
{
layerId = "4DFDD194-A56F-4F9E-97BA-3297822BC055";
width = 600;
},
{
layerId = "14825B7F-9412-41E2-8CF9-8F44AA640669";
width = 600;
},
{
layerId = "6D95C03C-148A-4E89-A36A-6A79147497B1";
width = 600;
},
{
layerId = "8E325343-FE47-4360-9BB1-1FE512495D76";
width = 600;
},
{
layerId = "BCC53A07-FD2A-4E76-9F5C-642294C4600E";
width = 600;
},
{
layerId = "C1F72B26-F5AA-4F0E-B116-14A9FBD87A6F";
width = 600;
},
{
layerId = "CF821AF9-99F3-46AC-9C1F-60F128DF51F4";
width = 600;
}
);
},
{
color = 9;
glyphname = _shape.18;
lastChange = "2018-11-22 21:03:47 +0000";
layers = (
{
layerId = "48ADB338-978D-470D-BA28-092259F64D79";
paths = (
{
closed = 1;
nodes = (
"64 0 OFFCURVE",
"90 13 OFFCURVE",
"90 30 CURVE SMOOTH",
"90 47 OFFCURVE",
"64 60 OFFCURVE",
"30 60 CURVE SMOOTH",
"-4 60 OFFCURVE",
"-30 47 OFFCURVE",
"-30 30 CURVE SMOOTH",
"-30 13 OFFCURVE",
"-4 0 OFFCURVE",
"30 0 CURVE SMOOTH"
);
}
);
width = 60;
},
{
layerId = "338DE7A2-67B3-4D26-93B7-9535EBEDDE48";
paths = (
{
closed = 1;
nodes = (
"0 -24 OFFCURVE",
"27 -15 OFFCURVE",
"51 9 CURVE SMOOTH",
"75 33 OFFCURVE",
"84 60 OFFCURVE",
"72 72 CURVE SMOOTH",
"60 84 OFFCURVE",
"33 75 OFFCURVE",
"9 51 CURVE SMOOTH",
"-15 27 OFFCURVE",
"-24 0 OFFCURVE",
"-12 -12 CURVE SMOOTH"
);
}
);
width = 60;
},
{
layerId = "AAD68214-DCF7-41E4-9114-14FE146B1BEB";
paths = (
{
closed = 1;
nodes = (
"0 -24 OFFCURVE",
"27 -15 OFFCURVE",
"51 9 CURVE SMOOTH",
"75 33 OFFCURVE",
"84 60 OFFCURVE",
"72 72 CURVE SMOOTH",
"60 84 OFFCURVE",
"33 75 OFFCURVE",
"9 51 CURVE SMOOTH",
"-15 27 OFFCURVE",
"-24 0 OFFCURVE",
"-12 -12 CURVE SMOOTH"
);
}
);
width = 60;
},
{
layerId = "731692F0-AA29-4851-B444-6CE3FFE142F7";
paths = (
{
closed = 1;
nodes = (
"0 -24 OFFCURVE",
"27 -15 OFFCURVE",
"51 9 CURVE SMOOTH",
"75 33 OFFCURVE",
"84 60 OFFCURVE",
"72 72 CURVE SMOOTH",
"60 84 OFFCURVE",
"33 75 OFFCURVE",
"9 51 CURVE SMOOTH",
"-15 27 OFFCURVE",
"-24 0 OFFCURVE",
"-12 -12 CURVE SMOOTH"
);
}
);
width = 60;
},
{
layerId = "FA6E6620-C52D-4B33-AA81-50D031CD4A6F";
width = 600;
},
{
layerId = "631FB97C-DDFD-47C8-A05F-E57C7765765C";
width = 600;
},
{
layerId = "1979AEBF-ACF3-4293-8280-4EC52756D623";
width = 600;
},
{
layerId = "51876FD2-FB15-42B1-8983-2C578064692B";
width = 600;
},
{
layerId = "3E7C7373-894E-465B-B362-7C09A6130116";
width = 600;
},
{
layerId = "603BEC83-C21E-45CC-B62B-D21219333A9E";
width = 600;
},
{
layerId = "1BC44DF8-44A1-4B74-831C-40C40A10F098";
width = 600;
},
{
layerId = "852086DA-8501-469D-AA3F-41FA22DDFBCF";
width = 600;
},
{
layerId = "438D4B4E-3EA7-4A41-8875-80F76BAAB6B3";
width = 600;
},
{
layerId = "14BA25F3-C0EE-4CB4-9F98-5DFEB1E18EE7";
width = 600;
},
{
layerId = "2DAF2681-E3BA-4DC5-83D2-7594B55BDC1F";
width = 600;
},
{
layerId = "9520110A-DE13-4414-A7F5-42A172064E5B";
width = 600;
},
{
layerId = "D3FCCDB1-AA10-47A4-A23D-9BF96A588920";
width = 600;
},
{
layerId = "D643C430-56B0-49A8-9E39-8604C95EB74F";
width = 600;
},
{
layerId = "7797199F-D624-4FDD-A36F-0525AE380D0E";
width = 600;
},
{
layerId = "DA51B74E-A0F5-42B5-A2C0-D3D9A70E926B";
width = 600;
},
{
layerId = "011F2706-27C6-45CF-AFED-5303A8B32752";
width = 600;
},
{
layerId = "6EB6CF65-351D-4989-AD9F-DEECEF62225A";
width = 600;
},
{
layerId = "D4E4317C-6609-4A69-A5F7-6DDC3CFB0BD6";
width = 600;
},
{
layerId = "08C62C66-FD01-4260-BAA0-BEE60294F9EF";
width = 600;
},
{
layerId = "C12FEEC6-0181-4EF0-8187-9F5259F16C67";
width = 600;
},
{
layerId = "FCD7E709-3DAF-4187-AB4E-99AB154318F1";
width = 600;
},
{
layerId = "EBE48403-0FCD-44AC-9AB2-0AD3A5E63D9A";
width = 600;
},
{
layerId = "9F07B2B3-7BA7-410C-8914-36619112BBA6";
width = 600;
},
{
layerId = "F7E00E3A-158A-422E-8335-F758AC046B2C";
width = 600;
},
{
layerId = "E4E551F6-F8FD-4982-9E15-E7C282900C29";
width = 600;
},
{
layerId = "8CEE01F3-9DE0-4E6E-8013-9406EBA360D1";
width = 600;
},
{
layerId = "4E15560D-BCA3-4DD9-A968-409C9AA0E428";
width = 600;
},
{
layerId = "A5C2AB9C-ADFD-454D-8DF7-F417DB232433";
width = 600;
},
{
layerId = "BD5397A9-1FE6-4514-BE6D-B734FE133BF5";
width = 600;
},
{
layerId = "9F96208C-832B-4808-B438-7D3FEE586D2A";
width = 600;
},
{
layerId = "A86FE5DC-CBCB-41B2-8326-591D5FD18EB9";
width = 600;
},
{
layerId = "9C6A9D34-ABAA-4A0D-9930-BC1F7644D0B6";
width = 600;
},
{
layerId = "4DFDD194-A56F-4F9E-97BA-3297822BC055";
width = 600;
},
{
layerId = "14825B7F-9412-41E2-8CF9-8F44AA640669";
width = 600;
},
{
layerId = "6D95C03C-148A-4E89-A36A-6A79147497B1";
width = 600;
},
{
layerId = "8E325343-FE47-4360-9BB1-1FE512495D76";
width = 600;
},
{
layerId = "BCC53A07-FD2A-4E76-9F5C-642294C4600E";
width = 600;
},
{
layerId = "C1F72B26-F5AA-4F0E-B116-14A9FBD87A6F";
width = 600;
},
{
layerId = "CF821AF9-99F3-46AC-9C1F-60F128DF51F4";
width = 600;
}
);
},
{
color = 9;
glyphname = _shape.19;
lastChange = "2018-11-21 17:26:16 +0000";
layers = (
{
layerId = "48ADB338-978D-470D-BA28-092259F64D79";
paths = (
{
closed = 1;
nodes = (
"64 -30 OFFCURVE",
"90 -4 OFFCURVE",
"90 30 CURVE SMOOTH",
"90 64 OFFCURVE",
"64 90 OFFCURVE",
"30 90 CURVE SMOOTH",
"-4 90 OFFCURVE",
"-30 64 OFFCURVE",
"-30 30 CURVE SMOOTH",
"-30 -4 OFFCURVE",
"-4 -30 OFFCURVE",
"30 -30 CURVE SMOOTH"
);
}
);
width = 60;
},
{
layerId = "338DE7A2-67B3-4D26-93B7-9535EBEDDE48";
paths = (
{
closed = 1;
nodes = (
"64 -30 OFFCURVE",
"90 -4 OFFCURVE",
"90 30 CURVE SMOOTH",
"90 64 OFFCURVE",
"64 90 OFFCURVE",
"30 90 CURVE SMOOTH",
"-4 90 OFFCURVE",
"-30 64 OFFCURVE",
"-30 30 CURVE SMOOTH",
"-30 -4 OFFCURVE",
"-4 -30 OFFCURVE",
"30 -30 CURVE SMOOTH"
);
}
);
width = 60;
},
{
layerId = "AAD68214-DCF7-41E4-9114-14FE146B1BEB";
paths = (
{
closed = 1;
nodes = (
"64 -30 OFFCURVE",
"90 -4 OFFCURVE",
"90 30 CURVE SMOOTH",
"90 64 OFFCURVE",
"64 90 OFFCURVE",
"30 90 CURVE SMOOTH",
"-4 90 OFFCURVE",
"-30 64 OFFCURVE",
"-30 30 CURVE SMOOTH",
"-30 -4 OFFCURVE",
"-4 -30 OFFCURVE",
"30 -30 CURVE SMOOTH"
);
}
);
width = 60;
},
{
layerId = "731692F0-AA29-4851-B444-6CE3FFE142F7";
paths = (
{
closed = 1;
nodes = (
"64 -30 OFFCURVE",
"90 -4 OFFCURVE",
"90 30 CURVE SMOOTH",
"90 64 OFFCURVE",
"64 90 OFFCURVE",
"30 90 CURVE SMOOTH",
"-4 90 OFFCURVE",
"-30 64 OFFCURVE",
"-30 30 CURVE SMOOTH",
"-30 -4 OFFCURVE",
"-4 -30 OFFCURVE",
"30 -30 CURVE SMOOTH"
);
}
);
width = 60;
},
{
layerId = "DA51B74E-A0F5-42B5-A2C0-D3D9A70E926B";
width = 600;
},
{
layerId = "631FB97C-DDFD-47C8-A05F-E57C7765765C";
width = 600;
},
{
layerId = "1979AEBF-ACF3-4293-8280-4EC52756D623";
width = 600;
},
{
layerId = "51876FD2-FB15-42B1-8983-2C578064692B";
width = 600;
},
{
layerId = "3E7C7373-894E-465B-B362-7C09A6130116";
width = 600;
},
{
layerId = "603BEC83-C21E-45CC-B62B-D21219333A9E";
width = 600;
},
{
layerId = "1BC44DF8-44A1-4B74-831C-40C40A10F098";
width = 600;
},
{
layerId = "852086DA-8501-469D-AA3F-41FA22DDFBCF";
width = 600;
},
{
layerId = "438D4B4E-3EA7-4A41-8875-80F76BAAB6B3";
width = 600;
},
{
layerId = "14BA25F3-C0EE-4CB4-9F98-5DFEB1E18EE7";
width = 600;
},
{
layerId = "2DAF2681-E3BA-4DC5-83D2-7594B55BDC1F";
width = 600;
},
{
layerId = "9520110A-DE13-4414-A7F5-42A172064E5B";
width = 600;
},
{
layerId = "D3FCCDB1-AA10-47A4-A23D-9BF96A588920";
width = 600;
},
{
layerId = "D643C430-56B0-49A8-9E39-8604C95EB74F";
width = 600;
},
{
layerId = "7797199F-D624-4FDD-A36F-0525AE380D0E";
width = 600;
},
{
layerId = "FA6E6620-C52D-4B33-AA81-50D031CD4A6F";
width = 600;
},
{
layerId = "011F2706-27C6-45CF-AFED-5303A8B32752";
width = 600;
},
{
layerId = "6EB6CF65-351D-4989-AD9F-DEECEF62225A";
width = 600;
},
{
layerId = "D4E4317C-6609-4A69-A5F7-6DDC3CFB0BD6";
width = 600;
},
{
layerId = "08C62C66-FD01-4260-BAA0-BEE60294F9EF";
width = 600;
},
{
layerId = "C12FEEC6-0181-4EF0-8187-9F5259F16C67";
width = 600;
},
{
layerId = "FCD7E709-3DAF-4187-AB4E-99AB154318F1";
width = 600;
},
{
layerId = "EBE48403-0FCD-44AC-9AB2-0AD3A5E63D9A";
width = 600;
},
{
layerId = "9F07B2B3-7BA7-410C-8914-36619112BBA6";
width = 600;
},
{
layerId = "F7E00E3A-158A-422E-8335-F758AC046B2C";
width = 600;
},
{
layerId = "E4E551F6-F8FD-4982-9E15-E7C282900C29";
width = 600;
},
{
layerId = "8CEE01F3-9DE0-4E6E-8013-9406EBA360D1";
width = 600;
},
{
layerId = "4E15560D-BCA3-4DD9-A968-409C9AA0E428";
width = 600;
},
{
layerId = "A5C2AB9C-ADFD-454D-8DF7-F417DB232433";
width = 600;
},
{
layerId = "BD5397A9-1FE6-4514-BE6D-B734FE133BF5";
width = 600;
},
{
layerId = "9F96208C-832B-4808-B438-7D3FEE586D2A";
width = 600;
},
{
layerId = "A86FE5DC-CBCB-41B2-8326-591D5FD18EB9";
width = 600;
},
{
layerId = "9C6A9D34-ABAA-4A0D-9930-BC1F7644D0B6";
width = 600;
},
{
layerId = "4DFDD194-A56F-4F9E-97BA-3297822BC055";
width = 600;
},
{
layerId = "14825B7F-9412-41E2-8CF9-8F44AA640669";
width = 600;
},
{
layerId = "6D95C03C-148A-4E89-A36A-6A79147497B1";
width = 600;
},
{
layerId = "8E325343-FE47-4360-9BB1-1FE512495D76";
width = 600;
},
{
layerId = "BCC53A07-FD2A-4E76-9F5C-642294C4600E";
width = 600;
},
{
layerId = "C1F72B26-F5AA-4F0E-B116-14A9FBD87A6F";
width = 600;
},
{
layerId = "CF821AF9-99F3-46AC-9C1F-60F128DF51F4";
width = 600;
}
);
},
{
color = 9;
glyphname = _shape.20;
lastChange = "2018-11-21 17:26:16 +0000";
layers = (
{
layerId = "48ADB338-978D-470D-BA28-092259F64D79";
paths = (
{
closed = 1;
nodes = (
"60 8 OFFCURVE",
"90 24 OFFCURVE",
"90 56 CURVE SMOOTH",
"90 99 OFFCURVE",
"30 100 OFFCURVE",
"30 47 CURVE",
"30 100 OFFCURVE",
"-30 99 OFFCURVE",
"-30 56 CURVE SMOOTH",
"-30 24 OFFCURVE",
"0 8 OFFCURVE",
"30 -30 CURVE"
);
}
);
width = 60;
},
{
layerId = "338DE7A2-67B3-4D26-93B7-9535EBEDDE48";
paths = (
{
closed = 1;
nodes = (
"60 8 OFFCURVE",
"90 24 OFFCURVE",
"90 56 CURVE SMOOTH",
"90 99 OFFCURVE",
"30 100 OFFCURVE",
"30 47 CURVE",
"30 100 OFFCURVE",
"-30 99 OFFCURVE",
"-30 56 CURVE SMOOTH",
"-30 24 OFFCURVE",
"0 8 OFFCURVE",
"30 -30 CURVE"
);
}
);
width = 60;
},
{
layerId = "AAD68214-DCF7-41E4-9114-14FE146B1BEB";
paths = (
{
closed = 1;
nodes = (
"60 8 OFFCURVE",
"90 24 OFFCURVE",
"90 56 CURVE SMOOTH",
"90 99 OFFCURVE",
"30 100 OFFCURVE",
"30 47 CURVE",
"30 100 OFFCURVE",
"-30 99 OFFCURVE",
"-30 56 CURVE SMOOTH",
"-30 24 OFFCURVE",
"0 8 OFFCURVE",
"30 -30 CURVE"
);
}
);
width = 60;
},
{
layerId = "731692F0-AA29-4851-B444-6CE3FFE142F7";
paths = (
{
closed = 1;
nodes = (
"60 8 OFFCURVE",
"90 24 OFFCURVE",
"90 56 CURVE SMOOTH",
"90 99 OFFCURVE",
"30 100 OFFCURVE",
"30 47 CURVE",
"30 100 OFFCURVE",
"-30 99 OFFCURVE",
"-30 56 CURVE SMOOTH",
"-30 24 OFFCURVE",
"0 8 OFFCURVE",
"30 -30 CURVE"
);
}
);
width = 60;
},
{
layerId = "011F2706-27C6-45CF-AFED-5303A8B32752";
width = 600;
},
{
layerId = "631FB97C-DDFD-47C8-A05F-E57C7765765C";
width = 600;
},
{
layerId = "1979AEBF-ACF3-4293-8280-4EC52756D623";
width = 600;
},
{
layerId = "51876FD2-FB15-42B1-8983-2C578064692B";
width = 600;
},
{
layerId = "3E7C7373-894E-465B-B362-7C09A6130116";
width = 600;
},
{
layerId = "603BEC83-C21E-45CC-B62B-D21219333A9E";
width = 600;
},
{
layerId = "1BC44DF8-44A1-4B74-831C-40C40A10F098";
width = 600;
},
{
layerId = "852086DA-8501-469D-AA3F-41FA22DDFBCF";
width = 600;
},
{
layerId = "438D4B4E-3EA7-4A41-8875-80F76BAAB6B3";
width = 600;
},
{
layerId = "14BA25F3-C0EE-4CB4-9F98-5DFEB1E18EE7";
width = 600;
},
{
layerId = "2DAF2681-E3BA-4DC5-83D2-7594B55BDC1F";
width = 600;
},
{
layerId = "9520110A-DE13-4414-A7F5-42A172064E5B";
width = 600;
},
{
layerId = "D3FCCDB1-AA10-47A4-A23D-9BF96A588920";
width = 600;
},
{
layerId = "D643C430-56B0-49A8-9E39-8604C95EB74F";
width = 600;
},
{
layerId = "7797199F-D624-4FDD-A36F-0525AE380D0E";
width = 600;
},
{
layerId = "FA6E6620-C52D-4B33-AA81-50D031CD4A6F";
width = 600;
},
{
layerId = "DA51B74E-A0F5-42B5-A2C0-D3D9A70E926B";
width = 600;
},
{
layerId = "6EB6CF65-351D-4989-AD9F-DEECEF62225A";
width = 600;
},
{
layerId = "D4E4317C-6609-4A69-A5F7-6DDC3CFB0BD6";
width = 600;
},
{
layerId = "08C62C66-FD01-4260-BAA0-BEE60294F9EF";
width = 600;
},
{
layerId = "C12FEEC6-0181-4EF0-8187-9F5259F16C67";
width = 600;
},
{
layerId = "FCD7E709-3DAF-4187-AB4E-99AB154318F1";
width = 600;
},
{
layerId = "EBE48403-0FCD-44AC-9AB2-0AD3A5E63D9A";
width = 600;
},
{
layerId = "9F07B2B3-7BA7-410C-8914-36619112BBA6";
width = 600;
},
{
layerId = "F7E00E3A-158A-422E-8335-F758AC046B2C";
width = 600;
},
{
layerId = "E4E551F6-F8FD-4982-9E15-E7C282900C29";
width = 600;
},
{
layerId = "8CEE01F3-9DE0-4E6E-8013-9406EBA360D1";
width = 600;
},
{
layerId = "4E15560D-BCA3-4DD9-A968-409C9AA0E428";
width = 600;
},
{
layerId = "A5C2AB9C-ADFD-454D-8DF7-F417DB232433";
width = 600;
},
{
layerId = "BD5397A9-1FE6-4514-BE6D-B734FE133BF5";
width = 600;
},
{
layerId = "9F96208C-832B-4808-B438-7D3FEE586D2A";
width = 600;
},
{
layerId = "A86FE5DC-CBCB-41B2-8326-591D5FD18EB9";
width = 600;
},
{
layerId = "9C6A9D34-ABAA-4A0D-9930-BC1F7644D0B6";
width = 600;
},
{
layerId = "4DFDD194-A56F-4F9E-97BA-3297822BC055";
width = 600;
},
{
layerId = "14825B7F-9412-41E2-8CF9-8F44AA640669";
width = 600;
},
{
layerId = "6D95C03C-148A-4E89-A36A-6A79147497B1";
width = 600;
},
{
layerId = "8E325343-FE47-4360-9BB1-1FE512495D76";
width = 600;
},
{
layerId = "BCC53A07-FD2A-4E76-9F5C-642294C4600E";
width = 600;
},
{
layerId = "C1F72B26-F5AA-4F0E-B116-14A9FBD87A6F";
width = 600;
},
{
layerId = "CF821AF9-99F3-46AC-9C1F-60F128DF51F4";
width = 600;
}
);
},
{
color = 9;
glyphname = _shape.21;
lastChange = "2018-11-21 17:26:16 +0000";
layers = (
{
layerId = "48ADB338-978D-470D-BA28-092259F64D79";
paths = (
{
closed = 1;
nodes = (
"30 -91 OFFCURVE",
"151 30 OFFCURVE",
"31 30 CURVE",
"151 30 OFFCURVE",
"30 151 OFFCURVE",
"30 31 CURVE",
"30 151 OFFCURVE",
"-91 30 OFFCURVE",
"29 30 CURVE",
"-91 30 OFFCURVE",
"30 -91 OFFCURVE",
"30 29 CURVE"
);
}
);
width = 60;
},
{
layerId = "338DE7A2-67B3-4D26-93B7-9535EBEDDE48";
paths = (
{
closed = 1;
nodes = (
"30 -90 OFFCURVE",
"150 30 OFFCURVE",
"30 30 CURVE",
"150 30 OFFCURVE",
"30 150 OFFCURVE",
"30 30 CURVE",
"30 150 OFFCURVE",
"-90 30 OFFCURVE",
"30 30 CURVE",
"-90 30 OFFCURVE",
"30 -90 OFFCURVE",
"30 30 CURVE"
);
}
);
width = 60;
},
{
layerId = "AAD68214-DCF7-41E4-9114-14FE146B1BEB";
paths = (
{
closed = 1;
nodes = (
"30 -90 OFFCURVE",
"150 30 OFFCURVE",
"30 30 CURVE",
"150 30 OFFCURVE",
"30 150 OFFCURVE",
"30 30 CURVE",
"30 150 OFFCURVE",
"-90 30 OFFCURVE",
"30 30 CURVE",
"-90 30 OFFCURVE",
"30 -90 OFFCURVE",
"30 30 CURVE"
);
}
);
width = 60;
},
{
layerId = "731692F0-AA29-4851-B444-6CE3FFE142F7";
paths = (
{
closed = 1;
nodes = (
"30 -90 OFFCURVE",
"150 30 OFFCURVE",
"30 30 CURVE",
"150 30 OFFCURVE",
"30 150 OFFCURVE",
"30 30 CURVE",
"30 150 OFFCURVE",
"-90 30 OFFCURVE",
"30 30 CURVE",
"-90 30 OFFCURVE",
"30 -90 OFFCURVE",
"30 30 CURVE"
);
}
);
width = 60;
},
{
layerId = "6EB6CF65-351D-4989-AD9F-DEECEF62225A";
width = 600;
},
{
layerId = "631FB97C-DDFD-47C8-A05F-E57C7765765C";
width = 600;
},
{
layerId = "1979AEBF-ACF3-4293-8280-4EC52756D623";
width = 600;
},
{
layerId = "51876FD2-FB15-42B1-8983-2C578064692B";
width = 600;
},
{
layerId = "3E7C7373-894E-465B-B362-7C09A6130116";
width = 600;
},
{
layerId = "603BEC83-C21E-45CC-B62B-D21219333A9E";
width = 600;
},
{
layerId = "1BC44DF8-44A1-4B74-831C-40C40A10F098";
width = 600;
},
{
layerId = "852086DA-8501-469D-AA3F-41FA22DDFBCF";
width = 600;
},
{
layerId = "438D4B4E-3EA7-4A41-8875-80F76BAAB6B3";
width = 600;
},
{
layerId = "14BA25F3-C0EE-4CB4-9F98-5DFEB1E18EE7";
width = 600;
},
{
layerId = "2DAF2681-E3BA-4DC5-83D2-7594B55BDC1F";
width = 600;
},
{
layerId = "9520110A-DE13-4414-A7F5-42A172064E5B";
width = 600;
},
{
layerId = "D3FCCDB1-AA10-47A4-A23D-9BF96A588920";
width = 600;
},
{
layerId = "D643C430-56B0-49A8-9E39-8604C95EB74F";
width = 600;
},
{
layerId = "7797199F-D624-4FDD-A36F-0525AE380D0E";
width = 600;
},
{
layerId = "FA6E6620-C52D-4B33-AA81-50D031CD4A6F";
width = 600;
},
{
layerId = "DA51B74E-A0F5-42B5-A2C0-D3D9A70E926B";
width = 600;
},
{
layerId = "011F2706-27C6-45CF-AFED-5303A8B32752";
width = 600;
},
{
layerId = "D4E4317C-6609-4A69-A5F7-6DDC3CFB0BD6";
width = 600;
},
{
layerId = "08C62C66-FD01-4260-BAA0-BEE60294F9EF";
width = 600;
},
{
layerId = "C12FEEC6-0181-4EF0-8187-9F5259F16C67";
width = 600;
},
{
layerId = "FCD7E709-3DAF-4187-AB4E-99AB154318F1";
width = 600;
},
{
layerId = "EBE48403-0FCD-44AC-9AB2-0AD3A5E63D9A";
width = 600;
},
{
layerId = "9F07B2B3-7BA7-410C-8914-36619112BBA6";
width = 600;
},
{
layerId = "F7E00E3A-158A-422E-8335-F758AC046B2C";
width = 600;
},
{
layerId = "E4E551F6-F8FD-4982-9E15-E7C282900C29";
width = 600;
},
{
layerId = "8CEE01F3-9DE0-4E6E-8013-9406EBA360D1";
width = 600;
},
{
layerId = "4E15560D-BCA3-4DD9-A968-409C9AA0E428";
width = 600;
},
{
layerId = "A5C2AB9C-ADFD-454D-8DF7-F417DB232433";
width = 600;
},
{
layerId = "BD5397A9-1FE6-4514-BE6D-B734FE133BF5";
width = 600;
},
{
layerId = "9F96208C-832B-4808-B438-7D3FEE586D2A";
width = 600;
},
{
layerId = "A86FE5DC-CBCB-41B2-8326-591D5FD18EB9";
width = 600;
},
{
layerId = "9C6A9D34-ABAA-4A0D-9930-BC1F7644D0B6";
width = 600;
},
{
layerId = "4DFDD194-A56F-4F9E-97BA-3297822BC055";
width = 600;
},
{
layerId = "14825B7F-9412-41E2-8CF9-8F44AA640669";
width = 600;
},
{
layerId = "6D95C03C-148A-4E89-A36A-6A79147497B1";
width = 600;
},
{
layerId = "8E325343-FE47-4360-9BB1-1FE512495D76";
width = 600;
},
{
layerId = "BCC53A07-FD2A-4E76-9F5C-642294C4600E";
width = 600;
},
{
layerId = "C1F72B26-F5AA-4F0E-B116-14A9FBD87A6F";
width = 600;
},
{
layerId = "CF821AF9-99F3-46AC-9C1F-60F128DF51F4";
width = 600;
}
);
},
{
color = 8;
glyphname = _shape.22;
lastChange = "2018-11-22 21:07:56 +0000";
layers = (
{
background = {
paths = (
{
closed = 1;
nodes = (
"33 25 OFFCURVE",
"35 27 OFFCURVE",
"35 30 CURVE SMOOTH",
"35 33 OFFCURVE",
"33 35 OFFCURVE",
"30 35 CURVE SMOOTH",
"27 35 OFFCURVE",
"25 33 OFFCURVE",
"25 30 CURVE SMOOTH",
"25 27 OFFCURVE",
"27 25 OFFCURVE",
"30 25 CURVE SMOOTH"
);
}
);
};
layerId = "48ADB338-978D-470D-BA28-092259F64D79";
paths = (
{
closed = 1;
nodes = (
"33 32 OFFCURVE",
"32 33 OFFCURVE",
"30 35 CURVE",
"28 33 OFFCURVE",
"27 32 OFFCURVE",
"25 30 CURVE",
"27 28 OFFCURVE",
"28 27 OFFCURVE",
"30 25 CURVE",
"32 27 OFFCURVE",
"33 28 OFFCURVE",
"35 30 CURVE"
);
}
);
width = 60;
},
{
background = {
paths = (
{
closed = 1;
nodes = (
"33 25 OFFCURVE",
"35 27 OFFCURVE",
"35 30 CURVE SMOOTH",
"35 33 OFFCURVE",
"33 35 OFFCURVE",
"30 35 CURVE SMOOTH",
"27 35 OFFCURVE",
"25 33 OFFCURVE",
"25 30 CURVE SMOOTH",
"25 27 OFFCURVE",
"27 25 OFFCURVE",
"30 25 CURVE SMOOTH"
);
}
);
};
layerId = "631FB97C-DDFD-47C8-A05F-E57C7765765C";
paths = (
{
closed = 1;
nodes = (
"32 27 OFFCURVE",
"33 28 OFFCURVE",
"35 30 CURVE",
"33 32 OFFCURVE",
"32 33 OFFCURVE",
"30 35 CURVE",
"28 33 OFFCURVE",
"27 32 OFFCURVE",
"25 30 CURVE",
"27 28 OFFCURVE",
"28 27 OFFCURVE",
"30 25 CURVE"
);
}
);
width = 60;
},
{
background = {
paths = (
{
closed = 1;
nodes = (
"38 16 OFFCURVE",
"44 22 OFFCURVE",
"44 30 CURVE SMOOTH",
"44 38 OFFCURVE",
"38 44 OFFCURVE",
"30 44 CURVE SMOOTH",
"22 44 OFFCURVE",
"16 38 OFFCURVE",
"16 30 CURVE SMOOTH",
"16 22 OFFCURVE",
"22 16 OFFCURVE",
"30 16 CURVE SMOOTH"
);
}
);
};
layerId = "1979AEBF-ACF3-4293-8280-4EC52756D623";
paths = (
{
closed = 1;
nodes = (
"33 25 OFFCURVE",
"35 27 OFFCURVE",
"35 30 CURVE SMOOTH",
"35 33 OFFCURVE",
"33 35 OFFCURVE",
"30 35 CURVE SMOOTH",
"27 35 OFFCURVE",
"25 33 OFFCURVE",
"25 30 CURVE SMOOTH",
"25 27 OFFCURVE",
"27 25 OFFCURVE",
"30 25 CURVE SMOOTH"
);
}
);
width = 60;
},
{
background = {
paths = (
{
closed = 1;
nodes = (
"33 25 OFFCURVE",
"35 27 OFFCURVE",
"35 30 CURVE SMOOTH",
"35 33 OFFCURVE",
"33 35 OFFCURVE",
"30 35 CURVE SMOOTH",
"27 35 OFFCURVE",
"25 33 OFFCURVE",
"25 30 CURVE SMOOTH",
"25 27 OFFCURVE",
"27 25 OFFCURVE",
"30 25 CURVE SMOOTH"
);
}
);
};
guideLines = (
{
position = "{-12, 30}";
},
{
angle = 90;
position = "{30, 79}";
},
{
position = "{0, 60}";
}
);
layerId = "3E7C7373-894E-465B-B362-7C09A6130116";
paths = (
{
closed = 1;
nodes = (
"30 20 OFFCURVE",
"40 30 OFFCURVE",
"30 30 CURVE",
"40 30 OFFCURVE",
"30 40 OFFCURVE",
"30 30 CURVE",
"30 40 OFFCURVE",
"20 30 OFFCURVE",
"30 30 CURVE",
"20 30 OFFCURVE",
"30 20 OFFCURVE",
"30 30 CURVE"
);
}
);
width = 60;
},
{
background = {
paths = (
{
closed = 1;
nodes = (
"33 25 OFFCURVE",
"35 27 OFFCURVE",
"35 30 CURVE SMOOTH",
"35 33 OFFCURVE",
"33 35 OFFCURVE",
"30 35 CURVE SMOOTH",
"27 35 OFFCURVE",
"25 33 OFFCURVE",
"25 30 CURVE SMOOTH",
"25 27 OFFCURVE",
"27 25 OFFCURVE",
"30 25 CURVE SMOOTH"
);
}
);
};
guideLines = (
{
position = "{-12, 30}";
},
{
angle = 90;
position = "{30, 79}";
},
{
position = "{0, 60}";
}
);
layerId = "51876FD2-FB15-42B1-8983-2C578064692B";
paths = (
{
closed = 1;
nodes = (
"32 28 OFFCURVE",
"35 29 OFFCURVE",
"35 32 CURVE SMOOTH",
"35 36 OFFCURVE",
"30 36 OFFCURVE",
"30 32 CURVE",
"30 36 OFFCURVE",
"25 36 OFFCURVE",
"25 32 CURVE SMOOTH",
"25 29 OFFCURVE",
"28 28 OFFCURVE",
"30 25 CURVE"
);
}
);
width = 60;
},
{
background = {
paths = (
{
closed = 1;
nodes = (
"33 25 OFFCURVE",
"35 27 OFFCURVE",
"35 30 CURVE SMOOTH",
"35 33 OFFCURVE",
"33 35 OFFCURVE",
"30 35 CURVE SMOOTH",
"27 35 OFFCURVE",
"25 33 OFFCURVE",
"25 30 CURVE SMOOTH",
"25 27 OFFCURVE",
"27 25 OFFCURVE",
"30 25 CURVE SMOOTH"
);
}
);
};
layerId = "338DE7A2-67B3-4D26-93B7-9535EBEDDE48";
paths = (
{
closed = 1;
nodes = (
"32 27 OFFCURVE",
"33 28 OFFCURVE",
"35 30 CURVE",
"33 32 OFFCURVE",
"32 33 OFFCURVE",
"30 35 CURVE",
"28 33 OFFCURVE",
"27 32 OFFCURVE",
"25 30 CURVE",
"27 28 OFFCURVE",
"28 27 OFFCURVE",
"30 25 CURVE"
);
}
);
width = 60;
},
{
layerId = "603BEC83-C21E-45CC-B62B-D21219333A9E";
width = 600;
},
{
layerId = "1BC44DF8-44A1-4B74-831C-40C40A10F098";
width = 600;
},
{
layerId = "852086DA-8501-469D-AA3F-41FA22DDFBCF";
width = 600;
},
{
layerId = "438D4B4E-3EA7-4A41-8875-80F76BAAB6B3";
width = 600;
},
{
layerId = "14BA25F3-C0EE-4CB4-9F98-5DFEB1E18EE7";
width = 600;
},
{
layerId = "2DAF2681-E3BA-4DC5-83D2-7594B55BDC1F";
width = 600;
},
{
layerId = "9520110A-DE13-4414-A7F5-42A172064E5B";
width = 600;
},
{
layerId = "D3FCCDB1-AA10-47A4-A23D-9BF96A588920";
width = 600;
},
{
layerId = "D643C430-56B0-49A8-9E39-8604C95EB74F";
width = 600;
},
{
layerId = "7797199F-D624-4FDD-A36F-0525AE380D0E";
width = 600;
},
{
layerId = "FA6E6620-C52D-4B33-AA81-50D031CD4A6F";
width = 600;
},
{
layerId = "DA51B74E-A0F5-42B5-A2C0-D3D9A70E926B";
width = 600;
},
{
layerId = "011F2706-27C6-45CF-AFED-5303A8B32752";
width = 600;
},
{
layerId = "6EB6CF65-351D-4989-AD9F-DEECEF62225A";
width = 600;
},
{
layerId = "6D95C03C-148A-4E89-A36A-6A79147497B1";
width = 600;
},
{
layerId = "14825B7F-9412-41E2-8CF9-8F44AA640669";
width = 600;
},
{
layerId = "4DFDD194-A56F-4F9E-97BA-3297822BC055";
width = 600;
},
{
layerId = "9C6A9D34-ABAA-4A0D-9930-BC1F7644D0B6";
width = 600;
},
{
layerId = "A86FE5DC-CBCB-41B2-8326-591D5FD18EB9";
width = 600;
},
{
layerId = "9F96208C-832B-4808-B438-7D3FEE586D2A";
width = 600;
},
{
layerId = "BD5397A9-1FE6-4514-BE6D-B734FE133BF5";
width = 600;
},
{
layerId = "A5C2AB9C-ADFD-454D-8DF7-F417DB232433";
width = 600;
},
{
layerId = "4E15560D-BCA3-4DD9-A968-409C9AA0E428";
width = 600;
},
{
background = {
paths = (
{
closed = 1;
nodes = (
"33 25 OFFCURVE",
"35 27 OFFCURVE",
"35 30 CURVE SMOOTH",
"35 33 OFFCURVE",
"33 35 OFFCURVE",
"30 35 CURVE SMOOTH",
"27 35 OFFCURVE",
"25 33 OFFCURVE",
"25 30 CURVE SMOOTH",
"25 27 OFFCURVE",
"27 25 OFFCURVE",
"30 25 CURVE SMOOTH"
);
}
);
};
layerId = "AAD68214-DCF7-41E4-9114-14FE146B1BEB";
paths = (
{
closed = 1;
nodes = (
"32 27 OFFCURVE",
"33 28 OFFCURVE",
"35 30 CURVE",
"33 32 OFFCURVE",
"32 33 OFFCURVE",
"30 35 CURVE",
"28 33 OFFCURVE",
"27 32 OFFCURVE",
"25 30 CURVE",
"27 28 OFFCURVE",
"28 27 OFFCURVE",
"30 25 CURVE"
);
}
);
width = 60;
},
{
layerId = "8CEE01F3-9DE0-4E6E-8013-9406EBA360D1";
width = 600;
},
{
layerId = "E4E551F6-F8FD-4982-9E15-E7C282900C29";
width = 600;
},
{
layerId = "F7E00E3A-158A-422E-8335-F758AC046B2C";
width = 600;
},
{
layerId = "9F07B2B3-7BA7-410C-8914-36619112BBA6";
width = 600;
},
{
layerId = "EBE48403-0FCD-44AC-9AB2-0AD3A5E63D9A";
width = 600;
},
{
background = {
paths = (
{
closed = 1;
nodes = (
"33 25 OFFCURVE",
"35 27 OFFCURVE",
"35 30 CURVE SMOOTH",
"35 33 OFFCURVE",
"33 35 OFFCURVE",
"30 35 CURVE SMOOTH",
"27 35 OFFCURVE",
"25 33 OFFCURVE",
"25 30 CURVE SMOOTH",
"25 27 OFFCURVE",
"27 25 OFFCURVE",
"30 25 CURVE SMOOTH"
);
}
);
};
layerId = "731692F0-AA29-4851-B444-6CE3FFE142F7";
paths = (
{
closed = 1;
nodes = (
"32 27 OFFCURVE",
"33 28 OFFCURVE",
"35 30 CURVE",
"33 32 OFFCURVE",
"32 33 OFFCURVE",
"30 35 CURVE",
"28 33 OFFCURVE",
"27 32 OFFCURVE",
"25 30 CURVE",
"27 28 OFFCURVE",
"28 27 OFFCURVE",
"30 25 CURVE"
);
}
);
width = 60;
},
{
layerId = "D4E4317C-6609-4A69-A5F7-6DDC3CFB0BD6";
width = 600;
},
{
layerId = "08C62C66-FD01-4260-BAA0-BEE60294F9EF";
width = 600;
},
{
layerId = "C12FEEC6-0181-4EF0-8187-9F5259F16C67";
width = 600;
},
{
layerId = "FCD7E709-3DAF-4187-AB4E-99AB154318F1";
width = 600;
},
{
layerId = "8E325343-FE47-4360-9BB1-1FE512495D76";
width = 600;
},
{
layerId = "BCC53A07-FD2A-4E76-9F5C-642294C4600E";
width = 600;
},
{
layerId = "C1F72B26-F5AA-4F0E-B116-14A9FBD87A6F";
width = 600;
},
{
layerId = "CF821AF9-99F3-46AC-9C1F-60F128DF51F4";
width = 600;
}
);
},
{
color = 8;
glyphname = _shape.23;
lastChange = "2018-11-22 21:07:56 +0000";
layers = (
{
background = {
paths = (
{
closed = 1;
nodes = (
"33 25 OFFCURVE",
"35 27 OFFCURVE",
"35 30 CURVE SMOOTH",
"35 33 OFFCURVE",
"33 35 OFFCURVE",
"30 35 CURVE SMOOTH",
"27 35 OFFCURVE",
"25 33 OFFCURVE",
"25 30 CURVE SMOOTH",
"25 27 OFFCURVE",
"27 25 OFFCURVE",
"30 25 CURVE SMOOTH"
);
}
);
};
layerId = "48ADB338-978D-470D-BA28-092259F64D79";
paths = (
{
closed = 1;
nodes = (
"34 25 OFFCURVE",
"28 35 OFFCURVE",
"28 35 CURVE",
"27 35 OFFCURVE",
"27 35 OFFCURVE",
"26 35 CURVE",
"26 35 OFFCURVE",
"32 25 OFFCURVE",
"32 25 CURVE",
"33 25 OFFCURVE",
"33 25 OFFCURVE",
"34 25 CURVE"
);
}
);
width = 60;
},
{
background = {
paths = (
{
closed = 1;
nodes = (
"33 25 OFFCURVE",
"35 27 OFFCURVE",
"35 30 CURVE SMOOTH",
"35 33 OFFCURVE",
"33 35 OFFCURVE",
"30 35 CURVE SMOOTH",
"27 35 OFFCURVE",
"25 33 OFFCURVE",
"25 30 CURVE SMOOTH",
"25 27 OFFCURVE",
"27 25 OFFCURVE",
"30 25 CURVE SMOOTH"
);
}
);
};
layerId = "631FB97C-DDFD-47C8-A05F-E57C7765765C";
paths = (
{
closed = 1;
nodes = (
"32 27 OFFCURVE",
"33 28 OFFCURVE",
"35 30 CURVE",
"33 32 OFFCURVE",
"32 33 OFFCURVE",
"30 35 CURVE",
"28 33 OFFCURVE",
"27 32 OFFCURVE",
"25 30 CURVE",
"27 28 OFFCURVE",
"28 27 OFFCURVE",
"30 25 CURVE"
);
}
);
width = 60;
},
{
background = {
paths = (
{
closed = 1;
nodes = (
"38 16 OFFCURVE",
"44 22 OFFCURVE",
"44 30 CURVE SMOOTH",
"44 38 OFFCURVE",
"38 44 OFFCURVE",
"30 44 CURVE SMOOTH",
"22 44 OFFCURVE",
"16 38 OFFCURVE",
"16 30 CURVE SMOOTH",
"16 22 OFFCURVE",
"22 16 OFFCURVE",
"30 16 CURVE SMOOTH"
);
}
);
};
layerId = "1979AEBF-ACF3-4293-8280-4EC52756D623";
paths = (
{
closed = 1;
nodes = (
"33 25 OFFCURVE",
"35 27 OFFCURVE",
"35 30 CURVE SMOOTH",
"35 33 OFFCURVE",
"33 35 OFFCURVE",
"30 35 CURVE SMOOTH",
"27 35 OFFCURVE",
"25 33 OFFCURVE",
"25 30 CURVE SMOOTH",
"25 27 OFFCURVE",
"27 25 OFFCURVE",
"30 25 CURVE SMOOTH"
);
}
);
width = 60;
},
{
background = {
paths = (
{
closed = 1;
nodes = (
"33 25 OFFCURVE",
"35 27 OFFCURVE",
"35 30 CURVE SMOOTH",
"35 33 OFFCURVE",
"33 35 OFFCURVE",
"30 35 CURVE SMOOTH",
"27 35 OFFCURVE",
"25 33 OFFCURVE",
"25 30 CURVE SMOOTH",
"25 27 OFFCURVE",
"27 25 OFFCURVE",
"30 25 CURVE SMOOTH"
);
}
);
};
guideLines = (
{
position = "{-12, 30}";
},
{
angle = 90;
position = "{30, 79}";
},
{
position = "{0, 60}";
}
);
layerId = "3E7C7373-894E-465B-B362-7C09A6130116";
paths = (
{
closed = 1;
nodes = (
"30 20 OFFCURVE",
"40 30 OFFCURVE",
"30 30 CURVE",
"40 30 OFFCURVE",
"30 40 OFFCURVE",
"30 30 CURVE",
"30 40 OFFCURVE",
"20 30 OFFCURVE",
"30 30 CURVE",
"20 30 OFFCURVE",
"30 20 OFFCURVE",
"30 30 CURVE"
);
}
);
width = 60;
},
{
background = {
paths = (
{
closed = 1;
nodes = (
"33 25 OFFCURVE",
"35 27 OFFCURVE",
"35 30 CURVE SMOOTH",
"35 33 OFFCURVE",
"33 35 OFFCURVE",
"30 35 CURVE SMOOTH",
"27 35 OFFCURVE",
"25 33 OFFCURVE",
"25 30 CURVE SMOOTH",
"25 27 OFFCURVE",
"27 25 OFFCURVE",
"30 25 CURVE SMOOTH"
);
}
);
};
guideLines = (
{
position = "{-12, 30}";
},
{
angle = 90;
position = "{30, 79}";
},
{
position = "{0, 60}";
}
);
layerId = "51876FD2-FB15-42B1-8983-2C578064692B";
paths = (
{
closed = 1;
nodes = (
"32 28 OFFCURVE",
"35 29 OFFCURVE",
"35 32 CURVE SMOOTH",
"35 36 OFFCURVE",
"30 36 OFFCURVE",
"30 32 CURVE",
"30 36 OFFCURVE",
"25 36 OFFCURVE",
"25 32 CURVE SMOOTH",
"25 29 OFFCURVE",
"28 28 OFFCURVE",
"30 25 CURVE"
);
}
);
width = 60;
},
{
background = {
paths = (
{
closed = 1;
nodes = (
"33 25 OFFCURVE",
"35 27 OFFCURVE",
"35 30 CURVE SMOOTH",
"35 33 OFFCURVE",
"33 35 OFFCURVE",
"30 35 CURVE SMOOTH",
"27 35 OFFCURVE",
"25 33 OFFCURVE",
"25 30 CURVE SMOOTH",
"25 27 OFFCURVE",
"27 25 OFFCURVE",
"30 25 CURVE SMOOTH"
);
}
);
};
layerId = "338DE7A2-67B3-4D26-93B7-9535EBEDDE48";
paths = (
{
closed = 1;
nodes = (
"32 25 OFFCURVE",
"32 25 OFFCURVE",
"33 25 CURVE",
"33 25 OFFCURVE",
"29 35 OFFCURVE",
"29 35 CURVE",
"29 35 OFFCURVE",
"29 35 OFFCURVE",
"27 35 CURVE",
"27 35 OFFCURVE",
"31 25 OFFCURVE",
"31 25 CURVE"
);
}
);
width = 60;
},
{
background = {
paths = (
{
closed = 1;
nodes = (
"33 25 OFFCURVE",
"35 27 OFFCURVE",
"35 30 CURVE SMOOTH",
"35 33 OFFCURVE",
"33 35 OFFCURVE",
"30 35 CURVE SMOOTH",
"27 35 OFFCURVE",
"25 33 OFFCURVE",
"25 30 CURVE SMOOTH",
"25 27 OFFCURVE",
"27 25 OFFCURVE",
"30 25 CURVE SMOOTH"
);
}
);
};
layerId = "AAD68214-DCF7-41E4-9114-14FE146B1BEB";
paths = (
{
closed = 1;
nodes = (
"32 25 OFFCURVE",
"32 25 OFFCURVE",
"33 25 CURVE",
"33 25 OFFCURVE",
"29 35 OFFCURVE",
"29 35 CURVE",
"29 35 OFFCURVE",
"29 35 OFFCURVE",
"27 35 CURVE",
"27 35 OFFCURVE",
"31 25 OFFCURVE",
"31 25 CURVE"
);
}
);
width = 60;
},
{
background = {
paths = (
{
closed = 1;
nodes = (
"33 25 OFFCURVE",
"35 27 OFFCURVE",
"35 30 CURVE SMOOTH",
"35 33 OFFCURVE",
"33 35 OFFCURVE",
"30 35 CURVE SMOOTH",
"27 35 OFFCURVE",
"25 33 OFFCURVE",
"25 30 CURVE SMOOTH",
"25 27 OFFCURVE",
"27 25 OFFCURVE",
"30 25 CURVE SMOOTH"
);
}
);
};
layerId = "731692F0-AA29-4851-B444-6CE3FFE142F7";
paths = (
{
closed = 1;
nodes = (
"32 25 OFFCURVE",
"32 25 OFFCURVE",
"33 25 CURVE",
"33 25 OFFCURVE",
"29 35 OFFCURVE",
"29 35 CURVE",
"29 35 OFFCURVE",
"29 35 OFFCURVE",
"27 35 CURVE",
"27 35 OFFCURVE",
"31 25 OFFCURVE",
"31 25 CURVE"
);
}
);
width = 60;
},
{
layerId = "603BEC83-C21E-45CC-B62B-D21219333A9E";
width = 600;
},
{
layerId = "1BC44DF8-44A1-4B74-831C-40C40A10F098";
width = 600;
},
{
layerId = "852086DA-8501-469D-AA3F-41FA22DDFBCF";
width = 600;
},
{
layerId = "438D4B4E-3EA7-4A41-8875-80F76BAAB6B3";
width = 600;
},
{
layerId = "14BA25F3-C0EE-4CB4-9F98-5DFEB1E18EE7";
width = 600;
},
{
layerId = "2DAF2681-E3BA-4DC5-83D2-7594B55BDC1F";
width = 600;
},
{
layerId = "9520110A-DE13-4414-A7F5-42A172064E5B";
width = 600;
},
{
layerId = "D3FCCDB1-AA10-47A4-A23D-9BF96A588920";
width = 600;
},
{
layerId = "D643C430-56B0-49A8-9E39-8604C95EB74F";
width = 600;
},
{
layerId = "7797199F-D624-4FDD-A36F-0525AE380D0E";
width = 600;
},
{
layerId = "FA6E6620-C52D-4B33-AA81-50D031CD4A6F";
width = 600;
},
{
layerId = "DA51B74E-A0F5-42B5-A2C0-D3D9A70E926B";
width = 600;
},
{
layerId = "011F2706-27C6-45CF-AFED-5303A8B32752";
width = 600;
},
{
layerId = "6EB6CF65-351D-4989-AD9F-DEECEF62225A";
width = 600;
},
{
layerId = "D4E4317C-6609-4A69-A5F7-6DDC3CFB0BD6";
width = 600;
},
{
layerId = "08C62C66-FD01-4260-BAA0-BEE60294F9EF";
width = 600;
},
{
layerId = "C12FEEC6-0181-4EF0-8187-9F5259F16C67";
width = 600;
},
{
layerId = "FCD7E709-3DAF-4187-AB4E-99AB154318F1";
width = 600;
},
{
layerId = "EBE48403-0FCD-44AC-9AB2-0AD3A5E63D9A";
width = 600;
},
{
layerId = "9F07B2B3-7BA7-410C-8914-36619112BBA6";
width = 600;
},
{
layerId = "F7E00E3A-158A-422E-8335-F758AC046B2C";
width = 600;
},
{
layerId = "E4E551F6-F8FD-4982-9E15-E7C282900C29";
width = 600;
},
{
layerId = "8CEE01F3-9DE0-4E6E-8013-9406EBA360D1";
width = 600;
},
{
layerId = "4E15560D-BCA3-4DD9-A968-409C9AA0E428";
width = 600;
},
{
layerId = "A5C2AB9C-ADFD-454D-8DF7-F417DB232433";
width = 600;
},
{
layerId = "BD5397A9-1FE6-4514-BE6D-B734FE133BF5";
width = 600;
},
{
layerId = "9F96208C-832B-4808-B438-7D3FEE586D2A";
width = 600;
},
{
layerId = "A86FE5DC-CBCB-41B2-8326-591D5FD18EB9";
width = 600;
},
{
layerId = "9C6A9D34-ABAA-4A0D-9930-BC1F7644D0B6";
width = 600;
},
{
layerId = "4DFDD194-A56F-4F9E-97BA-3297822BC055";
width = 600;
},
{
layerId = "14825B7F-9412-41E2-8CF9-8F44AA640669";
width = 600;
},
{
layerId = "6D95C03C-148A-4E89-A36A-6A79147497B1";
width = 600;
},
{
layerId = "8E325343-FE47-4360-9BB1-1FE512495D76";
width = 600;
},
{
layerId = "BCC53A07-FD2A-4E76-9F5C-642294C4600E";
width = 600;
},
{
layerId = "C1F72B26-F5AA-4F0E-B116-14A9FBD87A6F";
width = 600;
},
{
layerId = "CF821AF9-99F3-46AC-9C1F-60F128DF51F4";
width = 600;
}
);
},
{
color = 8;
glyphname = _shape.24;
lastChange = "2018-11-22 21:07:56 +0000";
layers = (
{
background = {
paths = (
{
closed = 1;
nodes = (
"33 25 OFFCURVE",
"35 27 OFFCURVE",
"35 30 CURVE SMOOTH",
"35 33 OFFCURVE",
"33 35 OFFCURVE",
"30 35 CURVE SMOOTH",
"27 35 OFFCURVE",
"25 33 OFFCURVE",
"25 30 CURVE SMOOTH",
"25 27 OFFCURVE",
"27 25 OFFCURVE",
"30 25 CURVE SMOOTH"
);
}
);
};
layerId = "48ADB338-978D-470D-BA28-092259F64D79";
paths = (
{
closed = 1;
nodes = (
"28 25 OFFCURVE",
"34 35 OFFCURVE",
"34 35 CURVE",
"33 35 OFFCURVE",
"33 35 OFFCURVE",
"32 35 CURVE",
"32 35 OFFCURVE",
"26 25 OFFCURVE",
"26 25 CURVE",
"27 25 OFFCURVE",
"27 25 OFFCURVE",
"28 25 CURVE"
);
}
);
width = 60;
},
{
background = {
paths = (
{
closed = 1;
nodes = (
"33 25 OFFCURVE",
"35 27 OFFCURVE",
"35 30 CURVE SMOOTH",
"35 33 OFFCURVE",
"33 35 OFFCURVE",
"30 35 CURVE SMOOTH",
"27 35 OFFCURVE",
"25 33 OFFCURVE",
"25 30 CURVE SMOOTH",
"25 27 OFFCURVE",
"27 25 OFFCURVE",
"30 25 CURVE SMOOTH"
);
}
);
};
layerId = "631FB97C-DDFD-47C8-A05F-E57C7765765C";
paths = (
{
closed = 1;
nodes = (
"32 27 OFFCURVE",
"33 28 OFFCURVE",
"35 30 CURVE",
"33 32 OFFCURVE",
"32 33 OFFCURVE",
"30 35 CURVE",
"28 33 OFFCURVE",
"27 32 OFFCURVE",
"25 30 CURVE",
"27 28 OFFCURVE",
"28 27 OFFCURVE",
"30 25 CURVE"
);
}
);
width = 60;
},
{
background = {
paths = (
{
closed = 1;
nodes = (
"38 16 OFFCURVE",
"44 22 OFFCURVE",
"44 30 CURVE SMOOTH",
"44 38 OFFCURVE",
"38 44 OFFCURVE",
"30 44 CURVE SMOOTH",
"22 44 OFFCURVE",
"16 38 OFFCURVE",
"16 30 CURVE SMOOTH",
"16 22 OFFCURVE",
"22 16 OFFCURVE",
"30 16 CURVE SMOOTH"
);
}
);
};
layerId = "1979AEBF-ACF3-4293-8280-4EC52756D623";
paths = (
{
closed = 1;
nodes = (
"33 25 OFFCURVE",
"35 27 OFFCURVE",
"35 30 CURVE SMOOTH",
"35 33 OFFCURVE",
"33 35 OFFCURVE",
"30 35 CURVE SMOOTH",
"27 35 OFFCURVE",
"25 33 OFFCURVE",
"25 30 CURVE SMOOTH",
"25 27 OFFCURVE",
"27 25 OFFCURVE",
"30 25 CURVE SMOOTH"
);
}
);
width = 60;
},
{
background = {
paths = (
{
closed = 1;
nodes = (
"33 25 OFFCURVE",
"35 27 OFFCURVE",
"35 30 CURVE SMOOTH",
"35 33 OFFCURVE",
"33 35 OFFCURVE",
"30 35 CURVE SMOOTH",
"27 35 OFFCURVE",
"25 33 OFFCURVE",
"25 30 CURVE SMOOTH",
"25 27 OFFCURVE",
"27 25 OFFCURVE",
"30 25 CURVE SMOOTH"
);
}
);
};
guideLines = (
{
position = "{-12, 30}";
},
{
angle = 90;
position = "{30, 79}";
},
{
position = "{0, 60}";
}
);
layerId = "3E7C7373-894E-465B-B362-7C09A6130116";
paths = (
{
closed = 1;
nodes = (
"30 20 OFFCURVE",
"40 30 OFFCURVE",
"30 30 CURVE",
"40 30 OFFCURVE",
"30 40 OFFCURVE",
"30 30 CURVE",
"30 40 OFFCURVE",
"20 30 OFFCURVE",
"30 30 CURVE",
"20 30 OFFCURVE",
"30 20 OFFCURVE",
"30 30 CURVE"
);
}
);
width = 60;
},
{
background = {
paths = (
{
closed = 1;
nodes = (
"33 25 OFFCURVE",
"35 27 OFFCURVE",
"35 30 CURVE SMOOTH",
"35 33 OFFCURVE",
"33 35 OFFCURVE",
"30 35 CURVE SMOOTH",
"27 35 OFFCURVE",
"25 33 OFFCURVE",
"25 30 CURVE SMOOTH",
"25 27 OFFCURVE",
"27 25 OFFCURVE",
"30 25 CURVE SMOOTH"
);
}
);
};
guideLines = (
{
position = "{-12, 30}";
},
{
angle = 90;
position = "{30, 79}";
},
{
position = "{0, 60}";
}
);
layerId = "51876FD2-FB15-42B1-8983-2C578064692B";
paths = (
{
closed = 1;
nodes = (
"32 28 OFFCURVE",
"35 29 OFFCURVE",
"35 32 CURVE SMOOTH",
"35 36 OFFCURVE",
"30 36 OFFCURVE",
"30 32 CURVE",
"30 36 OFFCURVE",
"25 36 OFFCURVE",
"25 32 CURVE SMOOTH",
"25 29 OFFCURVE",
"28 28 OFFCURVE",
"30 25 CURVE"
);
}
);
width = 60;
},
{
background = {
paths = (
{
closed = 1;
nodes = (
"33 25 OFFCURVE",
"35 27 OFFCURVE",
"35 30 CURVE SMOOTH",
"35 33 OFFCURVE",
"33 35 OFFCURVE",
"30 35 CURVE SMOOTH",
"27 35 OFFCURVE",
"25 33 OFFCURVE",
"25 30 CURVE SMOOTH",
"25 27 OFFCURVE",
"27 25 OFFCURVE",
"30 25 CURVE SMOOTH"
);
}
);
};
layerId = "338DE7A2-67B3-4D26-93B7-9535EBEDDE48";
paths = (
{
closed = 1;
nodes = (
"28 25 OFFCURVE",
"28 25 OFFCURVE",
"29 25 CURVE",
"29 25 OFFCURVE",
"33 35 OFFCURVE",
"33 35 CURVE",
"31 35 OFFCURVE",
"31 35 OFFCURVE",
"31 35 CURVE",
"31 35 OFFCURVE",
"27 25 OFFCURVE",
"27 25 CURVE"
);
}
);
width = 60;
},
{
background = {
paths = (
{
closed = 1;
nodes = (
"33 25 OFFCURVE",
"35 27 OFFCURVE",
"35 30 CURVE SMOOTH",
"35 33 OFFCURVE",
"33 35 OFFCURVE",
"30 35 CURVE SMOOTH",
"27 35 OFFCURVE",
"25 33 OFFCURVE",
"25 30 CURVE SMOOTH",
"25 27 OFFCURVE",
"27 25 OFFCURVE",
"30 25 CURVE SMOOTH"
);
}
);
};
layerId = "AAD68214-DCF7-41E4-9114-14FE146B1BEB";
paths = (
{
closed = 1;
nodes = (
"28 25 OFFCURVE",
"28 25 OFFCURVE",
"29 25 CURVE",
"29 25 OFFCURVE",
"33 35 OFFCURVE",
"33 35 CURVE",
"31 35 OFFCURVE",
"31 35 OFFCURVE",
"31 35 CURVE",
"31 35 OFFCURVE",
"27 25 OFFCURVE",
"27 25 CURVE"
);
}
);
width = 60;
},
{
background = {
paths = (
{
closed = 1;
nodes = (
"33 25 OFFCURVE",
"35 27 OFFCURVE",
"35 30 CURVE SMOOTH",
"35 33 OFFCURVE",
"33 35 OFFCURVE",
"30 35 CURVE SMOOTH",
"27 35 OFFCURVE",
"25 33 OFFCURVE",
"25 30 CURVE SMOOTH",
"25 27 OFFCURVE",
"27 25 OFFCURVE",
"30 25 CURVE SMOOTH"
);
}
);
};
layerId = "731692F0-AA29-4851-B444-6CE3FFE142F7";
paths = (
{
closed = 1;
nodes = (
"28 25 OFFCURVE",
"28 25 OFFCURVE",
"29 25 CURVE",
"29 25 OFFCURVE",
"33 35 OFFCURVE",
"33 35 CURVE",
"31 35 OFFCURVE",
"31 35 OFFCURVE",
"31 35 CURVE",
"31 35 OFFCURVE",
"27 25 OFFCURVE",
"27 25 CURVE"
);
}
);
width = 60;
},
{
layerId = "603BEC83-C21E-45CC-B62B-D21219333A9E";
width = 600;
},
{
layerId = "1BC44DF8-44A1-4B74-831C-40C40A10F098";
width = 600;
},
{
layerId = "852086DA-8501-469D-AA3F-41FA22DDFBCF";
width = 600;
},
{
layerId = "438D4B4E-3EA7-4A41-8875-80F76BAAB6B3";
width = 600;
},
{
layerId = "14BA25F3-C0EE-4CB4-9F98-5DFEB1E18EE7";
width = 600;
},
{
layerId = "2DAF2681-E3BA-4DC5-83D2-7594B55BDC1F";
width = 600;
},
{
layerId = "9520110A-DE13-4414-A7F5-42A172064E5B";
width = 600;
},
{
layerId = "D3FCCDB1-AA10-47A4-A23D-9BF96A588920";
width = 600;
},
{
layerId = "D643C430-56B0-49A8-9E39-8604C95EB74F";
width = 600;
},
{
layerId = "7797199F-D624-4FDD-A36F-0525AE380D0E";
width = 600;
},
{
layerId = "FA6E6620-C52D-4B33-AA81-50D031CD4A6F";
width = 600;
},
{
layerId = "DA51B74E-A0F5-42B5-A2C0-D3D9A70E926B";
width = 600;
},
{
layerId = "011F2706-27C6-45CF-AFED-5303A8B32752";
width = 600;
},
{
layerId = "6EB6CF65-351D-4989-AD9F-DEECEF62225A";
width = 600;
},
{
layerId = "D4E4317C-6609-4A69-A5F7-6DDC3CFB0BD6";
width = 600;
},
{
layerId = "08C62C66-FD01-4260-BAA0-BEE60294F9EF";
width = 600;
},
{
layerId = "C12FEEC6-0181-4EF0-8187-9F5259F16C67";
width = 600;
},
{
layerId = "FCD7E709-3DAF-4187-AB4E-99AB154318F1";
width = 600;
},
{
layerId = "EBE48403-0FCD-44AC-9AB2-0AD3A5E63D9A";
width = 600;
},
{
layerId = "9F07B2B3-7BA7-410C-8914-36619112BBA6";
width = 600;
},
{
layerId = "F7E00E3A-158A-422E-8335-F758AC046B2C";
width = 600;
},
{
layerId = "E4E551F6-F8FD-4982-9E15-E7C282900C29";
width = 600;
},
{
layerId = "8CEE01F3-9DE0-4E6E-8013-9406EBA360D1";
width = 600;
},
{
layerId = "4E15560D-BCA3-4DD9-A968-409C9AA0E428";
width = 600;
},
{
layerId = "A5C2AB9C-ADFD-454D-8DF7-F417DB232433";
width = 600;
},
{
layerId = "BD5397A9-1FE6-4514-BE6D-B734FE133BF5";
width = 600;
},
{
layerId = "9F96208C-832B-4808-B438-7D3FEE586D2A";
width = 600;
},
{
layerId = "A86FE5DC-CBCB-41B2-8326-591D5FD18EB9";
width = 600;
},
{
layerId = "9C6A9D34-ABAA-4A0D-9930-BC1F7644D0B6";
width = 600;
},
{
layerId = "4DFDD194-A56F-4F9E-97BA-3297822BC055";
width = 600;
},
{
layerId = "14825B7F-9412-41E2-8CF9-8F44AA640669";
width = 600;
},
{
layerId = "6D95C03C-148A-4E89-A36A-6A79147497B1";
width = 600;
},
{
layerId = "8E325343-FE47-4360-9BB1-1FE512495D76";
width = 600;
},
{
layerId = "BCC53A07-FD2A-4E76-9F5C-642294C4600E";
width = 600;
},
{
layerId = "C1F72B26-F5AA-4F0E-B116-14A9FBD87A6F";
width = 600;
},
{
layerId = "CF821AF9-99F3-46AC-9C1F-60F128DF51F4";
width = 600;
}
);
},
{
color = 8;
glyphname = _shape.25;
lastChange = "2018-11-22 21:07:56 +0000";
layers = (
{
background = {
paths = (
{
closed = 1;
nodes = (
"33 25 OFFCURVE",
"35 27 OFFCURVE",
"35 30 CURVE SMOOTH",
"35 33 OFFCURVE",
"33 35 OFFCURVE",
"30 35 CURVE SMOOTH",
"27 35 OFFCURVE",
"25 33 OFFCURVE",
"25 30 CURVE SMOOTH",
"25 27 OFFCURVE",
"27 25 OFFCURVE",
"30 25 CURVE SMOOTH"
);
}
);
};
layerId = "48ADB338-978D-470D-BA28-092259F64D79";
paths = (
{
closed = 1;
nodes = (
"28 29 OFFCURVE",
"32 29 OFFCURVE",
"35 29 CURVE",
"35 30 OFFCURVE",
"35 30 OFFCURVE",
"35 31 CURVE",
"32 31 OFFCURVE",
"28 31 OFFCURVE",
"25 31 CURVE",
"25 30 OFFCURVE",
"25 30 OFFCURVE",
"25 29 CURVE"
);
}
);
width = 60;
},
{
background = {
paths = (
{
closed = 1;
nodes = (
"33 25 OFFCURVE",
"35 27 OFFCURVE",
"35 30 CURVE SMOOTH",
"35 33 OFFCURVE",
"33 35 OFFCURVE",
"30 35 CURVE SMOOTH",
"27 35 OFFCURVE",
"25 33 OFFCURVE",
"25 30 CURVE SMOOTH",
"25 27 OFFCURVE",
"27 25 OFFCURVE",
"30 25 CURVE SMOOTH"
);
}
);
};
layerId = "631FB97C-DDFD-47C8-A05F-E57C7765765C";
paths = (
{
closed = 1;
nodes = (
"32 27 OFFCURVE",
"33 28 OFFCURVE",
"35 30 CURVE",
"33 32 OFFCURVE",
"32 33 OFFCURVE",
"30 35 CURVE",
"28 33 OFFCURVE",
"27 32 OFFCURVE",
"25 30 CURVE",
"27 28 OFFCURVE",
"28 27 OFFCURVE",
"30 25 CURVE"
);
}
);
width = 60;
},
{
background = {
paths = (
{
closed = 1;
nodes = (
"38 16 OFFCURVE",
"44 22 OFFCURVE",
"44 30 CURVE SMOOTH",
"44 38 OFFCURVE",
"38 44 OFFCURVE",
"30 44 CURVE SMOOTH",
"22 44 OFFCURVE",
"16 38 OFFCURVE",
"16 30 CURVE SMOOTH",
"16 22 OFFCURVE",
"22 16 OFFCURVE",
"30 16 CURVE SMOOTH"
);
}
);
};
layerId = "1979AEBF-ACF3-4293-8280-4EC52756D623";
paths = (
{
closed = 1;
nodes = (
"33 25 OFFCURVE",
"35 27 OFFCURVE",
"35 30 CURVE SMOOTH",
"35 33 OFFCURVE",
"33 35 OFFCURVE",
"30 35 CURVE SMOOTH",
"27 35 OFFCURVE",
"25 33 OFFCURVE",
"25 30 CURVE SMOOTH",
"25 27 OFFCURVE",
"27 25 OFFCURVE",
"30 25 CURVE SMOOTH"
);
}
);
width = 60;
},
{
background = {
paths = (
{
closed = 1;
nodes = (
"33 25 OFFCURVE",
"35 27 OFFCURVE",
"35 30 CURVE SMOOTH",
"35 33 OFFCURVE",
"33 35 OFFCURVE",
"30 35 CURVE SMOOTH",
"27 35 OFFCURVE",
"25 33 OFFCURVE",
"25 30 CURVE SMOOTH",
"25 27 OFFCURVE",
"27 25 OFFCURVE",
"30 25 CURVE SMOOTH"
);
}
);
};
guideLines = (
{
position = "{-12, 30}";
},
{
angle = 90;
position = "{30, 79}";
},
{
position = "{0, 60}";
}
);
layerId = "3E7C7373-894E-465B-B362-7C09A6130116";
paths = (
{
closed = 1;
nodes = (
"30 20 OFFCURVE",
"40 30 OFFCURVE",
"30 30 CURVE",
"40 30 OFFCURVE",
"30 40 OFFCURVE",
"30 30 CURVE",
"30 40 OFFCURVE",
"20 30 OFFCURVE",
"30 30 CURVE",
"20 30 OFFCURVE",
"30 20 OFFCURVE",
"30 30 CURVE"
);
}
);
width = 60;
},
{
background = {
paths = (
{
closed = 1;
nodes = (
"33 25 OFFCURVE",
"35 27 OFFCURVE",
"35 30 CURVE SMOOTH",
"35 33 OFFCURVE",
"33 35 OFFCURVE",
"30 35 CURVE SMOOTH",
"27 35 OFFCURVE",
"25 33 OFFCURVE",
"25 30 CURVE SMOOTH",
"25 27 OFFCURVE",
"27 25 OFFCURVE",
"30 25 CURVE SMOOTH"
);
}
);
};
guideLines = (
{
position = "{-12, 30}";
},
{
angle = 90;
position = "{30, 79}";
},
{
position = "{0, 60}";
}
);
layerId = "51876FD2-FB15-42B1-8983-2C578064692B";
paths = (
{
closed = 1;
nodes = (
"32 28 OFFCURVE",
"35 29 OFFCURVE",
"35 32 CURVE SMOOTH",
"35 36 OFFCURVE",
"30 36 OFFCURVE",
"30 32 CURVE",
"30 36 OFFCURVE",
"25 36 OFFCURVE",
"25 32 CURVE SMOOTH",
"25 29 OFFCURVE",
"28 28 OFFCURVE",
"30 25 CURVE"
);
}
);
width = 60;
},
{
background = {
paths = (
{
closed = 1;
nodes = (
"33 25 OFFCURVE",
"35 27 OFFCURVE",
"35 30 CURVE SMOOTH",
"35 33 OFFCURVE",
"33 35 OFFCURVE",
"30 35 CURVE SMOOTH",
"27 35 OFFCURVE",
"25 33 OFFCURVE",
"25 30 CURVE SMOOTH",
"25 27 OFFCURVE",
"27 25 OFFCURVE",
"30 25 CURVE SMOOTH"
);
}
);
};
layerId = "338DE7A2-67B3-4D26-93B7-9535EBEDDE48";
paths = (
{
closed = 1;
nodes = (
"30 25 OFFCURVE",
"30 25 OFFCURVE",
"31 25 CURVE",
"31 28 OFFCURVE",
"31 32 OFFCURVE",
"31 35 CURVE",
"30 35 OFFCURVE",
"30 35 OFFCURVE",
"29 35 CURVE",
"29 32 OFFCURVE",
"29 28 OFFCURVE",
"29 25 CURVE"
);
}
);
width = 60;
},
{
background = {
paths = (
{
closed = 1;
nodes = (
"33 25 OFFCURVE",
"35 27 OFFCURVE",
"35 30 CURVE SMOOTH",
"35 33 OFFCURVE",
"33 35 OFFCURVE",
"30 35 CURVE SMOOTH",
"27 35 OFFCURVE",
"25 33 OFFCURVE",
"25 30 CURVE SMOOTH",
"25 27 OFFCURVE",
"27 25 OFFCURVE",
"30 25 CURVE SMOOTH"
);
}
);
};
layerId = "AAD68214-DCF7-41E4-9114-14FE146B1BEB";
paths = (
{
closed = 1;
nodes = (
"30 25 OFFCURVE",
"30 25 OFFCURVE",
"31 25 CURVE",
"31 28 OFFCURVE",
"31 32 OFFCURVE",
"31 35 CURVE",
"30 35 OFFCURVE",
"30 35 OFFCURVE",
"29 35 CURVE",
"29 32 OFFCURVE",
"29 28 OFFCURVE",
"29 25 CURVE"
);
}
);
width = 60;
},
{
background = {
paths = (
{
closed = 1;
nodes = (
"33 25 OFFCURVE",
"35 27 OFFCURVE",
"35 30 CURVE SMOOTH",
"35 33 OFFCURVE",
"33 35 OFFCURVE",
"30 35 CURVE SMOOTH",
"27 35 OFFCURVE",
"25 33 OFFCURVE",
"25 30 CURVE SMOOTH",
"25 27 OFFCURVE",
"27 25 OFFCURVE",
"30 25 CURVE SMOOTH"
);
}
);
};
layerId = "731692F0-AA29-4851-B444-6CE3FFE142F7";
paths = (
{
closed = 1;
nodes = (
"30 25 OFFCURVE",
"30 25 OFFCURVE",
"31 25 CURVE",
"31 28 OFFCURVE",
"31 32 OFFCURVE",
"31 35 CURVE",
"30 35 OFFCURVE",
"30 35 OFFCURVE",
"29 35 CURVE",
"29 32 OFFCURVE",
"29 28 OFFCURVE",
"29 25 CURVE"
);
}
);
width = 60;
},
{
layerId = "603BEC83-C21E-45CC-B62B-D21219333A9E";
width = 600;
},
{
layerId = "1BC44DF8-44A1-4B74-831C-40C40A10F098";
width = 600;
},
{
layerId = "852086DA-8501-469D-AA3F-41FA22DDFBCF";
width = 600;
},
{
layerId = "438D4B4E-3EA7-4A41-8875-80F76BAAB6B3";
width = 600;
},
{
layerId = "14BA25F3-C0EE-4CB4-9F98-5DFEB1E18EE7";
width = 600;
},
{
layerId = "2DAF2681-E3BA-4DC5-83D2-7594B55BDC1F";
width = 600;
},
{
layerId = "9520110A-DE13-4414-A7F5-42A172064E5B";
width = 600;
},
{
layerId = "D3FCCDB1-AA10-47A4-A23D-9BF96A588920";
width = 600;
},
{
layerId = "D643C430-56B0-49A8-9E39-8604C95EB74F";
width = 600;
},
{
layerId = "7797199F-D624-4FDD-A36F-0525AE380D0E";
width = 600;
},
{
layerId = "FA6E6620-C52D-4B33-AA81-50D031CD4A6F";
width = 600;
},
{
layerId = "DA51B74E-A0F5-42B5-A2C0-D3D9A70E926B";
width = 600;
},
{
layerId = "011F2706-27C6-45CF-AFED-5303A8B32752";
width = 600;
},
{
layerId = "6EB6CF65-351D-4989-AD9F-DEECEF62225A";
width = 600;
},
{
layerId = "D4E4317C-6609-4A69-A5F7-6DDC3CFB0BD6";
width = 600;
},
{
layerId = "08C62C66-FD01-4260-BAA0-BEE60294F9EF";
width = 600;
},
{
layerId = "C12FEEC6-0181-4EF0-8187-9F5259F16C67";
width = 600;
},
{
layerId = "FCD7E709-3DAF-4187-AB4E-99AB154318F1";
width = 600;
},
{
layerId = "EBE48403-0FCD-44AC-9AB2-0AD3A5E63D9A";
width = 600;
},
{
layerId = "9F07B2B3-7BA7-410C-8914-36619112BBA6";
width = 600;
},
{
layerId = "F7E00E3A-158A-422E-8335-F758AC046B2C";
width = 600;
},
{
layerId = "E4E551F6-F8FD-4982-9E15-E7C282900C29";
width = 600;
},
{
layerId = "8CEE01F3-9DE0-4E6E-8013-9406EBA360D1";
width = 600;
},
{
layerId = "4E15560D-BCA3-4DD9-A968-409C9AA0E428";
width = 600;
},
{
layerId = "A5C2AB9C-ADFD-454D-8DF7-F417DB232433";
width = 600;
},
{
layerId = "BD5397A9-1FE6-4514-BE6D-B734FE133BF5";
width = 600;
},
{
layerId = "9F96208C-832B-4808-B438-7D3FEE586D2A";
width = 600;
},
{
layerId = "A86FE5DC-CBCB-41B2-8326-591D5FD18EB9";
width = 600;
},
{
layerId = "9C6A9D34-ABAA-4A0D-9930-BC1F7644D0B6";
width = 600;
},
{
layerId = "4DFDD194-A56F-4F9E-97BA-3297822BC055";
width = 600;
},
{
layerId = "14825B7F-9412-41E2-8CF9-8F44AA640669";
width = 600;
},
{
layerId = "6D95C03C-148A-4E89-A36A-6A79147497B1";
width = 600;
},
{
layerId = "8E325343-FE47-4360-9BB1-1FE512495D76";
width = 600;
},
{
layerId = "BCC53A07-FD2A-4E76-9F5C-642294C4600E";
width = 600;
},
{
layerId = "C1F72B26-F5AA-4F0E-B116-14A9FBD87A6F";
width = 600;
},
{
layerId = "CF821AF9-99F3-46AC-9C1F-60F128DF51F4";
width = 600;
}
);
},
